<?xml version="1.0" standalone="no"?>
<!DOCTYPE svg PUBLIC "-//W3C//DTD SVG 1.1//EN" "http://www.w3.org/Graphics/SVG/1.1/DTD/svg11.dtd" >
<svg xmlns="http://www.w3.org/2000/svg">
<metadata></metadata>
<defs>
<font id="exodemi_bold_italic" horiz-adv-x="1107" >
<font-face units-per-em="2048" ascent="1638" descent="-410" />
<missing-glyph horiz-adv-x="512" />
<glyph unicode="&#xfb01;" horiz-adv-x="1210" d="M104 893l25 160l190 34l19 113q31 192 160 300.5t331 109.5q86 0 229.5 -19.5t207.5 -42.5l-25 -145l-364 14q-47 3 -92 -6.5t-91 -34.5t-79.5 -77.5t-45.5 -127.5l-12 -84l717 -20l-170 -1067h-238l140 893h-484l-141 -893h-238l142 893h-181z" />
<glyph unicode="&#xfb02;" horiz-adv-x="1413" d="M174 893l27 158l190 36l17 84q19 124 61.5 211t105.5 135.5t137 69.5t169 21l577 -2l-188 -1190q-11 -67 -11.5 -108t11 -63.5t26 -31.5t43.5 -18q128 -39 134 -39l-25 -156h-168q-144 0 -214 91.5t-38 295.5l162 1028h-311q-103 0 -160 -55.5t-78 -196.5l-12 -76h291 l-31 -194h-291l-147 -893h-238l145 893h-184z" />
<glyph horiz-adv-x="0" />
<glyph unicode="&#xd;" horiz-adv-x="2048" />
<glyph unicode=" "  horiz-adv-x="512" />
<glyph unicode="&#x09;" horiz-adv-x="512" />
<glyph unicode="&#xa0;" horiz-adv-x="512" />
<glyph unicode="!" horiz-adv-x="550" d="M154 47l26 160q7 51 58 51h155q22 0 32 -14t7 -37l-26 -160q-6 -47 -54 -47h-155q-22 0 -34 13t-9 34zM229 408l152 1089h250l-197 -1089h-205z" />
<glyph unicode="&#x22;" horiz-adv-x="862" d="M342 1087l20 275l23 137h231l-22 -137l-64 -275h-188zM678 1087l20 275l23 137h231l-22 -137l-64 -275h-188z" />
<glyph unicode="#" horiz-adv-x="1449" d="M104 446l52 164h315l90 281h-317l53 164h321l146 444h164l-146 -444h283l145 444h164l-145 -444h356l-53 -164h-356l-91 -283h357l-49 -164h-365l-145 -444h-164l145 444l-284 2l-146 -446h-164l146 446h-312zM635 610l287 -2l90 283h-287z" />
<glyph unicode="$" horiz-adv-x="1169" d="M147 41l31 178q24 -1 111 -4.5t185.5 -6.5t182.5 -3q37 0 71.5 6.5t71.5 22t62.5 47t32.5 75.5l16 103q6 49 6.5 85t-30.5 56.5t-101 20.5h-215q-67 0 -120 15t-87.5 39.5t-59 59t-36.5 70t-17 75.5t-3.5 73.5t6.5 66.5l20 131q13 85 43.5 148.5t71 102.5t97.5 63.5 t114 34t129 11.5l29 177h155l-28 -181q164 -10 366 -51l-30 -186q-370 20 -467 20q-107 3 -167.5 -33.5t-78.5 -138.5l-14 -96q-13 -88 18.5 -126t136.5 -38h219q84 0 144 -26t90.5 -66t44.5 -95.5t13.5 -105.5t-9.5 -106l-18 -115q-14 -91 -50 -158t-82.5 -106t-109 -62 t-121 -29.5t-127.5 -4.5l-27 -168h-153l26 174q-204 14 -342 51z" />
<glyph unicode="%" horiz-adv-x="1972" d="M225 989l41 258q21 134 88 193t226 59h206q137 0 191.5 -67t34.5 -205l-41 -258q-24 -141 -91 -197.5t-221 -56.5h-206q-128 0 -188 72t-40 202zM406 999q-11 -62 7.5 -85t82.5 -23h172q71 0 95.5 22.5t35.5 85.5l32 215q11 67 -6.5 88t-85.5 21h-170q-69 0 -95.5 -22.5 t-35.5 -86.5zM436 0l1147 1499h182l-1140 -1499h-189zM1198 272l41 258q21 136 87.5 196t225.5 60h207q137 0 191.5 -68t34.5 -206l-39 -258q-22 -140 -91 -196t-225 -56h-207q-128 0 -186.5 70.5t-38.5 199.5zM1378 287q-9 -63 9 -86t83 -23h170q70 0 96.5 23.5t35.5 85.5 l32 215q11 67 -6.5 87.5t-85.5 20.5h-170q-69 0 -94.5 -22t-36.5 -86z" />
<glyph unicode="&#x26;" horiz-adv-x="1341" d="M130.5 473q41.5 153 203.5 277l188 143l-88 154q-63 115 -41.5 210.5t94 159.5t162.5 74q83 11 158 12.5t145.5 -5t128.5 -17t133 -27.5l-26 -168h-367q-66 0 -107.5 -10t-64 -34.5t-16 -67.5t42.5 -105l313 -547l277 242l71 -88l-143 -246l-96 -92l196 -338h-256 l-120 205l-152 -129q-57 -48 -136.5 -70t-161.5 -15.5t-160.5 52t-127.5 125.5q-91 152 -49.5 305zM375 293q51 -74 134 -85.5t159 52.5l143 125l-193 322l-147 -113q-199 -150 -96 -301z" />
<glyph unicode="'" horiz-adv-x="430" d="M291 1087l20 275l23 137h239l-22 -137l-64 -275h-196z" />
<glyph unicode="(" horiz-adv-x="739" d="M210 365.5q3 139.5 26 281.5q23 136 63.5 268.5t87 235.5t97.5 196.5t97.5 159.5t84 114.5t60.5 72.5l22 24h239q-16 -20 -44 -56t-103.5 -152.5t-139 -237t-130 -298.5t-97.5 -349q-32 -196 -27.5 -363.5t35.5 -303.5t66 -231.5t63 -147.5l29 -52h-229q-6 9 -16 25.5 t-38 74.5t-51.5 122t-48 165t-37 206.5t-9.5 245z" />
<glyph unicode=")" horiz-adv-x="743" d="M-33 -473q16 19 44 54t103 149.5t138.5 235t130 300.5t98.5 357q32 190 27 356t-36 302t-65.5 233t-62.5 150l-29 54h230q6 -9 16 -26.5t37.5 -77t51 -124.5t48 -167t37 -207t10 -241.5t-25.5 -274.5q-23 -140 -63.5 -275.5t-86 -239t-95 -196t-94 -157.5t-80.5 -112.5 t-58 -69.5l-21 -23h-254z" />
<glyph unicode="*" horiz-adv-x="882" d="M268 1159l17 103l293 53l-17 -166zM346 850l92 278l156 -38l-158 -271zM555 963l113 139l198 -184l-71 -84zM580 1473l104 36l104 -247l-163 -66zM684 1169l270 160l39 -88l-225 -199z" />
<glyph unicode="+" horiz-adv-x="1013" d="M178 625l35 209h319l50 321h209l-50 -321h324l-35 -209h-323l-52 -322h-209l52 322h-320z" />
<glyph unicode="," horiz-adv-x="538" d="M129 -180l14 86q22 0 36.5 5t21.5 15.5t9.5 17.5t4.5 19l6 37h-22q-23 0 -35 13t-8 38l24 154q9 55 60 55h147q48 0 41 -55l-37 -228q-10 -60 -40.5 -98.5t-67 -50t-72 -14.5t-59.5 2z" />
<glyph unicode="-" horiz-adv-x="724" d="M123 489l35 209h643l-35 -209h-643z" />
<glyph unicode="." horiz-adv-x="542" d="M154 47l26 160q7 51 58 51h151q52 0 43 -51l-26 -160q-8 -47 -58 -47h-151q-22 0 -34 13t-9 34z" />
<glyph unicode="/" horiz-adv-x="892" d="M10 -147l848 1724h248l-848 -1724h-248z" />
<glyph unicode="0" horiz-adv-x="1296" d="M176 352l125 787q29 184 130.5 272t279.5 88h336q77 0 137 -19.5t95.5 -53.5t58.5 -79t26 -95.5t-4 -104.5l-125 -795q-29 -181 -127 -266.5t-272 -85.5h-336q-82 0 -146.5 21t-110 62.5t-63.5 110t-4 158.5zM414 335q0 -22 2.5 -37.5t10.5 -28t14.5 -20t20.5 -13t22 -8 t26 -4t26 -1.5h27h248q84 0 130.5 38t59.5 120l117 737q12 84 -17.5 121t-115.5 37h-260q-167 0 -190 -158l-117 -735q-4 -26 -4 -48z" />
<glyph unicode="1" horiz-adv-x="751" d="M254 1169l25 158q87 0 191.5 63t145.5 109h234l-236 -1499h-237l198 1241q-44 -32 -134.5 -52t-186.5 -20z" />
<glyph unicode="2" horiz-adv-x="1206" d="M84 0l35 211q91 56 190.5 122t233 166.5t238.5 193.5t184.5 195.5t91.5 180.5q18 115 -33.5 170t-185.5 55h-564l29 176q321 50 625 50q71 0 130 -18t100.5 -50t72.5 -76t45.5 -96t20.5 -110t-3 -119q-6 -56 -31.5 -116.5t-57.5 -113t-84.5 -113.5t-95 -105t-108.5 -101 t-104.5 -88.5t-104 -79.5t-85.5 -62l-70 -49h602l-35 -223h-1036z" />
<glyph unicode="3" horiz-adv-x="1202" d="M70 43l28 168h553q217 0 240 158l14 86q4 27 4.5 49.5t-1.5 39t-10 30t-15.5 22t-22.5 15t-25.5 10.5t-31.5 6.5t-34 3.5t-38 2l-438 16l31 191l442 18q107 5 163.5 43.5t69.5 122.5l15 98q8 49 -3 82t-39.5 48.5t-60.5 21.5t-77 6h-580l25 166q89 29 204.5 43.5 t226.5 14.5t238 -1q157 -3 245 -106t62 -260l-18 -121q-20 -118 -71 -187t-124 -84q70 -30 96 -113t7 -202l-19 -100q-52 -344 -432 -344h-75.5h-79.5t-70.5 0.5t-76.5 2.5t-67 4.5t-71.5 7t-61 10t-65.5 14t-57 18.5z" />
<glyph unicode="4" horiz-adv-x="1257" d="M106 459l742 1040h274l-651 -921h438l60 372l96 156h170l-84 -528h162l-29 -185l-170 -45l-53 -344h-242l53 344h-714z" />
<glyph unicode="5" horiz-adv-x="1226" d="M137 39l31 184h594q48 0 84.5 16t56.5 42t30 51.5t13 52.5l27 164q28 170 -125 170h-234q-60 0 -105.5 -33.5t-55.5 -99.5h-226l189 913h895l-35 -223h-666l-82 -395q58 48 168 55q61 6 238 -2q150 -4 226 -110t52 -265l-32 -227q-13 -82 -43 -143t-68.5 -98t-91 -60 t-103.5 -31.5t-114 -9.5q-210 0 -323 8t-300 41z" />
<glyph unicode="6" horiz-adv-x="1255" d="M205.5 518.5q5.5 125.5 30.5 282.5t65 280.5t85.5 200.5t100.5 128t107 72.5t108 24.5q150 9 321.5 -2.5t311.5 -36.5l-28 -180h-541q-43 0 -81 -20t-66 -56t-50 -78t-38.5 -94t-27 -94.5t-18.5 -89.5q220 41 465 41q69 1 122 -13.5t85.5 -41t54 -60t29 -74.5t7.5 -79.5 t-7 -79.5l-37 -246q-14 -88 -49 -149t-89.5 -94t-117.5 -46.5t-145 -13.5h-295q-57 0 -102.5 15t-86 49t-66.5 95t-39.5 147.5t-8 212zM437 421.5q3 -63.5 18.5 -106t50 -69.5t86.5 -27h213q150 0 174 143l27 181q13 83 -12.5 111t-108.5 28h-428q-12 -75 -17.5 -136 t-2.5 -124.5z" />
<glyph unicode="7" horiz-adv-x="1128" d="M254 1276l35 223h956l49 -119l-733 -1380h-266l688 1276h-729z" />
<glyph unicode="8" horiz-adv-x="1282" d="M176 298q2 24 6 50l25 168q17 97 75.5 152.5t141.5 66.5q-64 26 -99 78.5t-38 108.5t4 114l20 133q16 102 53.5 171t96 105t124.5 50t156 14h308q164 0 241 -95.5t49 -272.5l-20 -119q-2 -22 -13 -52.5t-32 -67.5t-61 -66.5t-91 -38.5q42 -12 70.5 -47.5t38 -77.5t13 -87 t-4.5 -77l-29 -184q-10 -64 -29 -114.5t-41.5 -84t-55 -57.5t-61.5 -37t-70 -20.5t-71.5 -9t-74.5 -1.5h-305q-74 0 -131 14.5t-92 37t-58 55.5t-32.5 63.5t-12 67t-0.5 60.5zM422 352q-12 -76 21 -105.5t126 -29.5h232q68 0 115 32.5t57 102.5l28 168q10 69 -24 105.5 t-100 36.5h-250q-156 0 -178 -142zM526 1012q-12 -79 28.5 -111.5t104.5 -32.5h248q87 0 124 40t46 104l19 112q16 101 -13.5 135.5t-111.5 34.5h-232q-97 0 -139 -37.5t-57 -132.5z" />
<glyph unicode="9" horiz-adv-x="1253" d="M158 39l28 180h543q43 0 80.5 20t65.5 56t50.5 78t39 93.5t27 95t18.5 89.5q-214 -40 -467 -43q-69 0 -122 15t-85.5 42.5t-53 62t-28 76.5t-7.5 80.5t7 80.5l37 231q26 172 128 241.5t271 69.5h295q69 0 122.5 -22.5t97 -79.5t64.5 -147t19.5 -234t-31.5 -332 q-25 -157 -64.5 -279t-85 -197t-100.5 -124t-106 -69t-108 -23q-337 -19 -635 39zM489 965q-13 -84 12 -112t109 -28h428q10 62 14.5 113.5t5.5 107t-7.5 97t-25.5 75.5t-48 52t-74 18h-215q-151 0 -172 -143z" />
<glyph unicode=":" horiz-adv-x="544" d="M154 47l26 160q7 51 58 51h151q52 0 43 -51l-26 -160q-8 -47 -58 -47h-151q-22 0 -34 13t-9 34zM287 879l24 159q3 24 18.5 38t39.5 14h151q52 0 43 -52l-24 -159q-8 -48 -60 -48h-151q-22 0 -33 13t-8 35z" />
<glyph unicode=";" horiz-adv-x="544" d="M129 -180l14 86q22 0 36.5 5t21.5 15.5t9.5 17.5t4.5 19l6 37h-22q-22 0 -34 14.5t-9 36.5l24 154q3 23 20 39t40 16h147q24 0 34 -15t7 -40l-37 -228q-10 -60 -40.5 -98.5t-67 -50t-72 -14.5t-59.5 2zM289 879l24 159q3 24 18.5 38t39.5 14h151q52 0 43 -52l-24 -159 q-8 -48 -58 -48h-151q-22 0 -34 13t-9 35z" />
<glyph unicode="&#x3c;" horiz-adv-x="937" d="M182 608l37 230l815 309l-35 -229l-550 -203l485 -213l-37 -223z" />
<glyph unicode="=" horiz-adv-x="956" d="M102 397l35 209h875l-35 -209h-875zM170 834l35 208h874l-35 -208h-874z" />
<glyph unicode="&#x3e;" horiz-adv-x="940" d="M131 279l37 231l557 221l-494 199l37 217l717 -309l-35 -230z" />
<glyph unicode="?" d="M238 1294l28 172q128 21 196 30t174 15.5t216 1.5q104 0 182.5 -34t121.5 -90.5t59.5 -127t3.5 -147.5l-27 -186q-17 -110 -61.5 -183.5t-112.5 -109t-159.5 -47t-201.5 3.5q0 -1 -7.5 -48t-14.5 -94t-6 -51h-205l59 375q129 -3 254 0q84 3 144.5 46t74.5 132l23 146 q17 107 -32 151.5t-183 44.5h-526zM346 47l25 160q7 51 57 51h152q52 0 43 -51l-25 -160q-8 -47 -57 -47h-152q-22 0 -34 13t-9 34z" />
<glyph unicode="@" horiz-adv-x="1814" d="M113.5 -112.5q-15.5 78.5 1.5 165.5l159 1014q31 195 149.5 294t336.5 99h753q193 0 269 -116.5t45 -319.5l-103 -688q-7 -50 -18 -90t-38 -87t-65.5 -78.5t-104 -53t-150.5 -21.5h-160l-49 117q-106 -131 -289 -131q-400 0 -311 583q17 110 46 197t66.5 145t79 98.5 t89 61.5t90 30t89.5 9q327 0 465 -133l-112 -774q42 0 66.5 5.5t48 23.5t38 55.5t23.5 99.5l96 645q7 44 7 78t-4.5 57t-16.5 39t-24 24.5t-32.5 13.5t-37.5 6t-43 1h-754q-56 0 -99 -15.5t-68 -37.5t-42 -54t-24 -57t-11 -55l-158 -997q-9 -45 -4.5 -85t20.5 -70t56.5 -48 t104.5 -18h790l-24 -146q-281 -55 -598 -55h-195q-106 0 -183 35.5t-116 95t-54.5 138zM735 535q-23 -183 5.5 -262.5t138.5 -79.5q87 2 151.5 30.5t130.5 100.5l88 567q-96 24 -254 24q-36 0 -66 -9t-61.5 -34.5t-55.5 -66.5t-44.5 -109.5t-32.5 -160.5z" />
<glyph unicode="A" horiz-adv-x="1386" d="M78 0l760 1499h262l264 -1499h-242l-67 362h-531l-184 -362h-262zM627 580h399l-100 606z" />
<glyph unicode="B" horiz-adv-x="1224" d="M139 0l238 1499h598q88 0 155.5 -24t106.5 -64t63 -93.5t26 -112.5q1 -17 1 -35q0 -42 -4 -85q-17 -129 -85 -208.5t-167 -98.5q75 -12 129 -114q39 -75 40 -179q0 -37 -5 -77q-29 -216 -145 -312t-351 -96h-600zM412 217h356q192 0 229 225q5 32 5 61q0 63 -26 111 q-38 68 -136 68h-355zM520 891h346q92 0 148 49.5t71 146.5q5 32 5 59q0 64 -30 94q-42 42 -128 42h-350z" />
<glyph unicode="C" horiz-adv-x="1173" d="M194 540q2 112 23 236q31 190 73.5 319t113.5 228t178.5 146t257.5 47q250 0 506 -70l-31 -186q-234 32 -439 32h-24q-92 -1 -134 -16q-128 -43 -200 -253q-38 -111 -63 -273q-22 -125 -22 -221q0 -105 26 -175q49 -134 213 -143q30 -1 67 -1q154 0 418 17l-29 -186 q-173 -53 -480 -53h-44q-111 1 -193 44.5t-128 117.5t-68 176q-21 96 -21 199v15z" />
<glyph unicode="D" horiz-adv-x="1351" d="M139 0l238 1497q0 2 590 2q92 0 164.5 -26.5t119.5 -71t79 -107t46.5 -130.5t18.5 -147q2 -33 2 -65q1 -44 -3 -86q-6 -72 -18 -145q-60 -369 -210.5 -545t-424.5 -176h-602zM412 219h338q156 0 253.5 143.5t135.5 382.5q22 128 22 223q-1 52 -7 94q-18 120 -77 170 t-166 50h-331z" />
<glyph unicode="E" horiz-adv-x="1150" d="M176 287l148 925q45 287 327 287h21q553 -21 635 -33l-31 -194h-598q-36 0 -61 -9.5t-37.5 -28t-17.5 -35.5t-9 -42l-47 -295l612 -20l-31 -195l-618 -18l-47 -301q-2 -16 -2 -29.5t2.5 -23.5t5 -18t9.5 -13.5t11.5 -9.5t15 -6.5t15.5 -4t17.5 -1.5t17 -0.5t18.5 -0.5 h580l-33 -192q-34 -4 -190.5 -13t-296.5 -16l-139 -6h-15q-50 0 -94 12q-52 14 -96 45t-64 92q-13 37 -13 83q0 29 5 61z" />
<glyph unicode="F" horiz-adv-x="1155" d="M135 0l189 1196q14 86 47 147.5t81 95.5t102 48q48 12 104 12h16q553 -21 637 -33l-31 -194h-600q-36 0 -60.5 -9.5t-37 -28t-18 -35.5t-9.5 -42l-45 -297l612 -20l-30 -195l-621 -20l-98 -625h-238z" />
<glyph unicode="G" horiz-adv-x="1253" d="M198 554q4 110 25 228q27 153 57.5 261.5t79 202t113 149.5t156.5 87t213 31h20q226 0 500 -65l-29 -184q-70 10 -221 21.5t-258 12.5q-37 0 -63.5 -3t-63 -15t-63.5 -33.5t-58.5 -62t-55 -97.5t-46.5 -142.5t-39 -194.5q-20 -138 -20 -243q0 -23 1 -45q5 -120 60 -185 q54 -64 159 -64h3q65 0 144 26.5t125 52.5l46 27l53 310h-260l25 153q142 49 366 49q89 0 138 -4l-131 -827h-175l-47 111q-55 -53 -146.5 -87.5t-205.5 -35.5h-10q-108 0 -188 44q-82 46 -126 123.5t-64 183.5q-15 86 -15 175q0 20 1 40z" />
<glyph unicode="H" horiz-adv-x="1323" d="M145 0l238 1499h238l-107 -663h588l106 663h238l-238 -1499h-237l98 614h-588l-98 -614h-238z" />
<glyph unicode="I" horiz-adv-x="499" d="M152 0l237 1499h238l-238 -1499h-237z" />
<glyph unicode="J" horiz-adv-x="731" d="M68 45l34 182q36 -5 55.5 -7.5t52 -4.5t51.5 -0.5t45.5 6t43 14t36 25t31.5 37.5t23 52.5t17 68.5l172 1081h237l-184 -1161q-6 -45 -14.5 -80t-25.5 -80t-46.5 -81.5t-69.5 -59.5q-84 -49 -219 -49h-19q-147 4 -220 57z" />
<glyph unicode="K" horiz-adv-x="1232" d="M139 0l238 1499h229l-102 -643h137l506 643h291l-590 -768l352 -731h-274l-297 639h-158l-100 -639h-232z" />
<glyph unicode="L" horiz-adv-x="1087" d="M180 279l197 1220h235l-186 -1169q-2 -16 -2 -29t2.5 -23t5.5 -18t9.5 -14t11.5 -10t14.5 -6.5t15.5 -4t17.5 -2t17.5 -0.5h18h3h555l-35 -223h-623q-60 0 -110 15t-88 47t-54 88q-9 32 -9 69q0 28 5 60z" />
<glyph unicode="M" horiz-adv-x="1675" d="M117 0l358 1499h320l135 -1106l473 1106h332l-107 -1499h-235l84 1083l-471 -1083h-263l-133 1081l-254 -1081h-239z" />
<glyph unicode="N" horiz-adv-x="1361" d="M139 0l238 1499h235l480 -1063l168 1063h237l-237 -1499h-234l-481 1055l-166 -1055h-240z" />
<glyph unicode="O" horiz-adv-x="1363" d="M196 501q2 114 25 257q23 148 56 262.5t69 193.5t87.5 134t99 86.5t117.5 48.5t128.5 21.5t145.5 4.5q82 0 144.5 -7.5t124.5 -29t104 -57.5t76 -96t48 -142q12 -72 12 -168v-29q-2 -114 -24 -259q-17 -109 -39.5 -199t-48 -160t-59.5 -124.5t-68 -93t-79 -66.5 t-87 -44.5t-97.5 -26t-105.5 -12.5t-116 -3q-81 0 -141.5 6.5t-124 26t-106 54t-78 92t-50.5 137.5q-13 70 -13 167v26zM435 542q-2 -33 -2 -61q0 -44 5 -79q9 -59 28.5 -95t58.5 -57t86.5 -28t119.5 -7q80 0 136 12t106.5 45t85 92t63 151t49.5 224q24 153 24 256.5 t-16 161t-62 86.5t-90.5 36t-125.5 7q-42 0 -69 -1t-61 -5.5t-56 -12.5t-49 -22t-45.5 -35t-39.5 -51t-36 -70t-31 -91t-29.5 -115.5t-25.5 -143.5q-18 -115 -24 -197z" />
<glyph unicode="P" horiz-adv-x="1220" d="M131 0l238 1499h626q47 0 89.5 -9.5t85.5 -31t74 -57t54.5 -88t27.5 -123.5q1 -19 1 -39q0 -56 -8 -125q-12 -85 -33 -154t-46 -115t-56 -81.5t-63.5 -53.5t-68 -31t-69.5 -15q-35 -2 -69 -4q-14 -1 -26 -1q-20 0 -38 2q-63 3 -219.5 19t-163.5 20l-98 -612h-238z M494 791h374q39 0 69 10t59 36t50 78t33 129q8 41 8 73q-1 18 -3 33q-6 43 -16 69t-32.5 40t-42.5 18.5t-47 4.5h-375z" />
<glyph unicode="Q" horiz-adv-x="1370" d="M200 504q2 114 25 258q27 172 64.5 298t90 207t105 130.5t131 73.5t144.5 31t168 7q63 0 114 -4.5t102.5 -16.5t91 -31.5t76 -51.5t60.5 -75t41.5 -102t22.5 -134q2 -35 2 -75q0 -44 -2 -94q-6 -95 -23 -208q-16 -109 -38.5 -198.5t-48 -158.5t-59.5 -123t-68 -92.5 t-79 -66t-87 -44t-97.5 -26t-105 -13t-115.5 -3.5q-81 0 -142.5 6.5t-124.5 26.5t-106 54.5t-78.5 92.5t-50.5 138q-13 71 -13 168v26zM439 542q-2 -31 -2 -59q0 -45 5 -81q10 -59 29.5 -95t59 -57t87 -28t119.5 -7q80 0 135.5 12t106 45t85.5 92t63 150.5t49 224.5 q14 86 20 155.5t6 123t-9 94.5t-20 69.5t-33 48t-43 30.5t-55 17t-62.5 7.5t-72.5 1.5q-42 0 -69 -1t-61.5 -5.5t-56.5 -12.5t-49 -22t-45.5 -35t-39.5 -51t-36 -70t-31.5 -91.5t-29.5 -115.5t-26 -143q-18 -115 -24 -197zM612 -68h142q55 -78 171 -78q69 0 158 27l-32 -207 q-59 -15 -121 -16h-4q-61 0 -118 16q-58 17 -103.5 48.5t-71.5 85.5q-22 45 -22 102q0 11 1 22z" />
<glyph unicode="R" horiz-adv-x="1241" d="M131 0l238 1499h635q81 0 143 -26t107 -81q45 -56 62 -150q9 -49 9 -106q0 -54 -8 -116q-9 -78 -28.5 -142.5t-41 -106t-52 -73.5t-53.5 -48.5t-54.5 -28.5t-46.5 -15t-37 -6l213 -600h-267l-184 584l-301 22l-96 -606h-238zM498 795h370q185 0 209 243q5 46 5 82 q0 43 -7 73q-12 54 -40.5 71.5t-82.5 17.5h-379z" />
<glyph unicode="S" horiz-adv-x="1179" d="M152 41l28 186q172 -20 506 -20q216 0 238 149l16 103q4 35 4 63v22q-2 36 -33 56.5t-94 20.5h-235q-72 0 -128 14.5t-92 38t-60.5 57t-35.5 67.5q-12 32 -16 72q-3 29 -3 53q1 9 1 17q2 30 6 64l22 149q14 91 46 157t73.5 105t100.5 61q58 24 115 30q49 6 111 5h19 q134 0 290.5 -16t248.5 -39l-29 -186q-37 1 -160.5 6t-218.5 8.5t-116 3.5q-19 1 -36 1q-34 0 -58 -3q-36 -4 -69.5 -21t-52.5 -53t-28 -94l-14 -96q-4 -27 -5 -49t0.5 -38t8.5 -28.5t12.5 -20.5t19.5 -13.5t23 -8.5t28 -4.5t30.5 -1.5h35.5h240q66 0 117.5 -16.5t83.5 -45 t54 -66.5t29 -80q7 -44 9 -88q1 -10 1 -19q0 -34 -7 -66l-17 -137q-8 -70 -29.5 -125.5t-50 -92t-69.5 -63.5t-78.5 -41t-86.5 -22t-85 -10t-82 -2q-155 0 -298.5 15.5t-229.5 41.5z" />
<glyph unicode="T" horiz-adv-x="1198" d="M262 1276l37 223h1083l-36 -223h-428l-203 -1276h-238l203 1276h-418z" />
<glyph unicode="U" horiz-adv-x="1339" d="M220 449q0 92 18 204l135 846h239l-137 -868q-16 -113 -16 -191v-9q1 -80 32 -128.5t84.5 -69t141.5 -20.5q175 0 260 95t121 323l137 868h240l-134 -889q-52 -324 -202 -472t-451 -148q-70 0 -128.5 8.5t-113 30t-94.5 55t-71 85.5t-46 120t-15 160z" />
<glyph unicode="V" horiz-adv-x="1392" d="M293 1499h250l182 -1169l573 1169h267l-754 -1499h-266z" />
<glyph unicode="W" horiz-adv-x="2062" d="M293 1499h246l186 -1161l551 1161h258l-219 -450l110 -717l557 1167h254l-725 -1499h-260l-106 670l-328 -670h-272z" />
<glyph unicode="X" horiz-adv-x="1286" d="M70 0l559 760l-326 739h256l232 -549l403 549h272l-573 -780l315 -719h-258l-219 526l-387 -526h-274z" />
<glyph unicode="Y" horiz-adv-x="1325" d="M293 1499h256l205 -739l469 739h274l-661 -1010l-78 -489h-238l78 489z" />
<glyph unicode="Z" horiz-adv-x="1144" d="M61 0l35 223l895 1053h-729l37 223h1024l-37 -223l-880 -1053h714l-35 -223h-1024z" />
<glyph unicode="[" horiz-adv-x="673" d="M129 -165q1 50 10 102l228 1413q14 84 37.5 141.5t66.5 102.5t111.5 66t167.5 21h163l-32 -208h-129q-64 0 -101 -34.5t-51 -127.5l-223 -1389q-18 -114 2.5 -150t93.5 -36h131l-33 -209h-174q-79 0 -134.5 28.5t-83 71t-39.5 100.5t-11 108z" />
<glyph unicode="\" horiz-adv-x="876" d="M283 1577h235l303 -1724h-235z" />
<glyph unicode="]" horiz-adv-x="669" d="M-33 -473l33 209h129q63 0 100.5 34.5t53.5 127.5l219 1388q7 58 8 95t-13 57t-35.5 27.5t-58.5 7.5h-129l35 208h166q76 0 131.5 -25t83 -65.5t43.5 -92.5t13.5 -106.5t-7.5 -107.5l-217 -1425q-10 -61 -23.5 -106t-40.5 -90t-66.5 -73t-101.5 -45.5t-145 -17.5h-178z " />
<glyph unicode="^" horiz-adv-x="792" d="M258 1087l272 275h189l160 -275h-172l-93 144l-149 -144h-207z" />
<glyph unicode="_" horiz-adv-x="1378" d="M45 -2l35 209h1298l-35 -209h-1298z" />
<glyph unicode="`" horiz-adv-x="512" d="M250 1368h221l178 -281h-170z" />
<glyph unicode="a" d="M144 352q-1 15 -1 31q0 92 23 211q17 93 43.5 168.5t56.5 127t69.5 90.5t75 61.5t81 37t81 20.5t80.5 9q29 2 60 2q104 0 226 -26q158 -34 230 -103l-143 -979h-180l-37 115q-46 -47 -147.5 -88t-200.5 -41q-69 0 -123 18.5t-99.5 61t-68 112.5t-26.5 172zM396 282 q30 -84 132 -85q92 0 157.5 24t143.5 76l89 586q-65 20 -140 27q-31 3 -58 3q-39 0 -69 -6q-40 -7 -64.5 -15t-57 -31t-54 -59.5t-43 -102.5t-35.5 -158q-15 -88 -15 -153q-1 -64 14 -106z" />
<glyph unicode="b" horiz-adv-x="1136" d="M104 0l254 1608h236l-92 -580q85 35 186 55.5t174 20.5q65 0 116 -18t84 -48.5t55 -75.5t31 -95q10 -49 11 -111v-21q0 -51 -4 -99q-5 -58 -16 -126q-17 -98 -37 -171.5t-55 -144t-81 -114.5t-115 -70q-60 -22 -133 -23q-12 0 -24 1q-92 4 -190.5 44.5t-145.5 82.5 l-65 -115h-189zM385 276q129 -77 295 -77q91 0 142 80.5t79 265.5q20 111 20 187q0 52 -9 86q-22 88 -121 87q-172 0 -314 -45z" />
<glyph unicode="c" horiz-adv-x="1009" d="M154 300q-3 31 -3 65q0 88 17 200q17 102 40.5 183t49 137t58.5 96.5t64.5 64t73 37t77.5 17.5t83 4q90 0 234 -17.5t246 -46.5l-25 -153q-225 16 -407 16q-38 0 -60 -2.5t-49.5 -14t-45 -34.5t-37.5 -63t-35.5 -101.5t-31.5 -148.5q-15 -86 -17 -147q0 -12 -1 -22 q-1 -46 7 -78q8 -40 30.5 -63t52 -32t72.5 -9q84 0 191.5 5t173.5 11l65 5l-25 -156q-120 -39 -230 -53q-96 -12 -230 -12h-41q-80 1 -141 32.5t-104 100.5t-52 179z" />
<glyph unicode="d" horiz-adv-x="1126" d="M168 567q16 97 36 170.5t54.5 145.5t80.5 118t116 74.5t159 28.5q74 0 172 -20.5t172 -55.5l93 580h235l-256 -1608h-188l-31 115q-66 -46 -167 -86.5t-191 -40.5q-79 0 -138.5 32.5t-94.5 87.5q-34 56 -51 130q-17 72 -17 152q0 84 16 177zM408 545q-15 -89 -16 -155 q0 -191 128 -191q168 0 318 77l92 584q-125 45 -299 45q-40 0 -70.5 -14.5t-59.5 -53t-52 -111t-41 -181.5z" />
<glyph unicode="e" horiz-adv-x="1077" d="M170 598q15 77 29.5 133.5t36.5 113t50 94.5t68 72t91.5 54t119 31.5t152.5 11.5q97 0 171.5 -15t134 -49t87.5 -97q22 -49 21 -114q0 -18 -1 -38q-8 -98 -50 -171.5t-101.5 -114t-133.5 -64.5q-73 -23 -145 -29q-46 -4 -91 -4q-24 0 -47 1q-66 3 -110 11t-63 16 q-10 -61 -10 -106q-1 -62 19 -94q34 -54 145 -56q41 -3 86 -3q167 0 381 36l-27 -172q-208 -61 -460 -61q-43 0 -87 2q-194 6 -258 158q-34 81 -34 205q0 109 26 249zM412 600q9 -1 25 -2.5t62 -3.5q20 -1 40 -1q25 -1 49 1q43 2 96.5 13t93.5 29t71.5 52.5t39.5 81.5 q3 20 3 36q0 53 -34 74q-42 25 -143 25h-15q-48 0 -86 -8.5t-64.5 -21t-47.5 -35t-33.5 -43.5t-23 -53t-16 -56.5t-12.5 -61.5q-3 -17 -5 -26z" />
<glyph unicode="f" horiz-adv-x="827" d="M174 893l27 158l190 36l21 119q36 224 118.5 313t260.5 89q64 0 137.5 -15.5t111.5 -33.5l-22 -144h-203q-39 0 -64.5 -8.5t-42.5 -22.5t-29 -48.5t-19.5 -70t-18.5 -102.5l-12 -76h291l-31 -194h-291l-147 -893h-238l145 893h-184z" />
<glyph unicode="g" horiz-adv-x="1136" d="M53 -508l25 158h485q78 0 134.5 49.5t70.5 144.5l35 226q-160 -78 -314 -78q-95 0 -162 29.5t-105 80.5t-54 128q-15 69 -15 145v19q2 86 19 196q42 262 162.5 388t306.5 126q146 0 304 -18t253 -37l-194 -1225q-32 -202 -150 -301q-100 -83 -245 -83q-28 0 -58 3z M391 339q10 -138 128 -148q9 -1 20 -1q84 0 140 9.5t150 38.5l109 671h-276q-52 0 -95 -27t-68 -63.5t-45 -89t-28 -88.5t-14 -76q-22 -141 -22 -207q0 -10 1 -19z" />
<glyph unicode="h" horiz-adv-x="1120" d="M104 0l254 1604h238l-102 -637q125 74 178 96q103 43 211 43q88 0 149 -30t89 -80q27 -51 37 -118q4 -26 4 -53q0 -43 -9 -88l-117 -737h-237l116 739q4 26 4 47q0 119 -120 119q-93 0 -160 -22.5t-170 -79.5l-127 -803h-238z" />
<glyph unicode="i" horiz-adv-x="438" d="M100 0l172 1087h238l-172 -1087h-238zM283 1253l24 156q7 51 58 51h174q37 0 37 -38q0 -6 -1 -13l-22 -156q-6 -47 -55 -47h-174q-22 0 -33 12q-9 10 -9 26q0 4 1 9z" />
<glyph unicode="j" horiz-adv-x="477" d="M33 -553l260 1640h237l-174 -1095q-25 -164 -58.5 -294.5t-94.5 -250.5h-170zM303 1253l25 156q7 51 57 51h174q22 0 32 -14q8 -11 8 -27q0 -5 -1 -10l-25 -156q-6 -47 -55 -47h-174q-22 0 -33 12q-9 10 -9 26q0 4 1 9z" />
<glyph unicode="k" horiz-adv-x="1054" d="M104 0l254 1602h238l-147 -926q84 28 178.5 92t171.5 151.5t98 167.5h256q-26 -89 -78 -173t-114.5 -146.5t-122.5 -107.5t-113 -70l362 -590h-270l-315 518l-78 -2l-82 -516h-238z" />
<glyph unicode="l" horiz-adv-x="616" d="M162 387l192 1217h238l-186 -1188q-11 -67 -12 -108v-6q0 -38 11 -58q12 -22 26.5 -31t43.5 -18q125 -39 131 -39l-24 -156h-168q-262 0 -262 271q0 53 10 116z" />
<glyph unicode="m" horiz-adv-x="1808" d="M104 0l172 1087h185l35 -122q6 4 42.5 26t44 26.5t39 22t45 22t43 15.5t51 14.5t51 7t60.5 3.5q96 0 165 -43.5t93 -114.5q104 72 210 115t231 43q155 0 225 -102q51 -74 50 -182q0 -41 -7 -87l-115 -731h-237l117 733q3 20 3 38q1 51 -25 85q-34 44 -97 45 q-101 0 -175 -21.5t-155 -74.5q0 -3 -5 -38t-5 -38l-117 -729h-237l116 733q3 20 3 38q0 51 -26 85q-34 44 -96 45q-93 0 -155.5 -21.5t-165.5 -80.5l-125 -799h-238z" />
<glyph unicode="n" horiz-adv-x="1120" d="M104 0l172 1087h185l35 -120q64 39 89.5 53.5t81 40t106.5 35.5t110 10q88 0 149 -30t89 -80q27 -51 37 -118q4 -26 4 -53q0 -43 -9 -88l-117 -737h-237l116 739q4 25 4 45q-1 51 -23 80q-32 41 -97 41q-93 0 -160 -22.5t-170 -79.5l-127 -803h-238z" />
<glyph unicode="o" horiz-adv-x="1146" d="M168 547q18 113 41.5 195.5t58 145t77 102.5t103 65t130.5 35t165 10q264 0 359 -143q62 -94 62 -256q0 -86 -17 -191q-25 -155 -62.5 -252t-104 -158.5t-159 -85.5t-235.5 -24q-270 0 -367 132q-66 89 -66 253q0 77 15 172zM390 398q-1 -12 0 -24q0 -39 6 -68 q8 -37 23.5 -59.5t45 -34.5t60.5 -15.5t79 -3.5q43 0 70.5 2t58 9.5t50 22t40 38.5t34.5 60t27.5 86t24.5 117q16 95 18 158v22q0 49 -7 84q-9 43 -36.5 66t-66.5 32t-100 9q-79 0 -124 -11.5t-83 -51t-61 -111.5t-43 -197q-14 -76 -16 -130z" />
<glyph unicode="p" horiz-adv-x="1140" d="M16 -553l265 1606q231 43 550 43q90 0 155.5 -32.5t101 -88.5t54.5 -131q17 -66 17 -140q0 -10 -1 -20q-2 -85 -13 -176q-17 -124 -51 -217.5t-89 -164.5t-136.5 -107.5t-188.5 -36.5q-79 0 -171.5 19.5t-156.5 57.5l-98 -612h-238zM381 227q105 -49 213 -49q38 0 76 6 q44 5 75 19.5t64 51t57.5 109.5t42.5 183q13 81 13 144q0 210 -148 210h-282z" />
<glyph unicode="q" horiz-adv-x="1132" d="M153 331q-1 19 -1 38q0 92 20 200q42 273 160.5 403t316.5 130q145 0 297.5 -17.5t249.5 -37.5l-252 -1600h-237l96 612q-159 -79 -320 -79q-114 0 -188 43.5t-105.5 121.5t-36.5 186zM388 356v-24q0 -35 6 -54q8 -25 23.5 -52t46 -37.5t75.5 -10.5q85 0 141 9t149 38 l107 682h-283q-50 0 -90.5 -25.5t-65.5 -62t-44 -88t-27.5 -92t-15.5 -86.5q-11 -73 -15 -109t-7 -88z" />
<glyph unicode="r" horiz-adv-x="862" d="M104 0l172 1087h193l23 -137q52 35 84.5 55t83 45.5t100.5 37.5t102 12q92 0 129 -15l-37 -231q-54 8 -153 8q-102 0 -178 -26.5t-164 -94.5l-117 -741h-238z" />
<glyph unicode="s" horiz-adv-x="1040" d="M121 35l24 155h531q87 0 100 84l12 76q3 15 3 27q-1 24 -11 38q-16 21 -65 21h-266q-151 0 -221 73q-53 54 -52 152q0 33 6 72l17 101q23 136 98.5 203t228.5 67q160 0 329.5 -11.5t227.5 -35.5l-24 -158h-508q-63 0 -87 -25.5t-30 -64.5l-10 -74q-3 -18 -3 -32t2 -23.5 t8.5 -15.5t11.5 -9.5t15.5 -5t16 -1.5t18 0.5t17.5 0.5h272q140 -1 204 -83q48 -63 49 -149q0 -27 -5 -57l-18 -127q-10 -64 -34.5 -111t-54 -73t-70.5 -41.5t-75 -19.5t-76 -4q-157 0 -345.5 13.5t-235.5 37.5z" />
<glyph unicode="t" horiz-adv-x="770" d="M168 895l22 143l195 52l92 303h193l-47 -303h270l-31 -195h-270l-76 -479q-9 -54 -10 -91t2.5 -59.5t16.5 -36.5t25.5 -20.5t35.5 -13.5q127 -39 133 -39l-25 -156h-176q-145 0 -210 94q-44 64 -44 176q0 53 10 117l80 508h-186z" />
<glyph unicode="u" horiz-adv-x="1118" d="M138 206q-4 26 -4 54q0 44 9 92l115 735h238l-117 -739q-4 -28 -4 -51q0 -52 22 -77q32 -36 101 -36q94 0 161 22.5t168 80.5l125 800h238l-172 -1087h-187l-30 119q-79 -48 -121.5 -71t-116 -44.5t-151.5 -21.5q-87 0 -147.5 28.5t-88.5 78t-38 117.5z" />
<glyph unicode="v" horiz-adv-x="1079" d="M178 1087h252l152 -817l303 613q47 96 61 207h213q8 -37 8 -76q0 -94 -49 -197l-422 -817h-293z" />
<glyph unicode="w" horiz-adv-x="1673" d="M178 1087h248l147 -808l306 600q47 96 61 206h205q10 -41 10 -82q0 -72 -31 -147l-43 -96l93 -475l313 598q47 96 61 207h207q11 -43 11 -85q0 -94 -52 -188l-446 -817h-256l-94 475l-238 -475h-277z" />
<glyph unicode="x" horiz-adv-x="1136" d="M41 0l471 557l-299 530h281l184 -358l297 358h293l-471 -569l288 -518h-274l-182 348l-287 -348h-301z" />
<glyph unicode="y" horiz-adv-x="1142" d="M180 1087h246l90 -792q11 -80 119 -80l317 670q38 81 54 207h213q11 -42 11 -86q0 -93 -48 -193l-387 -811q-57 -121 -120.5 -216.5t-122 -157.5t-123 -105t-120 -65t-116.5 -33v167q83 48 153 120.5t111 136.5t86 151q-47 0 -88 13t-78 41.5t-62 80.5t-34 123z" />
<glyph unicode="z" horiz-adv-x="956" d="M82 2l31 207l624 670h-542l28 208h854l-28 -208l-609 -668h498l-33 -209h-823z" />
<glyph unicode="{" horiz-adv-x="655" d="M127 559l31 189q87 3 119 16q50 23 59 78l76 481q29 182 147 270t334 88l-33 -208q-95 2 -148.5 -49t-74.5 -181l-66 -412q-25 -160 -219 -188q83 -14 126.5 -64.5t31.5 -121.5l-76 -473q-23 -143 14.5 -201t137.5 -53l-33 -203q-77 0 -139 16t-103.5 45t-70.5 68.5 t-40.5 87.5t-14.5 101.5t8 109.5l77 483q10 58 -34 92t-109 29z" />
<glyph unicode="|" horiz-adv-x="503" d="M125 -147l272 1724h209l-272 -1724h-209z" />
<glyph unicode="}" horiz-adv-x="649" d="M-33 -473l33 203q95 -2 148 48.5t73 170.5l74 457q12 75 69 121.5t146 62.5q-84 11 -126.5 60t-29.5 130l68 426q25 154 -11.5 213t-136.5 54l35 208q75 0 135 -17t100 -47t69 -71.5t40 -90t14 -102.5t-8 -110l-65 -448q-8 -58 36.5 -90.5t108.5 -30.5l-30 -187 q-35 0 -58.5 -2.5t-52.5 -11t-46 -29t-22 -53.5l-81 -500q-32 -190 -145.5 -277t-336.5 -87z" />
<glyph unicode="~" horiz-adv-x="870" d="M274 1190q5 5 26.5 23t28 23.5t26 21t29 21.5t27 17t30.5 15.5t30.5 11t34.5 8.5t35 2q46 0 105 -35.5t99 -35.5q38 0 79 14.5t63 27.5t63 39l31 -108l-19 -17l-21 -21t-21.5 -19t-25 -20.5t-24 -17.5t-27.5 -17.5t-27 -13.5t-30 -12.5t-29 -6.5t-32 -3q-47 0 -114 36 t-105 36q-28 0 -55.5 -7t-45 -15t-49.5 -24.5t-51 -25.5z" />
<glyph unicode="&#xa1;" horiz-adv-x="561" d="M63 -551l201 1090h205l-143 -1090h-263zM274 743l25 156q6 43 57 47h146q19 -2 31.5 -17t9.5 -36l-23 -150q-11 -46 -51 -51h-158q-20 0 -30 14t-7 37z" />
<glyph unicode="&#xa2;" horiz-adv-x="995" d="M137.5 299q-8.5 109 14.5 266q18 105 41.5 186.5t49 138t59.5 96.5t66.5 63t76 35t82.5 15t91 1l33 198h158l-35 -206q172 -18 303 -56l-24 -151q-226 14 -408 14q-33 0 -51.5 -1.5t-43.5 -8.5t-40.5 -21.5t-34 -40t-32.5 -64t-28.5 -94.5t-27.5 -130q-15 -86 -17 -147 t6.5 -100.5t30 -62.5t51 -32t72.5 -9q84 0 191.5 5t173.5 11l66 5l-25 -156q-149 -56 -340 -63l-27 -187h-157l28 185q-83 2 -145 33.5t-105.5 100t-52 177.5z" />
<glyph unicode="&#xa3;" horiz-adv-x="1202" d="M86 0l31 184l145 39l68 432h-140l21 127l147 41l31 205q12 75 30.5 136.5t38.5 107.5t50 81.5t57 59t67 40.5t72.5 25.5t82.5 13.5t86 6t94 1q52 0 147.5 -8.5t164.5 -16.5l69 -8l-29 -188h-381q-69 0 -112.5 -5.5t-79.5 -20.5t-57 -45t-36 -73.5t-26 -111.5l-31 -199 l483 -32l-20 -136h-492l-67 -432h651l-37 -223h-1028z" />
<glyph unicode="&#xa4;" horiz-adv-x="929" d="M150 367l110 94q-44 87 -31 180q17 105 70 172l-80 94l107 90l77 -90q92 60 193 60q120 0 192 -60l113 97l84 -101l-117 -100q38 -78 23 -172q-16 -115 -84 -195l88 -100l-109 -94l-88 104q-75 -47 -184 -47q-101 0 -174 57l-107 -94zM379 639q-12 -77 32 -133t119 -57 q88 0 143.5 52t71.5 132q15 74 -30 130.5t-127 55.5q-83 0 -139.5 -51.5t-69.5 -128.5z" />
<glyph unicode="&#xa5;" horiz-adv-x="1273" d="M233 295l25 149h301l12 84h-301l27 152h248l-275 819h256l203 -676l463 676h283l-594 -819h290l-26 -152h-336l-12 -84h336l-25 -149h-332l-41 -295h-237l41 295h-306z" />
<glyph unicode="&#xa6;" horiz-adv-x="505" d="M125 -147l106 671h209l-106 -671h-209zM287 879l110 698h209l-110 -698h-209z" />
<glyph unicode="&#xa7;" horiz-adv-x="1114" d="M174 23l27 170h508q52 0 80 14t36 59l15 107q9 47 -10 62.5t-74 15.5h-287q-137 0 -210.5 67t-51.5 199l14 90q13 82 43 132.5t105 72.5q-107 64 -82 211l16 114q40 269 326 269q106 0 299.5 -13t261.5 -26l-25 -170h-518q-47 0 -73 -19t-35 -65l-15 -96q-6 -41 17 -61.5 t65 -20.5h293q144 0 211.5 -71.5t48.5 -195.5l-16 -90q-21 -172 -139 -200q101 -28 75 -203l-18 -129q-14 -83 -40.5 -135.5t-70.5 -80t-93.5 -37t-123.5 -9.5q-113 0 -304 13t-255 26zM449 739q-8 -56 11.5 -72t74.5 -16h245q69 0 90.5 20.5t28.5 69.5l14 97q9 53 -5 74.5 t-83 21.5h-245q-61 0 -83.5 -20t-31.5 -80z" />
<glyph unicode="&#xa8;" horiz-adv-x="921" d="M274 1192q7 47 46.5 80t87.5 33q47 0 74.5 -32.5t21.5 -80.5q-7 -47 -46 -81t-85 -34q-47 0 -76 34t-23 81zM797 1192q7 47 46.5 80t86.5 33t75 -33t21 -80q-8 -47 -47 -81t-86 -34q-46 0 -74 34t-22 81z" />
<glyph unicode="&#xa9;" horiz-adv-x="1638" d="M196 630.5q3 70.5 13 137.5q13 86 30.5 159.5t44.5 150t60.5 137t81.5 115t105 91t132.5 57.5t163.5 21h490q83 0 148 -26t106 -70t68 -106.5t38.5 -128.5t12.5 -144.5t-5 -147.5t-18 -143q-56 -344 -201 -538.5t-370 -194.5h-490q-82 0 -148 27t-110.5 72.5t-76.5 108 t-48.5 131.5t-23 145t-3.5 146.5zM361.5 532.5q5.5 -107.5 30.5 -190t83.5 -132.5t142.5 -50h492q134 0 238 147t151 447q10 63 16 111t9.5 112t0 111.5t-17 97t-38 81t-65.5 52t-97 20.5h-504q-58 0 -107 -14.5t-99.5 -54.5t-90 -104t-73.5 -168.5t-56 -243.5 q-21 -114 -15.5 -221.5zM578 760q21 128 56 215t83.5 134t102 66t122.5 19q67 0 175 -14t188 -35l-21 -135q-169 24 -338 24q-83 0 -131 -68t-74 -225q-22 -138 4 -209t115 -71q145 0 354 33l-20 -136q-171 -57 -387 -57q-133 0 -199.5 112.5t-29.5 346.5z" />
<glyph unicode="&#xaa;" horiz-adv-x="749" d="M137 541l21 135h645l-21 -135h-645zM204 977q-10 76 7 186q15 86 44.5 149t62 97t77.5 55.5t77 27.5t75 9q81 5 195 -19.5t161 -70.5l-92 -639h-119l-28 105q-31 -45 -103.5 -79t-140.5 -34q-49 0 -92 21t-78.5 68.5t-45.5 123.5zM381 1133q-31 -203 90 -203 q105 0 207 92l43 309q-47 13 -98.5 18t-87.5 -3q-27 -7 -45.5 -16t-42 -30.5t-40 -63.5t-26.5 -103z" />
<glyph unicode="&#xab;" horiz-adv-x="1167" d="M201 725l487 416l121 -140l-342 -292l250 -291l-152 -119zM623 725l487 416l121 -140l-342 -292l250 -291l-152 -119z" />
<glyph unicode="&#xac;" horiz-adv-x="1034" d="M160 504l33 201h874q-9 -58 -30.5 -189.5t-30.5 -189.5h-201l26 178h-671z" />
<glyph unicode="&#xad;" horiz-adv-x="724" d="M119 489l33 209h643l-33 -209h-643z" />
<glyph unicode="&#xae;" horiz-adv-x="1638" d="M196 630.5q3 70.5 13 137.5q13 86 30.5 159.5t44.5 150t60.5 137t81.5 115t105 91t132.5 57.5t163.5 21h490q83 0 148 -26t106 -70t68 -106.5t38.5 -128.5t12.5 -144.5t-5 -147.5t-18 -143q-56 -344 -201 -538.5t-370 -194.5h-490q-82 0 -148 27t-110.5 72.5t-76.5 108 t-48.5 131.5t-23 145t-3.5 146.5zM361.5 532.5q5.5 -107.5 30.5 -190t83.5 -132.5t142.5 -50h492q134 0 238 147t151 447q10 63 16 111t9.5 112t0 111.5t-17 97t-38 81t-65.5 52t-97 20.5h-504q-58 0 -107 -14.5t-99.5 -54.5t-90 -104t-73.5 -168.5t-56 -243.5 q-21 -114 -15.5 -221.5zM561 313l139 875h369q38 0 72 -7t68.5 -26t57 -49t32.5 -80t1 -115q-7 -62 -24 -107.5t-35.5 -70.5t-47.5 -42.5t-48 -23.5t-51 -14q-2 0 -3 -0.5t-3 -1t-3 -0.5l127 -338h-182l-123 334l-123 25l-57 -359h-166zM803 791h188q79 0 105.5 23.5 t38.5 103.5q6 38 0.5 61.5t-23.5 33.5t-35.5 12.5t-48.5 2.5h-186z" />
<glyph unicode="&#xaf;" horiz-adv-x="770" d="M258 1087l25 150h598l-25 -150h-598z" />
<glyph unicode="&#xb0;" horiz-adv-x="581" d="M287 1294q3 88 66 148.5t149 60.5t144.5 -60.5t55.5 -148.5q-1 -87 -62 -145.5t-148 -58.5t-146.5 58.5t-58.5 145.5zM397 1294q-1 -39 28 -67.5t69 -28.5q41 0 69.5 28t30.5 68q0 40 -27.5 69.5t-66.5 29.5q-41 0 -71 -29.5t-32 -69.5z" />
<glyph unicode="&#xb1;" horiz-adv-x="1042" d="M121 156l33 209h852l-33 -209h-852zM223 786l31 209h319l52 320h209l-52 -320h324l-31 -209h-323l-54 -323h-209l54 323h-320z" />
<glyph unicode="&#xb2;" horiz-adv-x="804" d="M143 729l27 166l63 42t83 55.5t87.5 61t94 71t83.5 72t76.5 76.5t51.5 72.5t28 71.5q11 72 -19 101.5t-116 29.5h-336q-1 0 4.5 35.5t11.5 70.5t7 34q91 14 129 19t112.5 11t153.5 6q71 0 124.5 -30t81 -76t38 -97t2.5 -98q-11 -74 -49.5 -146.5t-95.5 -132.5t-105 -102 t-105 -85t-67 -52h338l-29 -176h-674z" />
<glyph unicode="&#xb3;" horiz-adv-x="831" d="M145 758l25 137h340q70 0 109.5 23t48.5 77l6 33q8 59 -23 83.5t-94 27.5l-266 8l24 149l269 13q72 3 109 26.5t44 73.5l4 33q9 54 -18.5 75t-101.5 21h-359l21 135q86 29 183 36t247 5q116 -1 175.5 -74.5t41.5 -179.5l-10 -65q-12 -73 -48 -123t-88 -62 q48 -22 66.5 -77t7.5 -123l-8 -52q-18 -120 -90 -179.5t-215 -59.5h-45.5h-46t-41.5 0.5t-43.5 1t-39 2t-40.5 3.5t-36.5 5t-38 6.5t-34 9t-35.5 11.5z" />
<glyph unicode="&#xb4;" horiz-adv-x="495" d="M207 1087l242 281h231l-303 -281h-170z" />
<glyph unicode="&#xb5;" horiz-adv-x="1208" d="M68 -553l143 905l117 735h237l-116 -739q-25 -164 116 -164q94 0 163 23t167 80l127 800h238l-173 -1087h-184l-33 119q-17 -9 -63 -33.5t-67.5 -34.5t-59.5 -26t-72 -23.5t-71 -9.5q-75 -5 -142 24l-90 -569h-237z" />
<glyph unicode="&#xb6;" horiz-adv-x="1183" d="M225 966.5q-4 36.5 4 71.5l29 191q13 79 47.5 134t86.5 83.5t108 40.5t125 12h761l-28 -192h-121l-207 -1307h-188l209 1311h-158l-295 -1864h-186l206 1315q-2 -1 -15.5 -7l-27 -12t-35.5 -11t-42 -5q-55 0 -100.5 13.5t-75.5 36.5t-52.5 53.5t-31.5 65t-13 71z M420 1038q-6 -43 2.5 -70.5t30.5 -38t39 -13.5t43 -3h108l64 402h-105q-82 0 -115.5 -30.5t-44.5 -98.5z" />
<glyph unicode="&#xb7;" horiz-adv-x="542" d="M258 707l25 159q7 52 57 52h152q52 0 43 -52l-25 -159q-8 -48 -57 -48h-152q-22 0 -34 13t-9 35z" />
<glyph unicode="&#xb8;" horiz-adv-x="503" d="M29 -360l18 104l100 31q43 18 61 51.5t28 97.5h172q-25 -159 -82.5 -221.5t-184.5 -62.5h-112z" />
<glyph unicode="&#xb9;" horiz-adv-x="569" d="M229 1458l19 127q69 0 153 48.5t111 80.5h184l-157 -985h-187l127 782q-32 -24 -102 -38.5t-148 -14.5z" />
<glyph unicode="&#xba;" horiz-adv-x="790" d="M162 545l20 133h649l-20 -133h-649zM233 1137q35 215 118.5 292.5t277.5 77.5q180 2 252 -89t39 -306q-22 -135 -63 -208t-120 -107.5t-217 -34.5q-179 0 -248.5 91t-38.5 284zM404.5 1042.5q-1.5 -34.5 6 -56.5t16 -35t30 -19t38.5 -7.5t50 -2.5q24 0 36.5 0.5t32 3 t29.5 7.5t24.5 14.5t23 24.5t18.5 36.5t17 50.5t13 67q8 53 11 89t-2 61.5t-13 39t-28 21t-40.5 9.5t-56.5 2q-51 1 -78 -4.5t-52 -27.5t-39.5 -66.5t-26.5 -123.5q-8 -49 -9.5 -83.5z" />
<glyph unicode="&#xbb;" horiz-adv-x="1161" d="M156 440l344 297l-242 281l143 123l363 -422l-485 -420zM582 440l344 297l-242 281l145 123l361 -422l-483 -420z" />
<glyph unicode="&#xbc;" horiz-adv-x="1933" d="M229 1253l19 127q69 0 153 48.5t111 80.5h184l-157 -985h-187l127 783q-32 -24 -102 -39t-148 -15zM379 0l1132 1577h183l-1133 -1577h-182zM1118 295l488 686h206l-405 -582h264l35 224l68 100h131l-52 -324h107l-23 -149l-114 -33l-33 -217h-182l34 217h-483z" />
<glyph unicode="&#xbd;" horiz-adv-x="2054" d="M229 1253l19 127q69 0 153 48.5t111 80.5h184l-157 -985h-187l127 783q-32 -24 -102 -39t-148 -15zM362 0l1133 1577h182l-1132 -1577h-183zM1311 0l26 166q10 7 63 42t83 55t87.5 61.5t94.5 71t84.5 72t76 76.5t51.5 72.5t28 71.5q11 73 -19 102t-117 29h-333q-1 0 4 35 t10.5 70t5.5 34q9 1 42.5 6t43 6.5t38.5 5.5t42 5.5l39 4.5t44 4t43.5 2.5t50.5 2t52 0.5q72 0 126 -30t81.5 -76.5t38 -97t2.5 -97.5q-10 -63 -41 -126t-69.5 -111t-89 -96.5t-89.5 -79t-81 -62.5t-54 -43h338l-26 -176h-676z" />
<glyph unicode="&#xbe;" horiz-adv-x="2164" d="M145 553l25 137h340q70 0 109.5 23t48.5 78l6 32q8 59 -23 83.5t-94 27.5l-266 8l24 150l269 12q72 3 109 26.5t44 73.5l4 33q9 54 -18.5 75t-101.5 21h-359l21 135q86 29 183 36t247 5q116 -1 175.5 -74.5t41.5 -179.5l-10 -65q-12 -73 -48 -122.5t-88 -61.5 q48 -22 66.5 -77.5t7.5 -123.5l-8 -51q-18 -120 -90 -180t-215 -60h-45.5h-46t-41.5 0.5t-43.5 1t-39 2t-40.5 3.5t-36.5 5t-38 6.5t-34 9t-35.5 11.5zM582 0l1132 1577h182l-1132 -1577h-182zM1296 295l488 686h207l-406 -582h264l35 224l70 100h131l-53 -324h106l-22 -149 l-115 -33l-31 -217h-184l35 217h-484z" />
<glyph unicode="&#xbf;" horiz-adv-x="1103" d="M43 -141l27 170q34 215 167 291.5t365 50.5l16 93q16 94 15 99h205l-60 -375q-128 3 -256 0q-83 -3 -143 -46t-74 -132l-22 -145q-17 -107 32 -152t181 -45h526l-27 -170q-184 -32 -305 -44t-280 -5q-104 0 -183 35.5t-122 94.5t-59 131t-3 149zM645 756l27 159 q6 48 55 48h154q22 0 34 -13t9 -35l-27 -159q-7 -51 -57 -51h-154q-48 0 -41 51z" />
<glyph unicode="&#xc0;" horiz-adv-x="1386" d="M78 0l760 1499h262l264 -1499h-242l-67 362h-531l-184 -362h-262zM627 580h399l-100 606zM676 1913h219l180 -281h-170z" />
<glyph unicode="&#xc1;" horiz-adv-x="1386" d="M78 0l760 1499h262l264 -1499h-242l-67 362h-531l-184 -362h-262zM627 580h399l-100 606zM905 1632l242 281h231l-303 -281h-170z" />
<glyph unicode="&#xc2;" horiz-adv-x="1386" d="M78 0l760 1499h262l264 -1499h-242l-67 362h-531l-184 -362h-262zM627 580h399l-100 606zM680 1632l272 273h189l159 -273h-165l-99 148l-162 -148h-194z" />
<glyph unicode="&#xc3;" horiz-adv-x="1386" d="M78 0l760 1499h262l264 -1499h-242l-67 362h-531l-184 -362h-262zM627 580h399l-100 606zM655 1735q79 66 142.5 102.5t126.5 36.5q42 -2 79 -19.5t67.5 -34.5t57.5 -18q40 -1 109.5 26.5t95.5 47.5l31 -109q-6 -5 -38 -29.5t-43.5 -32.5t-39.5 -26.5t-46 -25t-43 -13 t-48 -6.5q-44 0 -82 18t-70 35.5t-63 16.5q-25 -1 -46.5 -4.5t-44 -12.5t-34.5 -14.5t-40.5 -20.5t-37.5 -20z" />
<glyph unicode="&#xc4;" horiz-adv-x="1386" d="M78 0l760 1499h262l264 -1499h-242l-67 362h-531l-184 -362h-262zM627 580h399l-100 606zM633 1747q7 47 47 80t86 33q47 0 75 -33t21 -80t-46 -81t-85 -34q-47 0 -75.5 34t-22.5 81zM1155 1747q7 47 47 80t86 33q47 0 75 -33t21 -80t-46 -81t-85 -34q-47 0 -75.5 34 t-22.5 81z" />
<glyph unicode="&#xc5;" horiz-adv-x="1386" d="M78 0l760 1499h104q-72 14 -115 71t-36 132q7 88 73 148.5t152 60.5t141.5 -60.5t48.5 -148.5q-7 -76 -58.5 -132.5t-123.5 -70.5h76l264 -1499h-242l-67 362h-531l-184 -362h-262zM627 580h399l-100 606zM901 1702q-3 -40 23 -67t67 -27q40 0 70 27t33 67q4 41 -21 69.5 t-65 28.5t-72 -28.5t-35 -69.5z" />
<glyph unicode="&#xc6;" horiz-adv-x="2009" d="M51 0l783 1200q59 89 121.5 150t120.5 90t120.5 44.5t122.5 14.5t125 0q557 -21 639 -33l-31 -194h-602q-36 0 -59.5 -8.5t-35.5 -27.5t-16.5 -33.5t-9.5 -41.5l-49 -307l614 -23l-30 -192l-623 -21l-45 -294q-2 -16 -2.5 -29.5t2.5 -23.5t5.5 -18t10 -13.5t12 -9.5 t15 -6.5t15.5 -4t17.5 -2t17 -0.5h18.5h579l-33 -190q-33 -4 -189 -13t-296 -16l-139 -6q-44 -3 -86 3.5t-83 24.5t-69 47t-41.5 76t-3.5 107l27 176h-373l-281 -426h-268zM737 641h271l92 557z" />
<glyph unicode="&#xc7;" horiz-adv-x="1173" d="M194.5 539.5q1.5 111.5 22.5 236.5q31 190 73.5 319t113.5 228t178.5 146t257.5 47q250 0 506 -70l-31 -186q-248 34 -463 32q-91 -1 -133 -16q-126 -42 -197 -247q-39 -113 -65 -279q-43 -263 4 -396.5t211 -142.5q158 -5 485 16l-29 -186q-185 -57 -524 -53 q-111 1 -193 44.5t-128 117t-68 176t-20.5 214zM371 -360l16 106l100 31q43 12 60.5 45.5t27.5 101.5h175q-25 -159 -83 -221.5t-186 -62.5h-110z" />
<glyph unicode="&#xc8;" horiz-adv-x="1150" d="M176 287l148 925q47 298 348 287q553 -21 635 -33l-31 -194h-598q-36 0 -61 -9.5t-37.5 -28t-17.5 -35.5t-9 -42l-47 -295l612 -20l-31 -195l-618 -18l-47 -301q-2 -16 -2.5 -29.5t2.5 -23.5t5.5 -18t9.5 -13.5t11.5 -9.5t15 -6.5t15.5 -4t17.5 -2t17 -0.5h18.5h580 l-33 -192q-34 -4 -190.5 -13t-296.5 -16l-139 -6q-57 -2 -108.5 11.5t-96 45t-65 92.5t-7.5 144zM565 1901h221l179 -279h-170z" />
<glyph unicode="&#xc9;" horiz-adv-x="1150" d="M176 287l148 925q47 298 348 287q553 -21 635 -33l-31 -194h-598q-36 0 -61 -9.5t-37.5 -28t-17.5 -35.5t-9 -42l-47 -295l612 -20l-31 -195l-618 -18l-47 -301q-2 -16 -2.5 -29.5t2.5 -23.5t5.5 -18t9.5 -13.5t11.5 -9.5t15 -6.5t15.5 -4t17.5 -2t17 -0.5h18.5h580 l-33 -192q-34 -4 -190.5 -13t-296.5 -16l-139 -6q-57 -2 -108.5 11.5t-96 45t-65 92.5t-7.5 144zM795 1622l241 279h230l-303 -279h-168z" />
<glyph unicode="&#xca;" horiz-adv-x="1150" d="M176 287l148 925q47 298 348 287q553 -21 635 -33l-31 -194h-598q-36 0 -61 -9.5t-37.5 -28t-17.5 -35.5t-9 -42l-47 -295l612 -20l-31 -195l-618 -18l-47 -301q-2 -16 -2.5 -29.5t2.5 -23.5t5.5 -18t9.5 -13.5t11.5 -9.5t15 -6.5t15.5 -4t17.5 -2t17 -0.5h18.5h580 l-33 -192q-34 -4 -190.5 -13t-296.5 -16l-139 -6q-57 -2 -108.5 11.5t-96 45t-65 92.5t-7.5 144zM571 1622l271 274h188l160 -274h-170l-92 143l-150 -143h-207z" />
<glyph unicode="&#xcb;" horiz-adv-x="1150" d="M176 287l148 925q47 298 348 287q553 -21 635 -33l-31 -194h-598q-36 0 -61 -9.5t-37.5 -28t-17.5 -35.5t-9 -42l-47 -295l612 -20l-31 -195l-618 -18l-47 -301q-2 -16 -2.5 -29.5t2.5 -23.5t5.5 -18t9.5 -13.5t11.5 -9.5t15 -6.5t15.5 -4t17.5 -2t17 -0.5h18.5h580 l-33 -192q-34 -4 -190.5 -13t-296.5 -16l-139 -6q-57 -2 -108.5 11.5t-96 45t-65 92.5t-7.5 144zM504 1726q7 47 46.5 80t86.5 33t74.5 -33t19.5 -80q-6 -47 -45 -80.5t-86 -33.5t-75 33.5t-21 80.5zM1026 1726q7 47 46.5 80t86.5 33t74.5 -33t19.5 -80q-6 -47 -45 -80.5 t-86 -33.5t-75 33.5t-21 80.5z" />
<glyph unicode="&#xcc;" horiz-adv-x="499" d="M152 0l237 1499h238l-238 -1499h-237zM215 1913h219l180 -281h-170z" />
<glyph unicode="&#xcd;" horiz-adv-x="499" d="M152 0l237 1499h238l-238 -1499h-237zM444 1632l242 281h232l-304 -281h-170z" />
<glyph unicode="&#xce;" horiz-adv-x="499" d="M152 0l237 1499h238l-238 -1499h-237zM219 1632l273 273h188l160 -273h-166l-99 148l-161 -148h-195z" />
<glyph unicode="&#xcf;" horiz-adv-x="499" d="M152 0l237 1499h238l-238 -1499h-237zM172 1747q7 47 47 80t86 33q47 0 75 -33t21 -80t-46 -81t-85 -34q-47 0 -75.5 34t-22.5 81zM694 1747q7 47 47 80t86 33q47 0 75.5 -33t21.5 -80t-46 -81t-85 -34q-47 0 -76 34t-23 81z" />
<glyph unicode="&#xd0;" horiz-adv-x="1347" d="M115 700l20 127h133l107 670q0 2 596 2q92 0 164 -27t119 -72.5t78.5 -109t46 -132t17.5 -147.5t-2.5 -149t-17.5 -141q-60 -362 -209 -541.5t-419 -179.5h-611l111 700h-133zM410 219h344q152 0 248.5 143.5t134.5 382.5q34 197 17 316.5t-73 170t-159 50.5h-344 l-72 -455h250l-21 -127h-250z" />
<glyph unicode="&#xd1;" horiz-adv-x="1361" d="M139 0l238 1499h235l480 -1063l168 1063h237l-237 -1499h-234l-481 1055l-166 -1055h-240zM614 1729q75 64 139 100.5t128 36.5q42 -2 79 -19t67.5 -33.5t57.5 -17.5q42 -1 111.5 26.5t93.5 47.5l31 -109q-7 -5 -38.5 -29.5t-43 -33t-39.5 -26.5t-46 -25t-43 -14t-48 -7 q-44 1 -81.5 19t-69 35.5t-62.5 17.5q-25 -1 -47 -4.5t-45.5 -12.5t-35 -14.5t-40 -20.5t-37.5 -20z" />
<glyph unicode="&#xd2;" horiz-adv-x="1363" d="M196 501q2 114 25 257q23 148 56 262.5t69 193.5t87.5 134t99 86.5t117.5 48.5t128.5 21.5t145.5 4.5q82 0 144.5 -7.5t124.5 -29t104 -57.5t76 -96t48 -142t12 -196.5t-24 -259.5q-17 -109 -39.5 -199t-48 -160t-59.5 -124.5t-68 -93t-79 -66.5t-87 -44.5t-97.5 -26 t-105.5 -12.5t-116 -3q-81 0 -141.5 6.5t-124 26t-106 54t-78 92t-50.5 137t-13 193.5zM435 542.5q-6 -81.5 3 -140.5t28.5 -95t58.5 -57t86.5 -28t119.5 -7q80 0 136 12t106.5 45t85 92t63 151t49.5 224q24 153 24 256.5t-16 161t-62 86.5t-90.5 36t-125.5 7q-42 0 -69 -1 t-61 -5.5t-56 -12.5t-49 -22t-45.5 -35t-39.5 -51t-36 -70t-31 -91t-29.5 -115.5t-25.5 -143.5q-18 -115 -24 -196.5zM629 1913h219l180 -281h-170z" />
<glyph unicode="&#xd3;" horiz-adv-x="1363" d="M196 501q2 114 25 257q23 148 56 262.5t69 193.5t87.5 134t99 86.5t117.5 48.5t128.5 21.5t145.5 4.5q82 0 144.5 -7.5t124.5 -29t104 -57.5t76 -96t48 -142t12 -196.5t-24 -259.5q-17 -109 -39.5 -199t-48 -160t-59.5 -124.5t-68 -93t-79 -66.5t-87 -44.5t-97.5 -26 t-105.5 -12.5t-116 -3q-81 0 -141.5 6.5t-124 26t-106 54t-78 92t-50.5 137t-13 193.5zM435 542.5q-6 -81.5 3 -140.5t28.5 -95t58.5 -57t86.5 -28t119.5 -7q80 0 136 12t106.5 45t85 92t63 151t49.5 224q24 153 24 256.5t-16 161t-62 86.5t-90.5 36t-125.5 7q-42 0 -69 -1 t-61 -5.5t-56 -12.5t-49 -22t-45.5 -35t-39.5 -51t-36 -70t-31 -91t-29.5 -115.5t-25.5 -143.5q-18 -115 -24 -196.5zM858 1632l242 281h231l-303 -281h-170z" />
<glyph unicode="&#xd4;" horiz-adv-x="1363" d="M196 501q2 114 25 257q23 148 56 262.5t69 193.5t87.5 134t99 86.5t117.5 48.5t128.5 21.5t145.5 4.5q82 0 144.5 -7.5t124.5 -29t104 -57.5t76 -96t48 -142t12 -196.5t-24 -259.5q-17 -109 -39.5 -199t-48 -160t-59.5 -124.5t-68 -93t-79 -66.5t-87 -44.5t-97.5 -26 t-105.5 -12.5t-116 -3q-81 0 -141.5 6.5t-124 26t-106 54t-78 92t-50.5 137t-13 193.5zM435 542.5q-6 -81.5 3 -140.5t28.5 -95t58.5 -57t86.5 -28t119.5 -7q80 0 136 12t106.5 45t85 92t63 151t49.5 224q24 153 24 256.5t-16 161t-62 86.5t-90.5 36t-125.5 7q-42 0 -69 -1 t-61 -5.5t-56 -12.5t-49 -22t-45.5 -35t-39.5 -51t-36 -70t-31 -91t-29.5 -115.5t-25.5 -143.5q-18 -115 -24 -196.5zM633 1632l272 273h189l159 -273h-166l-98 148l-162 -148h-194z" />
<glyph unicode="&#xd5;" horiz-adv-x="1363" d="M196 501q2 114 25 257q23 148 56 262.5t69 193.5t87.5 134t99 86.5t117.5 48.5t128.5 21.5t145.5 4.5q82 0 144.5 -7.5t124.5 -29t104 -57.5t76 -96t48 -142t12 -196.5t-24 -259.5q-17 -109 -39.5 -199t-48 -160t-59.5 -124.5t-68 -93t-79 -66.5t-87 -44.5t-97.5 -26 t-105.5 -12.5t-116 -3q-81 0 -141.5 6.5t-124 26t-106 54t-78 92t-50.5 137t-13 193.5zM435 542.5q-6 -81.5 3 -140.5t28.5 -95t58.5 -57t86.5 -28t119.5 -7q80 0 136 12t106.5 45t85 92t63 151t49.5 224q24 153 24 256.5t-16 161t-62 86.5t-90.5 36t-125.5 7q-42 0 -69 -1 t-61 -5.5t-56 -12.5t-49 -22t-45.5 -35t-39.5 -51t-36 -70t-31 -91t-29.5 -115.5t-25.5 -143.5q-18 -115 -24 -196.5zM608 1735q76 65 140 102t129 37q51 -2 112 -36.5t92 -35.5q40 -1 109.5 26.5t95.5 47.5l29 -109q-2 -1 -32 -25t-36.5 -28.5t-33 -23.5t-39.5 -24.5 t-35 -15.5t-41 -13t-39 -3q-56 0 -118 35.5t-97 34.5q-25 -1 -46 -4t-45.5 -13t-35 -14.5t-41 -21t-37.5 -19.5z" />
<glyph unicode="&#xd6;" horiz-adv-x="1363" d="M196 501q2 114 25 257q23 148 56 262.5t69 193.5t87.5 134t99 86.5t117.5 48.5t128.5 21.5t145.5 4.5q82 0 144.5 -7.5t124.5 -29t104 -57.5t76 -96t48 -142t12 -196.5t-24 -259.5q-17 -109 -39.5 -199t-48 -160t-59.5 -124.5t-68 -93t-79 -66.5t-87 -44.5t-97.5 -26 t-105.5 -12.5t-116 -3q-81 0 -141.5 6.5t-124 26t-106 54t-78 92t-50.5 137t-13 193.5zM435 542.5q-6 -81.5 3 -140.5t28.5 -95t58.5 -57t86.5 -28t119.5 -7q80 0 136 12t106.5 45t85 92t63 151t49.5 224q24 153 24 256.5t-16 161t-62 86.5t-90.5 36t-125.5 7q-42 0 -69 -1 t-61 -5.5t-56 -12.5t-49 -22t-45.5 -35t-39.5 -51t-36 -70t-31 -91t-29.5 -115.5t-25.5 -143.5q-18 -115 -24 -196.5zM586 1747q7 47 47 80t86 33q47 0 75 -33t21 -80t-46 -81t-85 -34q-47 0 -75.5 34t-22.5 81zM1108 1747q7 47 47 80t86 33q47 0 75 -33t21 -80t-46 -81 t-85 -34q-47 0 -75.5 34t-22.5 81z" />
<glyph unicode="&#xd7;" horiz-adv-x="942" d="M176 504l260 225l-186 225l160 140l188 -224l276 236l125 -150l-276 -239l190 -228l-159 -133l-187 224l-264 -230z" />
<glyph unicode="&#xd8;" horiz-adv-x="1363" d="M106 0l142 170q-98 184 -33 592q27 172 64.5 298t90 207t105 130.5t131 73.5t145.5 31t169 7q127 0 216 -17.5t150 -66.5l60 74h143l-127 -153q109 -182 41 -629q-16 -109 -38.5 -198.5t-48 -159t-59.5 -123.5t-68 -92.5t-79 -66t-87 -44t-97.5 -26t-105.5 -12.5t-115 -3 q-134 0 -228 19t-158 73l-69 -84h-144zM444 401l680 836q-35 31 -88 40t-139 9q-42 0 -69 -1t-61.5 -5.5t-56.5 -12.5t-49 -22t-45.5 -35t-39.5 -51t-36 -70t-31.5 -91.5t-29.5 -115.5t-26 -143q-36 -230 -9 -338zM485 281q34 -37 92 -51.5t150 -14.5q80 0 135.5 12t106 45 t85 92t62.5 150.5t49 224.5q45 270 11 387z" />
<glyph unicode="&#xd9;" horiz-adv-x="1339" d="M220 449q0 92 18 204l135 846h239l-137 -868q-17 -120 -16 -200t32 -128.5t84.5 -69t141.5 -20.5q175 0 260 95t121 323l137 868h240l-134 -889q-52 -324 -202 -472t-451 -148q-70 0 -128.5 8.5t-113 30t-94.5 55t-71 85.5t-46 120t-15 160zM631 1913h219l180 -281h-170z " />
<glyph unicode="&#xda;" horiz-adv-x="1339" d="M220 449q0 92 18 204l135 846h239l-137 -868q-17 -120 -16 -200t32 -128.5t84.5 -69t141.5 -20.5q175 0 260 95t121 323l137 868h240l-134 -889q-52 -324 -202 -472t-451 -148q-70 0 -128.5 8.5t-113 30t-94.5 55t-71 85.5t-46 120t-15 160zM860 1632l242 281h231 l-303 -281h-170z" />
<glyph unicode="&#xdb;" horiz-adv-x="1339" d="M220 449q0 92 18 204l135 846h239l-137 -868q-17 -120 -16 -200t32 -128.5t84.5 -69t141.5 -20.5q175 0 260 95t121 323l137 868h240l-134 -889q-52 -324 -202 -472t-451 -148q-70 0 -128.5 8.5t-113 30t-94.5 55t-71 85.5t-46 120t-15 160zM635 1632l272 273h189 l159 -273h-165l-99 148l-162 -148h-194z" />
<glyph unicode="&#xdc;" horiz-adv-x="1339" d="M220 449q0 92 18 204l135 846h239l-137 -868q-17 -120 -16 -200t32 -128.5t84.5 -69t141.5 -20.5q175 0 260 95t121 323l137 868h240l-134 -889q-52 -324 -202 -472t-451 -148q-70 0 -128.5 8.5t-113 30t-94.5 55t-71 85.5t-46 120t-15 160zM588 1747q7 47 47 80t86 33 q47 0 75 -33t21 -80t-46 -81t-85 -34q-47 0 -75.5 34t-22.5 81zM1110 1747q7 47 47 80t86 33q47 0 75 -33t21 -80t-46 -81t-85 -34q-47 0 -75.5 34t-22.5 81z" />
<glyph unicode="&#xdd;" horiz-adv-x="1325" d="M293 1499h256l205 -739l469 739h274l-661 -1010l-78 -489h-238l78 489zM831 1632l242 281h232l-304 -281h-170z" />
<glyph unicode="&#xde;" horiz-adv-x="1124" d="M104 0q39 249 118 746.5t118 746.5h238l-46 -289h338q32 0 62.5 -5.5t65 -18.5t61.5 -35.5t52.5 -56t38.5 -80.5t18.5 -109t-7.5 -141q-10 -78 -26.5 -141t-40 -107.5t-48 -78.5t-57 -55t-60 -34.5t-65 -19.5t-64.5 -8.5t-65 -2.5q-70 0 -106 1t-107.5 10.5t-122.5 29.5 l-57 -352h-238zM426 528h281q49 0 79 7.5t58.5 31.5t46.5 73t31 128q5 34 5.5 63t-3 50t-11 37.5t-15.5 27.5t-21 19t-23.5 12t-25.5 6.5t-25.5 3t-24.5 0.5h-280z" />
<glyph unicode="&#xdf;" horiz-adv-x="1169" d="M104 0l185 1159q14 93 51.5 169t101 137.5t164 95.5t230.5 34q123 0 213 -28.5t138 -76t71.5 -109t17 -128t-30 -131t-64.5 -121.5t-91 -96q-21 -16 -61 -39.5t-64 -39t-46 -44t-28 -63.5q-5 -33 10.5 -57t45 -39.5t65 -30t71 -33.5t63 -44t40.5 -67.5t4 -99.5l-10 -74 q-11 -69 -40 -122t-66.5 -84t-87 -50.5t-94.5 -26.5t-95 -7q-48 0 -99.5 5t-82 10t-76 13.5t-58.5 10.5l27 174q240 -13 278 -13q57 0 100.5 32t53.5 91l10 53q5 31 -10.5 53t-44 36.5t-64 27.5t-70 31.5t-61.5 42.5t-40 66t-5 98q17 109 64 166t188 139q107 71 123 186 q7 53 -5 87.5t-42.5 52t-68.5 24t-95 6.5q-130 0 -204 -61t-99 -221l-174 -1094h-238z" />
<glyph unicode="&#xe0;" d="M143.5 352.5q-4.5 102.5 22.5 241.5q17 93 43.5 168.5t56.5 127t69.5 90.5t75 61.5t81 37t81 20.5t80.5 9q128 10 286 -23.5t230 -103.5l-143 -979h-180l-37 115q-46 -47 -147.5 -88t-200.5 -41q-69 0 -123 18.5t-99.5 61t-68 112.5t-27 172.5zM396.5 281.5 q29.5 -84.5 131.5 -84.5q92 0 157.5 24t143.5 76l89 586q-65 20 -140 27t-127 -3q-40 -7 -64.5 -15t-57 -31t-54 -59.5t-43 -102.5t-35.5 -158q-30 -175 -0.5 -259.5zM414 1513h219l180 -280h-170z" />
<glyph unicode="&#xe1;" d="M143.5 352.5q-4.5 102.5 22.5 241.5q17 93 43.5 168.5t56.5 127t69.5 90.5t75 61.5t81 37t81 20.5t80.5 9q128 10 286 -23.5t230 -103.5l-143 -979h-180l-37 115q-46 -47 -147.5 -88t-200.5 -41q-69 0 -123 18.5t-99.5 61t-68 112.5t-27 172.5zM396.5 281.5 q29.5 -84.5 131.5 -84.5q92 0 157.5 24t143.5 76l89 586q-65 20 -140 27t-127 -3q-40 -7 -64.5 -15t-57 -31t-54 -59.5t-43 -102.5t-35.5 -158q-30 -175 -0.5 -259.5zM655 1233l244 280h229l-303 -280h-170z" />
<glyph unicode="&#xe2;" d="M143.5 352.5q-4.5 102.5 22.5 241.5q17 93 43.5 168.5t56.5 127t69.5 90.5t75 61.5t81 37t81 20.5t80.5 9q128 10 286 -23.5t230 -103.5l-143 -979h-180l-37 115q-46 -47 -147.5 -88t-200.5 -41q-69 0 -123 18.5t-99.5 61t-68 112.5t-27 172.5zM396.5 281.5 q29.5 -84.5 131.5 -84.5q92 0 157.5 24t143.5 76l89 586q-65 20 -140 27t-127 -3q-40 -7 -64.5 -15t-57 -31t-54 -59.5t-43 -102.5t-35.5 -158q-30 -175 -0.5 -259.5zM418 1233l272 274h189l159 -274h-166l-98 147l-162 -147h-194z" />
<glyph unicode="&#xe3;" d="M143.5 352.5q-4.5 102.5 22.5 241.5q17 93 43.5 168.5t56.5 127t69.5 90.5t75 61.5t81 37t81 20.5t80.5 9q128 10 286 -23.5t230 -103.5l-143 -979h-180l-37 115q-46 -47 -147.5 -88t-200.5 -41q-69 0 -123 18.5t-99.5 61t-68 112.5t-27 172.5zM396.5 281.5 q29.5 -84.5 131.5 -84.5q92 0 157.5 24t143.5 76l89 586q-65 20 -140 27t-127 -3q-40 -7 -64.5 -15t-57 -31t-54 -59.5t-43 -102.5t-35.5 -158q-30 -175 -0.5 -259.5zM403 1335q77 66 140.5 103t128.5 37q52 -2 113.5 -36t91.5 -34q40 -3 109.5 25t94.5 49l29 -111 q-6 -5 -32 -25.5t-36 -27.5t-33.5 -24t-38 -24t-36 -16.5t-41 -12.5t-39.5 -3q-55 1 -117 36t-98 34q-21 0 -41 -3.5t-34 -6.5t-34.5 -12.5t-29 -14t-32.5 -18t-32 -17.5z" />
<glyph unicode="&#xe4;" d="M143.5 352.5q-4.5 102.5 22.5 241.5q17 93 43.5 168.5t56.5 127t69.5 90.5t75 61.5t81 37t81 20.5t80.5 9q128 10 286 -23.5t230 -103.5l-143 -979h-180l-37 115q-46 -47 -147.5 -88t-200.5 -41q-69 0 -123 18.5t-99.5 61t-68 112.5t-27 172.5zM371 1350q8 46 47 79 t86 33t74.5 -33t21.5 -79q-8 -47 -47 -82t-86 -35t-75.5 35t-20.5 82zM396.5 281.5q29.5 -84.5 131.5 -84.5q92 0 157.5 24t143.5 76l89 586q-65 20 -140 27t-127 -3q-40 -7 -64.5 -15t-57 -31t-54 -59.5t-43 -102.5t-35.5 -158q-30 -175 -0.5 -259.5zM893 1350q8 46 47 79 t86 33t74.5 -33t21.5 -79q-8 -47 -47 -82t-86 -35t-75.5 35t-20.5 82z" />
<glyph unicode="&#xe5;" d="M143.5 352.5q-4.5 102.5 22.5 241.5q17 93 43.5 168.5t56.5 127t69.5 90.5t75 61.5t81 37t81 20.5t80.5 9q128 10 286 -23.5t230 -103.5l-143 -979h-180l-37 115q-46 -47 -147.5 -88t-200.5 -41q-69 0 -123 18.5t-99.5 61t-68 112.5t-27 172.5zM396.5 281.5 q29.5 -84.5 131.5 -84.5q92 0 157.5 24t143.5 76l89 586q-65 20 -140 27t-127 -3q-40 -7 -64.5 -15t-57 -31t-54 -59.5t-43 -102.5t-35.5 -158q-30 -175 -0.5 -259.5zM567 1442q7 87 73 148t153 61q86 0 141.5 -60.5t48.5 -148.5q-8 -88 -72.5 -148.5t-150.5 -60.5 q-87 0 -143.5 61t-49.5 148zM678 1442q-3 -41 23 -68.5t67 -27.5q40 0 69.5 27.5t32.5 68.5q4 40 -21 68t-65 28t-71.5 -28.5t-34.5 -67.5z" />
<glyph unicode="&#xe6;" horiz-adv-x="1777" d="M88.5 311q-7.5 116 20.5 283q15 76 34.5 139.5t40.5 111t48.5 85.5t52.5 64t57.5 46t59 31.5t61.5 19.5t61 11t62 6q94 8 219.5 -13t206.5 -63q118 76 317 76q97 0 172.5 -15t137 -49t91 -97t21.5 -152q-8 -98 -49.5 -171.5t-101.5 -114t-133.5 -64.5t-145 -29.5 t-137 -2.5t-109.5 11t-63 16q-19 -98 -7.5 -154.5t47.5 -78.5t111 -23q194 -12 463 33l-29 -172q-242 -71 -538 -59q-185 6 -252 143q-58 -63 -180 -103t-224 -40q-86 0 -151 32.5t-110.5 104.5t-53 188zM323.5 347q2.5 -76 37.5 -113.5t110 -38.5q87 0 173.5 24t121.5 62 q-11 120 25 317q33 185 83 279q-70 20 -151.5 29.5t-130.5 0.5q-38 -7 -62 -15t-56.5 -32t-54 -60.5t-43.5 -102.5t-36 -158q-19 -116 -16.5 -192zM1032 600q9 -1 25 -2.5t62 -3.5t89 0.5t96.5 13t94 28.5t72.5 52.5t40 81.5q14 83 -30.5 110t-157.5 25q-48 0 -87 -8.5 t-66 -22t-48 -35.5t-33.5 -44t-23 -54t-16.5 -57.5t-13 -62.5q-1 -4 -1.5 -7t-1 -7t-1.5 -7z" />
<glyph unicode="&#xe7;" horiz-adv-x="1011" d="M157 299.5q-9 109.5 15 265.5q17 102 40 182.5t48.5 136.5t58.5 96t64 63t72.5 36t77 17t83.5 4q97 0 234 -16t246 -48l-25 -151q-225 14 -407 14q-25 0 -40.5 -1t-36 -4.5t-33 -10.5t-29 -19t-27.5 -30.5t-24.5 -45.5t-23.5 -62.5t-21 -82t-21 -104.5 q-15 -86 -17.5 -147t5.5 -100.5t30 -62.5t51.5 -32t73.5 -9q84 0 191 5t172 11l65 5l-25 -156q-75 -31 -163 -46t-144 -17t-161 -2h-31q-80 1 -141.5 32.5t-104.5 100.5t-52 178.5zM276 -362l17 106l102 31q42 17 59 50t27 99h174q-25 -160 -82.5 -223t-185.5 -63h-111z" />
<glyph unicode="&#xe8;" horiz-adv-x="1077" d="M170 598q15 77 29.5 133.5t36.5 113t50 94.5t68 72t91.5 54t119 31.5t152.5 11.5q97 0 171.5 -15t134 -49t87.5 -97t20 -152q-8 -98 -50 -171.5t-101.5 -114t-133.5 -64.5t-145.5 -29.5t-137.5 -2.5t-110 11t-63 16q-24 -147 9.5 -200.5t144.5 -55.5q196 -12 467 33 l-27 -172q-243 -71 -547 -59q-194 6 -258 158.5t-8 453.5zM412 600q9 -1 25 -2.5t62 -3.5t89 0.5t96.5 13t93.5 28.5t71.5 52.5t39.5 81.5q14 83 -31 110t-158 25q-48 0 -86 -8.5t-64.5 -21t-47.5 -35t-33.5 -43.5t-23 -53t-16 -56.5t-12.5 -61.5q-3 -17 -5 -26zM424 1511 h221l178 -280h-170z" />
<glyph unicode="&#xe9;" horiz-adv-x="1077" d="M170 598q15 77 29.5 133.5t36.5 113t50 94.5t68 72t91.5 54t119 31.5t152.5 11.5q97 0 171.5 -15t134 -49t87.5 -97t20 -152q-8 -98 -50 -171.5t-101.5 -114t-133.5 -64.5t-145.5 -29.5t-137.5 -2.5t-110 11t-63 16q-24 -147 9.5 -200.5t144.5 -55.5q196 -12 467 33 l-27 -172q-243 -71 -547 -59q-194 6 -258 158.5t-8 453.5zM412 600q9 -1 25 -2.5t62 -3.5t89 0.5t96.5 13t93.5 28.5t71.5 52.5t39.5 81.5q14 83 -31 110t-158 25q-48 0 -86 -8.5t-64.5 -21t-47.5 -35t-33.5 -43.5t-23 -53t-16 -56.5t-12.5 -61.5q-3 -17 -5 -26zM653 1231 l244 280h229l-303 -280h-170z" />
<glyph unicode="&#xea;" horiz-adv-x="1077" d="M170 598q15 77 29.5 133.5t36.5 113t50 94.5t68 72t91.5 54t119 31.5t152.5 11.5q97 0 171.5 -15t134 -49t87.5 -97t20 -152q-8 -98 -50 -171.5t-101.5 -114t-133.5 -64.5t-145.5 -29.5t-137.5 -2.5t-110 11t-63 16q-24 -147 9.5 -200.5t144.5 -55.5q196 -12 467 33 l-27 -172q-243 -71 -547 -59q-194 6 -258 158.5t-8 453.5zM412 600q9 -1 25 -2.5t62 -3.5t89 0.5t96.5 13t93.5 28.5t71.5 52.5t39.5 81.5q14 83 -31 110t-158 25q-48 0 -86 -8.5t-64.5 -21t-47.5 -35t-33.5 -43.5t-23 -53t-16 -56.5t-12.5 -61.5q-3 -17 -5 -26zM430 1231 l270 272h189l160 -272h-166l-99 147l-161 -147h-193z" />
<glyph unicode="&#xeb;" horiz-adv-x="1077" d="M170 598q15 77 29.5 133.5t36.5 113t50 94.5t68 72t91.5 54t119 31.5t152.5 11.5q97 0 171.5 -15t134 -49t87.5 -97t20 -152q-8 -98 -50 -171.5t-101.5 -114t-133.5 -64.5t-145.5 -29.5t-137.5 -2.5t-110 11t-63 16q-24 -147 9.5 -200.5t144.5 -55.5q196 -12 467 33 l-27 -172q-243 -71 -547 -59q-194 6 -258 158.5t-8 453.5zM383 1346q6 46 45 79t86 33t75 -32.5t21 -79.5q-8 -47 -46 -81t-85 -34t-75.5 34t-20.5 81zM412 600q9 -1 25 -2.5t62 -3.5t89 0.5t96.5 13t93.5 28.5t71.5 52.5t39.5 81.5q14 83 -31 110t-158 25q-48 0 -86 -8.5 t-64.5 -21t-47.5 -35t-33.5 -43.5t-23 -53t-16 -56.5t-12.5 -61.5q-3 -17 -5 -26zM905 1346q6 46 45 79t86 33q48 0 76 -32.5t21 -79.5q-8 -47 -46.5 -81t-85.5 -34t-75.5 34t-20.5 81z" />
<glyph unicode="&#xec;" horiz-adv-x="438" d="M90 1503h219l180 -280h-170zM94 0l172 1087h238l-172 -1087h-238z" />
<glyph unicode="&#xed;" horiz-adv-x="438" d="M94 0l172 1087h238l-172 -1087h-238zM317 1223l242 280h232l-304 -280h-170z" />
<glyph unicode="&#xee;" horiz-adv-x="438" d="M90 1223l270 274h189l162 -274h-168l-97 147l-161 -147h-195zM94 0l172 1087h238l-172 -1087h-238z" />
<glyph unicode="&#xef;" horiz-adv-x="438" d="M39 1337q6 47 45.5 81t87.5 34q46 0 73.5 -34t20.5 -81q-8 -47 -46 -80.5t-85 -33.5t-75 33.5t-21 80.5zM94 0l172 1087h238l-172 -1087h-238zM561 1337q6 47 45.5 81t87.5 34q46 0 73.5 -34t20.5 -81q-8 -47 -46 -80.5t-85 -33.5t-75 33.5t-21 80.5z" />
<glyph unicode="&#xf0;" horiz-adv-x="1101" d="M134 374.5q1 79.5 16 174.5q48 286 152.5 412t307.5 126h152q117 0 147 -22q-20 138 -94 223l-274 -112l-37 118l186 78q-91 41 -254 33l31 199q315 0 471 -123l221 92l39 -121l-168 -68q185 -262 86 -872q-44 -278 -151.5 -395t-305.5 -117h-221q-82 0 -142 28t-95 77 t-51.5 119.5t-15.5 150zM372.5 397.5q-1.5 -55.5 6 -89.5t26 -53t41 -25t56.5 -5h162q33 -1 57 5t49 24t43.5 51.5t35.5 90t30 136.5q24 129 20 202.5t-34.5 101.5t-102.5 28h-152q-60 0 -98.5 -25t-70 -98.5t-54.5 -208.5q-13 -79 -14.5 -134.5z" />
<glyph unicode="&#xf1;" horiz-adv-x="1120" d="M104 0l172 1087h185l35 -120q64 39 89.5 53.5t81 40t106.5 35.5t110 10q88 0 149 -30t89 -80.5t37.5 -117.5t-5.5 -141l-117 -737h-237l116 739q13 84 -18.5 125t-97.5 41q-93 0 -160 -22.5t-170 -79.5l-127 -803h-238zM428 1331q80 66 142.5 102.5t125.5 36.5 q42 -2 79 -19t68 -34t58 -18q40 -1 109.5 26.5t95.5 47.5l31 -109q-6 -5 -38 -29.5t-43.5 -32.5t-39.5 -26.5t-46 -25t-43 -13t-48 -6.5q-44 0 -82 17.5t-70 35t-63 16.5q-16 0 -31 -2t-26.5 -4t-27 -7.5t-23.5 -8.5t-24 -11l-22 -11t-25 -13.5t-24 -13.5z" />
<glyph unicode="&#xf2;" horiz-adv-x="1146" d="M168 547q18 113 41.5 195.5t58 145t77 102.5t103 65t130.5 35t165 10q264 0 359 -143t45 -447q-25 -155 -62.5 -252t-104 -158.5t-159 -85.5t-235.5 -24q-270 0 -367 131.5t-51 425.5zM390.5 397.5q-2.5 -54.5 6 -91.5t23.5 -59.5t44.5 -34.5t60.5 -15.5t79 -3.5 q43 0 70.5 2t58 9.5t50 22t40 38.5t34.5 60t27.5 86t24.5 117q16 95 18 158t-7 106t-36.5 66t-66.5 32t-100 9q-79 0 -124 -11.5t-83 -51t-61 -111.5t-43 -197q-13 -76 -15.5 -130.5zM440 1503h219l181 -280h-170z" />
<glyph unicode="&#xf3;" horiz-adv-x="1146" d="M168 547q18 113 41.5 195.5t58 145t77 102.5t103 65t130.5 35t165 10q264 0 359 -143t45 -447q-25 -155 -62.5 -252t-104 -158.5t-159 -85.5t-235.5 -24q-270 0 -367 131.5t-51 425.5zM390.5 397.5q-2.5 -54.5 6 -91.5t23.5 -59.5t44.5 -34.5t60.5 -15.5t79 -3.5 q43 0 70.5 2t58 9.5t50 22t40 38.5t34.5 60t27.5 86t24.5 117q16 95 18 158t-7 106t-36.5 66t-66.5 32t-100 9q-79 0 -124 -11.5t-83 -51t-61 -111.5t-43 -197q-13 -76 -15.5 -130.5zM674 1223l244 280h229l-303 -280h-170z" />
<glyph unicode="&#xf4;" horiz-adv-x="1146" d="M168 547q18 113 41.5 195.5t58 145t77 102.5t103 65t130.5 35t165 10q264 0 359 -143t45 -447q-25 -155 -62.5 -252t-104 -158.5t-159 -85.5t-235.5 -24q-270 0 -367 131.5t-51 425.5zM390.5 397.5q-2.5 -54.5 6 -91.5t23.5 -59.5t44.5 -34.5t60.5 -15.5t79 -3.5 q43 0 70.5 2t58 9.5t50 22t40 38.5t34.5 60t27.5 86t24.5 117q16 95 18 158t-7 106t-36.5 66t-66.5 32t-100 9q-79 0 -124 -11.5t-83 -51t-61 -111.5t-43 -197q-13 -76 -15.5 -130.5zM442 1223l273 274h188l160 -274h-166l-98 147l-162 -147h-195z" />
<glyph unicode="&#xf5;" horiz-adv-x="1146" d="M168 547q18 113 41.5 195.5t58 145t77 102.5t103 65t130.5 35t165 10q264 0 359 -143t45 -447q-25 -155 -62.5 -252t-104 -158.5t-159 -85.5t-235.5 -24q-270 0 -367 131.5t-51 425.5zM390.5 397.5q-2.5 -54.5 6 -91.5t23.5 -59.5t44.5 -34.5t60.5 -15.5t79 -3.5 q43 0 70.5 2t58 9.5t50 22t40 38.5t34.5 60t27.5 86t24.5 117q16 95 18 158t-7 106t-36.5 66t-66.5 32t-100 9q-79 0 -124 -11.5t-83 -51t-61 -111.5t-43 -197q-13 -76 -15.5 -130.5zM422 1325q77 66 140 102.5t126 36.5q42 -2 79 -19t68 -34t58 -18q41 -1 110 26t95 47 l30 -108q-7 -5 -38.5 -29.5t-43 -32.5t-39.5 -26t-45.5 -25t-42 -13.5t-47.5 -6.5q-56 0 -118 35t-97 34q-18 0 -34.5 -2t-33.5 -7t-27 -7.5t-29 -12t-24.5 -12t-28.5 -15.5t-27 -15z" />
<glyph unicode="&#xf6;" horiz-adv-x="1146" d="M168 547q18 113 41.5 195.5t58 145t77 102.5t103 65t130.5 35t165 10q264 0 359 -143t45 -447q-25 -155 -62.5 -252t-104 -158.5t-159 -85.5t-235.5 -24q-270 0 -367 131.5t-51 425.5zM390.5 397.5q-2.5 -54.5 6 -91.5t23.5 -59.5t44.5 -34.5t60.5 -15.5t79 -3.5 q43 0 70.5 2t58 9.5t50 22t40 38.5t34.5 60t27.5 86t24.5 117q16 95 18 158t-7 106t-36.5 66t-66.5 32t-100 9q-79 0 -124 -11.5t-83 -51t-61 -111.5t-43 -197q-13 -76 -15.5 -130.5zM401 1337q6 47 46 81t88 34q47 0 74.5 -33.5t19.5 -81.5q-6 -47 -45 -80.5t-86 -33.5 t-75.5 33.5t-21.5 80.5zM924 1337q6 47 45.5 81t87.5 34q47 0 74.5 -33.5t19.5 -81.5q-6 -47 -45 -80.5t-86 -33.5t-75 33.5t-21 80.5z" />
<glyph unicode="&#xf7;" horiz-adv-x="1032" d="M184 618l33 209h860l-33 -209h-860zM451 330l22 129q7 49 57 49h134q48 0 41 -49l-23 -129q-6 -47 -55 -47h-133q-22 0 -34 13t-9 34zM555 975l18 127q7 51 58 51h133q48 0 41 -51l-19 -127q-9 -47 -57 -47h-133q-22 0 -33 12.5t-8 34.5z" />
<glyph unicode="&#xf8;" horiz-adv-x="1150" d="M74 0l129 137q-76 128 -33 408q27 168 68 274t111.5 169t163.5 86.5t235 23.5q188 0 288 -66l49 55h150l-123 -133q88 -137 39 -442q-25 -155 -63 -252t-104.5 -159.5t-160 -86.5t-235.5 -24q-213 0 -314 71l-57 -61h-143zM406 350l466 512q-43 35 -153 35 q-52 0 -86.5 -4.5t-67.5 -18.5t-54 -38.5t-40.5 -66.5t-34 -99.5t-28.5 -141.5q-18 -125 -2 -178zM438 233q24 -25 62.5 -32.5t105.5 -7.5q43 0 71 2t59 9.5t50.5 22t40 38.5t34.5 60t27.5 86t24.5 117q26 156 0 222z" />
<glyph unicode="&#xf9;" horiz-adv-x="1118" d="M137.5 206.5q-9.5 67.5 5.5 145.5l115 735h238l-117 -739q-14 -92 18 -128t101 -36q94 0 161 22.5t168 80.5l125 800h238l-172 -1087h-187l-30 119q-79 -48 -121.5 -71t-116 -44.5t-151.5 -21.5q-87 0 -147.5 28.5t-89 78.5t-38 117.5zM432 1503h219l180 -280h-169z" />
<glyph unicode="&#xfa;" horiz-adv-x="1118" d="M137.5 206.5q-9.5 67.5 5.5 145.5l115 735h238l-117 -739q-14 -92 18 -128t101 -36q94 0 161 22.5t168 80.5l125 800h238l-172 -1087h-187l-30 119q-79 -48 -121.5 -71t-116 -44.5t-151.5 -21.5q-87 0 -147.5 28.5t-89 78.5t-38 117.5zM662 1223l241 280h230l-302 -280 h-169z" />
<glyph unicode="&#xfb;" horiz-adv-x="1118" d="M137.5 206.5q-9.5 67.5 5.5 145.5l115 735h238l-117 -739q-14 -92 18 -128t101 -36q94 0 161 22.5t168 80.5l125 800h238l-172 -1087h-187l-30 119q-79 -48 -121.5 -71t-116 -44.5t-151.5 -21.5q-87 0 -147.5 28.5t-89 78.5t-38 117.5zM436 1223l273 274h188l160 -274 h-166l-98 147l-162 -147h-195z" />
<glyph unicode="&#xfc;" horiz-adv-x="1118" d="M137.5 206.5q-9.5 67.5 5.5 145.5l115 735h238l-117 -739q-14 -92 18 -128t101 -36q94 0 161 22.5t168 80.5l125 800h238l-172 -1087h-187l-30 119q-79 -48 -121.5 -71t-116 -44.5t-151.5 -21.5q-87 0 -147.5 28.5t-89 78.5t-38 117.5zM389 1337q8 47 47 81t86 34 t74.5 -33.5t19.5 -81.5q-6 -47 -45 -80.5t-86 -33.5t-75 33.5t-21 80.5zM911 1337q8 47 47 81t86 34t75 -34t20 -81q-6 -47 -45 -80.5t-86 -33.5t-75.5 33.5t-21.5 80.5z" />
<glyph unicode="&#xfd;" horiz-adv-x="1142" d="M180 1087h246l90 -792q11 -80 119 -80l317 670q38 81 54 207h213q33 -132 -37 -279l-387 -811q-57 -121 -120.5 -216.5t-122 -157.5t-123 -105t-120 -65t-116.5 -33v167q83 48 153 120.5t111 136.5t86 151q-47 0 -88 13t-78 41.5t-62 80.5t-34 123zM643 1214l242 279h231 l-303 -279h-170z" />
<glyph unicode="&#xfe;" horiz-adv-x="1132" d="M33 -553l344 2155h237l-102 -635q65 45 175 88t200 43q71 0 125.5 -31t86.5 -85.5t51 -127.5t18 -156.5t-13 -173.5q-11 -65 -20 -111t-27 -108t-39 -104.5t-55 -88.5t-75.5 -73.5t-100 -45.5t-129.5 -18q-74 0 -172 21t-170 57l-97 -606h-237zM393 217q51 -17 110 -26.5 t86 -11.5t95 -5q39 0 71 15t63.5 53t56 113t40.5 184q24 179 -5.5 267t-106.5 83q-148 -5 -316 -84z" />
<glyph unicode="&#xff;" horiz-adv-x="1142" d="M180 1087h246l90 -792q11 -80 119 -80l317 670q38 81 54 207h213q33 -132 -37 -279l-387 -811q-57 -121 -120.5 -216.5t-122 -157.5t-123 -105t-120 -65t-116.5 -33v167q83 48 153 120.5t111 136.5t86 151q-47 0 -88 13t-78 41.5t-62 80.5t-34 123zM373 1315 q7 47 47 79.5t86 32.5q47 0 75 -32.5t21 -79.5t-46 -81t-85 -34q-47 0 -75.5 34t-22.5 81zM897 1315q6 46 45 79t86 33t75 -32.5t21 -79.5q-8 -47 -46 -81t-85 -34t-75.5 34t-20.5 81z" />
<glyph unicode="&#x152;" horiz-adv-x="2152" d="M165 501q2 114 25 257q18 116 42 210.5t50.5 167t61.5 129t68.5 95.5t79.5 66.5t86.5 43.5t97 25t104 11.5t113.5 2.5q145 0 243 -28.5t158 -106.5q76 136 277 125q555 -21 637 -33l-31 -194h-598q-36 0 -61 -9.5t-37.5 -28t-17.5 -35.5t-9 -42l-47 -295l612 -20 l-28 -195l-621 -18l-47 -301q-2 -16 -2.5 -29.5t2.5 -23.5t5.5 -18t10 -13.5t12 -9.5t15 -6.5t15.5 -4t17.5 -2t17 -0.5h18.5h577l-31 -192q-34 -4 -190.5 -13t-295.5 -16l-140 -6q-73 -5 -139.5 24t-98.5 91q-80 -68 -184 -92.5t-252 -24.5q-81 0 -142 6.5t-124.5 26 t-106.5 54t-78.5 92t-50.5 137t-13 193.5zM404 542.5q-6 -81.5 3 -140.5t29 -95t59 -57t86.5 -28t118.5 -7q80 0 136.5 12t107 45t85.5 92t63 150.5t49 224.5q14 86 20 155.5t6 123t-9 94.5t-20 69.5t-33 48t-43 30.5t-55 17t-62.5 7.5t-72.5 1.5q-42 0 -69 -1t-61.5 -5.5 t-56.5 -12.5t-49 -22t-45.5 -35t-39.5 -51t-36 -70t-31.5 -91.5t-29.5 -115.5t-26 -143q-18 -115 -24 -196.5z" />
<glyph unicode="&#x153;" horiz-adv-x="1828" d="M154 551q18 113 41.5 195t58 144.5t77 102t103 64t130.5 34t165 9.5q248 0 338 -133q60 71 155 106t242 35q97 0 171.5 -15t134.5 -49t88 -97t20 -152q-8 -98 -50 -171.5t-101.5 -114t-133.5 -64.5t-145.5 -29.5t-137.5 -2.5t-110 11t-63 16q-25 -148 8 -202t143 -54 q270 0 469 33l-28 -172q-240 -71 -547 -59q-163 3 -224 116q-61 -60 -154.5 -86t-232.5 -26q-269 0 -366 133.5t-51 427.5zM376.5 376q0.5 -61 12 -97.5t42.5 -55.5t66 -24.5t93 -5.5q43 0 70.5 2t58 9.5t50 22t40 38.5t34.5 60t27.5 86t24.5 117q16 94 18 157.5t-7.5 106.5 t-37 66t-66.5 32t-100 9q-79 0 -124 -11.5t-83 -51t-61 -111.5t-43 -197q-15 -91 -14.5 -152zM1157 600q9 -1 25 -2.5t62 -3.5t89 0.5t96.5 13t94 28.5t72.5 52.5t40 81.5q13 83 -31 110t-157 25q-48 0 -87 -8.5t-66 -22t-48 -35.5t-33.5 -44t-23 -54t-16.5 -57.5t-13 -62.5 q-1 -4 -1.5 -7t-1 -7t-1.5 -7z" />
<glyph unicode="&#x178;" horiz-adv-x="1325" d="M236 1499h256l204 -739l469 739h275l-662 -1010l-78 -489h-237l78 489zM502 1741q7 47 46 79.5t87 32.5q47 0 74.5 -32.5t19.5 -79.5q-6 -47 -45 -81t-86 -34t-75.5 34t-20.5 81zM1024 1741q7 47 46 79.5t87 32.5q47 0 74.5 -32.5t19.5 -79.5q-6 -47 -45 -81t-86 -34 t-75.5 34t-20.5 81z" />
<glyph unicode="&#x2c6;" horiz-adv-x="659" d="M115 1087l270 273h188l160 -273h-166l-98 148l-160 -148h-194z" />
<glyph unicode="&#x2dc;" horiz-adv-x="878" d="M258 1190q77 66 140 102.5t128 36.5q42 -2 79 -19.5t68 -34.5t58 -18q40 -1 109.5 26.5t95.5 47.5l29 -108q-6 -5 -32 -25.5t-36 -27.5t-33.5 -24t-38 -24t-36 -16.5t-41 -12.5t-39.5 -3q-44 0 -82 17.5t-70 35t-63 16.5q-25 -1 -46.5 -4.5t-44 -12.5t-34.5 -14.5 t-40.5 -20.5t-37.5 -20z" />
<glyph unicode="&#x2000;" horiz-adv-x="956" />
<glyph unicode="&#x2001;" horiz-adv-x="1913" />
<glyph unicode="&#x2002;" horiz-adv-x="956" />
<glyph unicode="&#x2003;" horiz-adv-x="1913" />
<glyph unicode="&#x2004;" horiz-adv-x="637" />
<glyph unicode="&#x2005;" horiz-adv-x="478" />
<glyph unicode="&#x2006;" horiz-adv-x="318" />
<glyph unicode="&#x2007;" horiz-adv-x="318" />
<glyph unicode="&#x2008;" horiz-adv-x="239" />
<glyph unicode="&#x2009;" horiz-adv-x="382" />
<glyph unicode="&#x200a;" horiz-adv-x="106" />
<glyph unicode="&#x2010;" horiz-adv-x="724" d="M123 489l35 209h643l-35 -209h-643z" />
<glyph unicode="&#x2011;" horiz-adv-x="724" d="M123 489l35 209h643l-35 -209h-643z" />
<glyph unicode="&#x2012;" horiz-adv-x="724" d="M123 489l35 209h643l-35 -209h-643z" />
<glyph unicode="&#x2013;" horiz-adv-x="929" d="M123 483l33 211h968l-32 -211h-969z" />
<glyph unicode="&#x2014;" horiz-adv-x="1507" d="M123 487l35 211h1425l-35 -211h-1425z" />
<glyph unicode="&#x2018;" horiz-adv-x="536" d="M311 1075l37 246q8 48 27.5 83.5t44.5 54.5t54 31t56 14.5t49.5 3t36.5 -1.5l13 -3l-17 -98q-23 0 -39 -6.5t-23.5 -19.5t-10 -21t-4.5 -21l-9 -49h25q24 0 36.5 -13t8.5 -40l-25 -160q-9 -59 -65 -59h-154q-52 0 -41 59z" />
<glyph unicode="&#x2019;" horiz-adv-x="536" d="M313 1020l15 98q23 0 39 6.5t23.5 19.5t10.5 21t5 21l8 47h-25q-23 0 -36 14.5t-9 40.5l27 160q9 59 63 59h154q54 0 43 -59l-39 -246q-8 -48 -27.5 -83.5t-45 -54.5t-54 -31t-55 -14.5t-48.5 -3t-36 2.5z" />
<glyph unicode="&#x201a;" horiz-adv-x="536" d="M115 -215l16 98q23 -1 39 5.5t23.5 20t10.5 22t5 22.5l8 45h-24q-24 0 -37 14t-9 41l27 162q9 59 64 59h153q27 0 37.5 -17t5.5 -42l-39 -248q-11 -65 -44 -108t-72 -57.5t-76.5 -19.5t-62.5 -1z" />
<glyph unicode="&#x201c;" horiz-adv-x="860" d="M299 1073l37 246q8 48 27 83.5t44 54.5t53.5 31t55.5 14.5t49 3t35 -1.5l14 -3l-14 -98q-23 1 -39 -5.5t-23.5 -19.5t-10.5 -21.5t-5 -21.5l-8 -49h25q24 0 36.5 -13t8.5 -40l-25 -160q-9 -59 -65 -59h-154q-52 0 -41 59zM647 1073l39 246q8 48 27 83.5t44.5 54.5t54 31 t55.5 14.5t49 3t36 -1.5l13 -3l-15 -98q-68 2 -80 -68l-6 -49h25q23 0 36 -13.5t9 -39.5l-25 -160q-9 -59 -65 -59h-154q-50 0 -43 59z" />
<glyph unicode="&#x201d;" horiz-adv-x="860" d="M299 1018l16 100q23 -1 39 5.5t23.5 19t10.5 21.5t5 22l6 45h-22q-24 0 -37.5 14t-9.5 41l26 162q9 59 64 59h153q53 0 45 -59l-40 -248q-8 -48 -27 -83.5t-44.5 -54.5t-54 -31t-55.5 -14.5t-49 -3t-36 2.5zM649 1018l17 100q22 -1 37.5 5.5t22.5 19t10 21.5t5 22l9 45 h-25q-23 0 -36 14.5t-9 40.5l27 162q9 59 63 59h154q27 0 37.5 -17t5.5 -42l-39 -248q-8 -48 -27 -83.5t-44.5 -54.5t-54 -31t-55.5 -14.5t-49 -3t-36 2.5z" />
<glyph unicode="&#x201e;" horiz-adv-x="858" d="M102 -213l17 98q22 -1 37.5 5.5t23 19.5t10.5 21.5t5 21.5l8 47h-25q-23 0 -36 14.5t-9 40.5l27 160q9 59 63 59h154q54 0 43 -59l-39 -246q-8 -48 -27 -83.5t-44.5 -54.5t-54 -31t-55.5 -14.5t-49 -3t-35 1.5zM453 -213l14 98q23 -1 39 5.5t23.5 19.5t10.5 21.5t5 21.5 l8 47h-25q-23 0 -36 14.5t-9 40.5l27 160q9 59 63 59h154q54 0 43 -59l-39 -246q-8 -48 -27.5 -83.5t-44.5 -54.5t-53.5 -31t-55.5 -14.5t-48.5 -3t-35.5 1.5z" />
<glyph unicode="&#x2022;" horiz-adv-x="630" d="M254 674l33 213q5 33 26 52t54 19h200q69 0 60 -71l-33 -213q-11 -66 -84 -66h-201q-31 0 -45.5 17.5t-9.5 48.5z" />
<glyph unicode="&#x2026;" horiz-adv-x="1589" d="M283 47l24 160q7 51 58 51h151q52 0 43 -51l-24 -160q-10 -47 -60 -47h-151q-22 0 -33 12.5t-8 34.5zM840 47l24 160q7 51 58 51h151q52 0 43 -51l-24 -160q-10 -47 -60 -47h-151q-22 0 -33 12.5t-8 34.5zM1397 47l24 160q7 51 58 51h151q52 0 43 -51l-24 -160 q-10 -47 -60 -47h-151q-22 0 -33 12.5t-8 34.5z" />
<glyph unicode="&#x202f;" horiz-adv-x="382" />
<glyph unicode="&#x2039;" horiz-adv-x="598" d="M53 725l488 416l121 -140l-334 -286l241 -283l-151 -133z" />
<glyph unicode="&#x203a;" horiz-adv-x="733" d="M201 440l336 287l-240 283l152 131l360 -422l-490 -420z" />
<glyph unicode="&#x205f;" horiz-adv-x="478" />
<glyph unicode="&#x20ac;" horiz-adv-x="1452" d="M125 516l20 123l168 16l27 164l-164 17l19 114l167 21q26 167 76 267q141 278 506 278q87 0 246.5 -20.5t265.5 -49.5l-29 -176q-307 28 -475 28q-60 0 -107.5 -9.5t-81 -23t-59.5 -40t-41.5 -49.5t-28.5 -62t-19 -67t-15 -76l477 -17l-18 -123l-481 -12l-27 -164 l477 -16l-20 -123q-31 -1 -81.5 -2t-157 -4t-176 -6t-67.5 -4q-8 -48 -8.5 -87.5t6.5 -69t18.5 -52.5t30.5 -39t40 -27t49 -17t55.5 -8.5t60.5 -2.5q84 0 207.5 10.5t204.5 20.5l82 10l-27 -172q-227 -78 -543 -78q-40 0 -76.5 4t-87 16.5t-88.5 35.5t-79.5 60.5t-60 91.5 t-30.5 129.5t9 174.5z" />
<glyph unicode="&#x2122;" horiz-adv-x="1292" d="M84 1348l25 151h559l-25 -151h-194l-89 -564h-167l88 564h-197zM606 784l182 715h164l76 -442l195 442h182l-35 -715h-168l27 392l-162 -392h-143l-60 392l-92 -392h-166z" />
<glyph unicode="&#xe000;" horiz-adv-x="1085" d="M0 0v1085h1085v-1085h-1085z" />
<glyph unicode="&#xfb03;" horiz-adv-x="2035" d="M174 893l27 160l209 34l28 183q6 42 17.5 81t36.5 84t59.5 77.5t91.5 54.5t127 22q149 0 274 -47l-22 -145h-207q-34 0 -58 -9t-37.5 -20t-24.5 -37.5t-15 -43t-12 -56.5l-25 -144h506l14 93q29 193 164 311t332 119q115 0 244.5 -12t189.5 -35l-22 -146h-365 q-268 0 -307 -246l-13 -84l715 -20l-168 -1067h-239l141 893h-483l-140 -893h-237l139 893h-502l-141 -893h-238l140 893h-199z" />
<glyph unicode="&#xfb04;" horiz-adv-x="2234" d="M174 893l27 160l209 34l28 183q6 42 17.5 81t36.5 84t59.5 77.5t91.5 54.5t127 22q149 0 274 -47l-22 -145h-207q-34 0 -58 -9t-38 -20.5t-24.5 -36.5t-15 -44t-11.5 -56l-25 -144h510l14 99q65 415 445 424l588 -2l-187 -1192q-10 -62 -11.5 -101t8.5 -63t25 -35.5 t44 -21.5q133 -43 147 -43l-24 -152h-195q-151 0 -211 88.5t-27 298.5l162 1030h-301q-98 0 -151 -48.5t-74 -182.5l-14 -99h264l-33 -194h-266l-142 -893h-237l141 893h-506l-141 -893h-238l140 893h-199z" />
</font>
</defs>
</svg>
