<?xml version="1.0" standalone="no"?>
<!DOCTYPE svg PUBLIC "-//W3C//DTD SVG 1.1//EN" "http://www.w3.org/Graphics/SVG/1.1/DTD/svg11.dtd" >
<svg xmlns="http://www.w3.org/2000/svg">
<metadata></metadata>
<defs>
<font id="exobold_italic" horiz-adv-x="1110" >
<font-face units-per-em="2048" ascent="1638" descent="-410" />
<missing-glyph horiz-adv-x="512" />
<glyph unicode="&#xfb01;" horiz-adv-x="1224" d="M94 868l29 185l178 34l23 115q29 191 161 298t342 110q90 2 250.5 -16t218.5 -42l-28 -172l-373 13q-47 2 -89.5 -7t-87 -32t-76.5 -73.5t-44 -123.5l-10 -70l706 -20l-168 -1067h-288l137 868h-424l-137 -868h-287l137 868h-170z" />
<glyph unicode="&#xfb02;" horiz-adv-x="1413" d="M168 868l29 183l180 36l16 89q13 87 38.5 155t61 114.5t77 79t94.5 50.5t106 25.5t117 7.5l596 -4l-187 -1172q-8 -50 -9 -85.5t2.5 -56.5t15 -35.5t23 -21t32.5 -14.5q113 -41 121 -41l-29 -178h-184q-72 0 -125.5 20t-92.5 65.5t-49.5 119.5t3.5 182l159 1002l-274 2 q-94 0 -145 -50t-72 -176l-8 -78h262l-35 -219h-264l-142 -868h-286l141 868h-172z" />
<glyph horiz-adv-x="0" />
<glyph unicode="&#xd;" horiz-adv-x="2048" />
<glyph unicode=" "  horiz-adv-x="512" />
<glyph unicode="&#x09;" horiz-adv-x="512" />
<glyph unicode="&#xa0;" horiz-adv-x="512" />
<glyph unicode="!" horiz-adv-x="555" d="M143 47l29 184q7 52 57 52h181q22 0 32 -14.5t7 -37.5l-29 -184q-6 -47 -53 -47h-181q-22 0 -34 13t-9 34zM219 406l146 1091h288l-200 -1091h-234z" />
<glyph unicode="&#x22;" horiz-adv-x="909" d="M328 1087l20 275l23 137h276l-22 -137l-64 -275h-233zM696 1087l21 275l22 137h277l-23 -137l-63 -275h-234z" />
<glyph unicode="#" horiz-adv-x="1476" d="M98 430l62 197h311l80 247h-313l63 197h320l143 428h197l-144 -428h252l141 428h197l-141 -428h350l-62 -197h-352l-80 -249h353l-60 -197h-364l-146 -428h-196l145 428l-254 2l-143 -430h-197l143 430h-305zM668 627l258 -2l80 249h-258z" />
<glyph unicode="$" horiz-adv-x="1165" d="M139 45l37 219q360 -18 475 -18q35 0 66.5 6t61.5 20t50.5 41t26.5 64l12 80q6 43 5 74.5t-29 49t-90 17.5h-189q-71 0 -126.5 17.5t-90 45t-58.5 66t-35 77t-15 82t-2 75.5t6 63l18 129q13 85 44.5 149t72.5 102.5t99.5 62.5t116 33t130.5 11l29 177h174l-27 -179 q186 -11 356 -57l-34 -223q-268 18 -457 18q-102 3 -153.5 -26t-67.5 -119l-10 -74q-7 -48 0 -80t40.5 -47.5t100.5 -15.5h190q72 0 127 -19.5t88 -54.5t53.5 -76.5t27 -91.5t5.5 -94.5t-8 -89.5l-16 -101q-15 -95 -51.5 -165.5t-81.5 -110.5t-107 -63t-118.5 -29.5 t-125.5 -5.5l-26 -168h-174l26 172q-195 10 -346 57z" />
<glyph unicode="%" horiz-adv-x="1974" d="M219 999l39 250q21 133 90.5 191.5t226.5 58.5h207q275 0 230 -280l-39 -250q-22 -138 -92.5 -196t-225.5 -58h-206q-132 0 -191.5 76t-38.5 208zM422 0l1153 1499h205l-1145 -1499h-213zM426 1016q-9 -55 7.5 -78t74.5 -23h149q64 0 87.5 22.5t33.5 78.5l27 182 q10 61 -6 80.5t-76 19.5h-152q-59 0 -84 -20.5t-34 -79.5zM1202 283l39 249q21 135 90 195.5t225 60.5h209q273 0 230 -284l-39 -250q-20 -137 -91.5 -193.5t-228.5 -56.5h-206q-133 0 -191 73t-37 206zM1407 305q-8 -57 8.5 -78.5t75.5 -21.5h147q65 0 89 22t32 78l29 182 q9 61 -7.5 81t-76.5 20h-150q-59 0 -84 -21t-34 -80z" />
<glyph unicode="&#x26;" horiz-adv-x="1376" d="M123 475q39 151 201 273l186 141l-82 143q-61 114 -40 213t94 167t163 81q85 12 165 13.5t155 -6.5t131.5 -18.5t130.5 -27.5l-33 -207h-338q-64 0 -101.5 -9t-55.5 -31t-10 -61t42 -99l277 -478l276 240l86 -119l-145 -248l-95 -90l203 -352h-313l-111 193l-153 -123 q-55 -45 -133.5 -65.5t-160.5 -14t-161 52.5t-127 127q-90 154 -51 305zM408 326q43 -64 110 -75.5t139 44.5l125 108l-159 269l-134 -99q-164 -126 -81 -247z" />
<glyph unicode="'" horiz-adv-x="458" d="M281 1087l20 275l23 137h288l-22 -137l-64 -275h-245z" />
<glyph unicode="(" horiz-adv-x="772" d="M194.5 342q2.5 144 26.5 293q23 141 65 276t90.5 237.5t101 193.5t100.5 154t87 108.5t62 67.5l23 22h272q-9 -10 -23.5 -29t-59 -81.5t-87 -129.5t-97.5 -169t-99.5 -203.5t-85 -229.5t-62.5 -252q-31 -196 -26 -363.5t35.5 -303.5t65.5 -231.5t63 -147.5l28 -52h-266 q-6 8 -17 24.5t-40.5 72.5t-54 119t-51 164t-40 208.5t-11 251.5z" />
<glyph unicode=")" horiz-adv-x="774" d="M-37 -498q16 19 44 53.5t103.5 148.5t139 234.5t130 301t97.5 358.5q30 188 24.5 352.5t-36 301.5t-65 235t-62.5 153l-27 54h267q6 -9 16.5 -26t39.5 -76t53.5 -123.5t51 -167t39.5 -208.5t11 -246t-25 -282q-24 -149 -65 -288t-87 -242t-96 -193.5t-95 -151 t-81.5 -104.5t-57.5 -64l-22 -20h-297z" />
<glyph unicode="*" horiz-adv-x="874" d="M260 1159l19 115l292 49l-18 -174zM328 852l94 281l164 -43l-154 -273zM541 956l118 146l199 -184l-80 -93zM571 1475l117 38l98 -249l-172 -68zM674 1169l270 162l49 -96l-229 -199z" />
<glyph unicode="+" horiz-adv-x="989" d="M164 608l39 242h303l47 305h242l-47 -305h307l-39 -242h-307l-50 -305h-241l49 305h-303z" />
<glyph unicode="," horiz-adv-x="532" d="M115 -180l14 98q21 0 36 5t22 14.5t9.5 16t4.5 17.5l6 29h-23q-23 0 -35 13t-8 38l27 178q9 56 61 56h172q46 0 39 -56l-39 -252q-8 -46 -27.5 -80t-45.5 -50.5t-55 -26.5t-57 -10t-50.5 1.5t-36.5 4.5z" />
<glyph unicode="-" horiz-adv-x="722" d="M125 473l37 242h643l-37 -242h-643z" />
<glyph unicode="." horiz-adv-x="536" d="M139 47l29 184q7 52 57 52h176q52 0 43 -52l-28 -184q-8 -47 -58 -47h-176q-22 0 -34 13t-9 34z" />
<glyph unicode="/" horiz-adv-x="933" d="M8 -147l848 1724h297l-848 -1724h-297z" />
<glyph unicode="0" horiz-adv-x="1288" d="M164 365l121 757q31 190 132 283.5t281 93.5h336q80 0 142.5 -20t100 -55t61.5 -81.5t27.5 -99t-3.5 -108.5l-123 -770q-30 -184 -127 -274.5t-272 -90.5h-336q-179 0 -273.5 93.5t-66.5 271.5zM455 368q0 -20 2.5 -34t9.5 -25.5t13.5 -19t18.5 -12.5t20.5 -7.5t23 -4 t23.5 -1.5h24h198q75 0 116 33t54 113l109 680q12 76 -15.5 110.5t-101.5 34.5h-215q-144 0 -170 -145l-106 -678q-4 -24 -4 -44z" />
<glyph unicode="1" horiz-adv-x="757" d="M242 1143l28 186q64 0 169 59.5t149 110.5h282l-235 -1499h-287l193 1204q-46 -32 -132 -46.5t-167 -14.5z" />
<glyph unicode="2" horiz-adv-x="1200" d="M78 0l39 252q80 48 178 114t223 160t227.5 183.5t178 183.5t86.5 162q17 106 -34 152t-185 46h-531l35 213q163 28 299.5 41t320.5 13q88 0 158.5 -26.5t115 -72.5t74 -108t34.5 -133.5t-3 -149.5q-11 -89 -69.5 -188.5t-123.5 -173t-170.5 -163t-157 -128t-136.5 -98.5 l-21 -15h551l-43 -264h-1046z" />
<glyph unicode="3" horiz-adv-x="1193" d="M66 43l34 209h521q108 0 164 29t67 110l10 66q4 24 4 43.5t-2 34t-10 26t-14.5 19t-22 13t-25.5 8.5t-31 5.5t-34 3.5t-39 2l-405 17l39 231l409 19q110 5 161.5 36.5t63.5 110.5l13 72q6 37 -1.5 63.5t-22.5 41t-42 23t-53 11t-62 2.5h-546l32 207q89 29 205.5 43.5 t228 14.5t238.5 -1q161 -3 251.5 -111t64.5 -272l-19 -108q-20 -116 -72 -184t-131 -83q76 -28 102.5 -116t6.5 -211l-14 -88q-53 -344 -443 -344h-75.5h-79.5t-71 0.5t-77 2.5t-67 4.5t-72 7t-61.5 10t-65.5 14t-57 18.5z" />
<glyph unicode="4" horiz-adv-x="1269" d="M102 459l699 1040h319l-590 -901h363l55 342l92 158h222l-80 -500h151l-35 -221l-157 -49l-51 -324h-289l49 324h-698z" />
<glyph unicode="5" horiz-adv-x="1220" d="M125 41l37 225h577q150 0 170 146l21 131q24 151 -113 151h-188q-57 0 -96.5 -29.5t-49.5 -91.5h-272l192 926h912l-43 -264h-633l-70 -338q60 43 160 51q66 5 211 -2q157 -7 230 -115.5t51 -273.5l-33 -229q-13 -82 -44.5 -143t-72 -97t-95.5 -58.5t-108.5 -30 t-117.5 -7.5q-203 -2 -318.5 6.5t-306.5 42.5z" />
<glyph unicode="6" horiz-adv-x="1245" d="M193.5 477.5q1.5 143.5 31.5 331.5q106 668 467 696q148 13 323.5 0t321.5 -41l-34 -217h-512q-52 0 -94.5 -25t-69.5 -61.5t-48.5 -91.5t-32 -100t-20.5 -101q177 41 420 41q71 0 125 -14.5t88 -42t55.5 -62.5t29 -78.5t7.5 -85.5t-8 -89l-35 -234q-15 -91 -50.5 -152.5 t-92 -94t-121 -45.5t-151.5 -13h-291q-71 0 -125.5 22t-98.5 78t-65 146t-19.5 233.5zM474 454q-2 -88 34.5 -141t114.5 -53h163q60 0 99.5 27t50.5 102l22 137q13 78 -7.5 104.5t-94.5 26.5h-364q-16 -115 -18 -203z" />
<glyph unicode="7" horiz-adv-x="1134" d="M242 1235l43 264h964l56 -131l-717 -1368h-314l656 1235h-688z" />
<glyph unicode="8" horiz-adv-x="1275" d="M170 367l23 149q15 92 70 147t138 66q-164 73 -125 315l23 134q13 83 41.5 143t66.5 96t93 57t110 28t127 7h310q170 0 249 -98t50 -281l-17 -108q-4 -24 -15 -53t-32.5 -64.5t-60.5 -63t-88 -36.5q44 -11 72 -47t37 -83t9.5 -90.5t-6.5 -80.5l-26 -176 q-11 -66 -30.5 -117.5t-42 -85.5t-56 -58t-62.5 -37t-71.5 -20t-73.5 -8.5t-78 -1.5h-307q-383 0 -328 367zM461 375q-10 -68 18.5 -94.5t108.5 -26.5h192q139 0 156 121l22 143q9 62 -18 94.5t-90 32.5h-209q-137 0 -158 -127zM561 1012q-11 -73 23 -100t96 -27h205 q80 0 110 32.5t41 94.5l15 96q14 91 -13 120t-98 29h-192q-85 0 -121.5 -31.5t-48.5 -117.5z" />
<glyph unicode="9" horiz-adv-x="1243" d="M147 41l35 217h512q52 0 95 25t70 61.5t48.5 91t33 100t20.5 101.5q-160 -40 -422 -43q-60 0 -108.5 12t-81 33t-56 51t-36 63.5t-17.5 73t-3.5 76t7.5 76.5l35 211q14 91 49 154t90.5 97.5t121 49t152.5 14.5h291q72 0 127.5 -24t99 -83t64 -152.5t18.5 -238t-32 -333.5 q-25 -157 -65 -276.5t-84.5 -191.5t-100.5 -119t-106 -65.5t-109 -23.5q-154 -12 -326.5 0t-321.5 43zM528 979q-14 -78 7 -104.5t96 -26.5h362q17 114 19 202t-35.5 141.5t-116.5 53.5h-160q-132 0 -151 -129z" />
<glyph unicode=":" horiz-adv-x="538" d="M139 47l29 184q7 52 57 52h176q52 0 43 -52l-28 -184q-8 -47 -58 -47h-176q-22 0 -34 13t-9 34zM266 852l31 184q7 51 57 51h176q50 0 41 -51l-28 -184q-8 -47 -58 -47h-176q-22 0 -34 13t-9 34z" />
<glyph unicode=";" horiz-adv-x="538" d="M115 -180l14 98q21 0 36 5t22 14.5t9.5 16t4.5 17.5l6 29h-23q-22 0 -34.5 14t-8.5 37l27 178q5 25 21 40.5t40 15.5h172q46 0 39 -56l-39 -252q-8 -46 -27.5 -80t-45.5 -50.5t-55 -26.5t-57 -10t-50.5 1.5t-36.5 4.5zM270 854l29 184q7 52 57 52h176q52 0 43 -52 l-28 -184q-8 -47 -60 -47h-176q-22 0 -33 12.5t-8 34.5z" />
<glyph unicode="&#x3c;" horiz-adv-x="921" d="M170 590l43 264l815 297l-43 -266l-502 -170l447 -178l-43 -263z" />
<glyph unicode="=" horiz-adv-x="956" d="M100 377l39 241h875l-39 -241h-875zM168 817l39 242h874l-39 -242h-874z" />
<glyph unicode="&#x3e;" horiz-adv-x="921" d="M121 274l43 269l508 190l-455 160l41 258l721 -297l-41 -264z" />
<glyph unicode="?" d="M227 1251l35 211q171 32 298.5 45t287.5 6q86 0 156 -23.5t114.5 -63.5t74.5 -92.5t35.5 -111.5t-1.5 -120l-25 -174q-15 -109 -55 -181t-107.5 -111t-155 -50.5t-206.5 -1.5l-14 -90q-15 -91 -15 -95h-231l61 400h236q179 7 203 168l18 108q13 95 -33 135.5t-166 40.5 h-510zM338 47l31 184q7 52 57 52h176q52 0 43 -52l-31 -184q-8 -47 -57 -47h-176q-22 0 -34 13t-9 34z" />
<glyph unicode="@" horiz-adv-x="1835" d="M96.5 -43q-3.5 57 7.5 117l156 993q36 217 163.5 313.5t358.5 96.5h746q108 0 182 -36t110 -100t47 -151.5t-7 -190.5l-101 -667q-8 -55 -22 -98.5t-42.5 -88t-69.5 -73.5t-107 -47.5t-152 -18.5h-190l-48 113q-46 -56 -110 -92t-164 -35q-125 1 -203 63t-109 193t1 334 q20 131 59 229.5t84.5 155.5t104.5 91.5t112 46t115 11.5q323 0 463 -135l-107 -743q41 0 64 5t44.5 24t34 55.5t21.5 99.5l90 600q6 43 6.5 76t-3.5 57t-15 40t-23.5 26t-32.5 15.5t-39.5 7t-47.5 1.5h-738q-56 0 -99 -15t-67.5 -36t-42 -54.5t-24.5 -58.5t-13 -59 l-153 -969q-9 -45 -4.5 -83.5t21 -67.5t57 -45.5t104.5 -16.5h791l-29 -174q-280 -55 -598 -55h-191q-81 0 -146.5 18t-109.5 49.5t-75 75t-43.5 95t-16 108.5zM759 375q0 -72 34.5 -113.5t107.5 -40.5q87 2 147.5 32.5t106.5 102.5l80 512q-103 21 -225 21q-45 0 -80 -15.5 t-67 -52.5t-55.5 -106.5t-37.5 -171.5q-11 -96 -11 -168z" />
<glyph unicode="A" horiz-adv-x="1409" d="M70 0l743 1499h326l250 -1499h-293l-60 332h-485l-164 -332h-317zM666 586h342l-84 544z" />
<glyph unicode="B" horiz-adv-x="1226" d="M125 0l237 1499h609q75 0 136 -16.5t101.5 -45.5t69.5 -69.5t41.5 -87.5t16.5 -100q1 -14 1 -28q0 -39 -8 -79q-17 -122 -86 -201t-170 -94q87 -14 141 -117q40 -76 40 -179q0 -36 -5 -76q-16 -119 -53 -198t-102 -125t-149.5 -64.5t-207.5 -18.5h-612zM453 254h313 q166 0 197 199q5 30 5 57q0 54 -21 94q-31 60 -116 60h-315zM557 905h303q76 0 123 45t59 125q5 29 5 53q1 54 -25 80q-36 37 -109 37h-303z" />
<glyph unicode="C" horiz-adv-x="1169" d="M182 538q2 116 23 250q24 150 56 260t81.5 201.5t116.5 148.5t160.5 87.5t214.5 30.5q279 0 512 -74l-35 -223q-3 0 -35 4t-75 8.5t-97.5 9.5t-119.5 8q-49 2 -93 2h-29h-7q-48 0 -72.5 -2.5t-66.5 -15.5t-68 -45t-57.5 -85t-55.5 -142t-43 -211q-23 -126 -24 -219 q0 -92 24 -152q46 -121 206 -127q18 0 36 -1q185 0 429 19l-35 -225q-110 -37 -230 -49q-96 -9 -230 -9q-35 0 -72 1q-111 1 -193 43.5t-129 114.5t-70 174q-22 96 -22 204v14z" />
<glyph unicode="D" horiz-adv-x="1341" d="M125 0l237 1499h607q90 0 161.5 -25t119 -67.5t80 -103.5t48 -129t19.5 -148q2 -36 2 -71q0 -45 -3 -87q-5 -76 -18 -159q-61 -381 -207 -545t-419 -164h-627zM451 256h301q263 0 340 489q20 115 22 201v28q0 67 -10 115q-12 57 -41.5 92t-69 49.5t-96.5 14.5h-289z" />
<glyph unicode="E" horiz-adv-x="1146" d="M162 307l141 893q15 91 51 153t89 93t109 43q48 10 106 10h20q504 -15 633 -33l-37 -237h-572q-36 0 -60.5 -9.5t-36.5 -28.5t-16.5 -35t-8.5 -42l-37 -229l579 -21l-39 -235l-583 -21l-39 -237q-2 -16 -2.5 -29.5t2.5 -23.5t5.5 -18t9.5 -13.5t11.5 -9.5t15 -6.5 t15.5 -4t17.5 -2t17 -0.5h18.5h551l-39 -235q-53 -7 -209 -16t-286 -14l-129 -5h-20q-35 0 -70 5q-44 7 -88 28.5t-74 55.5q-29 34 -43 92q-7 31 -8 66q0 31 6 66z" />
<glyph unicode="F" horiz-adv-x="1148" d="M119 0l186 1176q14 92 50.5 157.5t88.5 100.5q54 36 112 52q52 14 111 13h15q502 -15 633 -33l-37 -237h-571q-36 0 -61 -9.5t-37.5 -28t-17.5 -35.5t-9 -42l-37 -233l579 -21l-34 -237l-588 -19l-96 -604h-287z" />
<glyph unicode="G" horiz-adv-x="1255" d="M187 414q-3 46 -3 91q0 50 4 99q6 95 25 197q28 152 59 258.5t79 198t112 145.5t155.5 83.5t212.5 29.5q162 0 274 -15.5t275 -56.5l-34 -219q-282 37 -486 37q-38 0 -66 -3.5t-61 -16t-58 -34.5t-51.5 -60t-47 -91.5t-40 -130t-34.5 -174.5q-24 -146 -24 -249 q0 -15 1 -29q4 -110 52.5 -164t150.5 -54q40 0 82.5 10.5t74 25.5t58 30t39.5 26l14 10l45 263h-211l29 182q124 49 367 49q90 0 139 -4l-135 -848h-207l-64 109q-110 -113 -325 -121h-17q-89 0 -157 28q-76 31 -121 90t-72.5 136t-33.5 172z" />
<glyph unicode="H" horiz-adv-x="1304" d="M129 0l238 1499h286l-102 -643h514l102 643h287l-237 -1499h-287l94 594h-514l-94 -594h-287z" />
<glyph unicode="I" horiz-adv-x="524" d="M133 0l238 1499h286l-237 -1499h-287z" />
<glyph unicode="J" horiz-adv-x="729" d="M61 47l39 223q54 -6 100 -6h23q55 2 95 17.5t67 60t39 121.5l164 1036h286l-184 -1161q-7 -45 -15 -80t-24.5 -80t-46 -81.5t-69.5 -59.5q-83 -48 -221 -48q-12 0 -24 1q-156 4 -229 57z" />
<glyph unicode="K" horiz-adv-x="1269" d="M125 0l237 1499h275l-98 -627h112l473 627h349l-572 -772l334 -727h-328l-268 618h-139l-99 -618h-276z" />
<glyph unicode="L" horiz-adv-x="1083" d="M168 291l194 1208h285l-178 -1128q-2 -16 -2.5 -29.5t2.5 -23.5t5.5 -18t10 -13.5t12 -9.5t15 -6.5t15.5 -4t17.5 -2t17 -0.5h18.5h514l-41 -264h-619q-64 0 -115.5 16t-91 49t-55.5 91q-9 33 -9 72q0 30 5 63z" />
<glyph unicode="M" horiz-adv-x="1693" d="M100 0l371 1499h391l90 -1024l408 1024h403l-96 -1499h-285l72 1001l-405 -1001h-326l-92 1001l-242 -1001h-289z" />
<glyph unicode="N" horiz-adv-x="1370" d="M125 0l237 1499h287l426 -975l154 975h287l-238 -1499h-283l-430 963l-151 -963h-289z" />
<glyph unicode="O" horiz-adv-x="1363" d="M186 539q5 103 25 229q23 148 57 262t71 192t90.5 132t102 84.5t120 46.5t129.5 20t145 4q82 0 145.5 -7.5t126 -29.5t105.5 -59t77 -97.5t48 -143.5q12 -71 13 -166q0 -16 -1 -33q-2 -116 -25 -262q-22 -140 -53.5 -248.5t-68 -184t-87.5 -128.5t-100.5 -83.5 t-120 -47.5t-132 -22t-148.5 -5q-71 0 -127 5.5t-113.5 19.5t-99.5 40.5t-79.5 66.5t-59 99t-33.5 136q-8 54 -8 122q0 28 1 58zM476 561q-3 -35 -2 -66q0 -34 2 -63q6 -56 23 -88.5t51 -53t77.5 -27.5t109.5 -7q72 0 122.5 11.5t94.5 42t75 85.5t55.5 139t43.5 205 q14 87 20 155q5 52 5 96v25q-2 52 -9 89.5t-24.5 63t-36.5 40.5t-51 23.5t-62 11t-75 2.5q-47 0 -78 -2t-67 -10t-59 -22.5t-49 -39.5t-44 -62t-37 -89.5t-34 -121.5t-29 -159q-16 -105 -22 -178z" />
<glyph unicode="P" horiz-adv-x="1222" d="M119 0l237 1499h627q42 0 81 -7t79 -23t72 -42.5t59.5 -64.5t41.5 -89.5t18 -118.5q1 -16 2 -34q0 -54 -11 -116q-13 -85 -34 -153.5t-47 -114.5t-57.5 -81t-65.5 -53.5t-70.5 -31.5t-72 -15t-70.5 -4q-12 -1 -23 -1q-23 0 -44 3h-7q-60 3 -193 18.5t-141 20.5l-94 -592 h-287zM532 807h318q73 0 119 50t67 177q5 46 5 80q0 15 -1 27q-3 41 -23 64.5t-43 31.5t-54 8h-318z" />
<glyph unicode="Q" horiz-adv-x="1368" d="M190 516q2 114 25 258q23 147 57 261t71 191t91 131t101.5 83.5t120 45t129.5 19.5t145 4q82 0 145.5 -8t125.5 -30.5t105 -60t77 -98.5t49 -144q12 -72 12 -167v-33q-3 -117 -25 -263q-17 -109 -40 -198t-49 -157.5t-60.5 -122t-69 -90.5t-80.5 -63.5t-88 -42 t-99.5 -24.5t-107 -12t-116.5 -3q-82 0 -144.5 7.5t-126 28.5t-106.5 56.5t-78.5 94.5t-50.5 141q-13 71 -13 169v27zM480 561q-3 -35 -3 -66q0 -34 3 -63q7 -56 23.5 -88.5t50.5 -53t77.5 -27.5t109.5 -7q90 0 149 19t108 71.5t80 147t55 245.5q16 100 21 175q4 49 4 88 q0 22 -1 42q-3 54 -18 90.5t-34 58.5t-53.5 33.5t-68.5 15t-86 3.5q-54 0 -88 -3t-73 -14t-64 -32t-52 -57.5t-46 -91t-37.5 -130.5t-34.5 -178q-16 -105 -22 -178zM600 -68h164q34 -82 159 -82q68 0 164 25l-36 -231q-65 -11 -131 -12q-5 -1 -10 -1q-61 0 -118 19 q-60 21 -106 54.5t-70 92.5q-18 44 -18 98q0 18 2 37z" />
<glyph unicode="R" horiz-adv-x="1234" d="M119 0l237 1499h633q87 0 154 -27t116 -86.5t65 -153.5q8 -46 7 -102q0 -58 -8 -126q-10 -77 -29 -140t-40 -104t-49.5 -72.5t-51.5 -48t-53 -28t-46 -15t-38 -6.5l213 -590h-324l-176 573l-229 19l-94 -592h-287zM537 815h311q84 0 129 50.5t57 166.5q4 42 4 75 q0 63 -16 93q-26 44 -100 45h-318z" />
<glyph unicode="S" horiz-adv-x="1185" d="M145 45l35 225q67 -8 219 -15t287 -7q29 0 53 2.5t51.5 10.5t47 21.5t35 37.5t20.5 57l12 80q3 24 3 44q0 40 -14 63q-20 34 -103 34h-207q-74 0 -132.5 16t-95 42t-62 62t-37 72t-15.5 77q-3 30 -3 54q1 9 1 17q2 30 6 61l20 156q14 89 46 154.5t74 103.5t101 60.5 t116.5 30t131.5 7.5h32q330 0 527 -59l-37 -225q-87 6 -258 13t-227 7q-18 1 -34 1q-32 0 -54 -3q-32 -4 -62 -18.5t-46.5 -44.5t-24.5 -80l-10 -74q-5 -28 -5 -49.5t3 -37t12.5 -25.5t20.5 -16.5t29 -9.5t35.5 -4t43.5 -1h213q69 0 123 -18t87 -48.5t56 -70.5t30 -84t9 -90 q1 -10 1 -20q0 -35 -7 -67l-12 -135q-6 -73 -27 -130.5t-49.5 -95.5t-70.5 -65.5t-80.5 -42t-90 -22.5t-88 -10t-84.5 -2q-357 0 -545 61z" />
<glyph unicode="T" horiz-adv-x="1204" d="M250 1235l43 264h1108l-43 -264h-418l-195 -1235h-286l194 1235h-403z" />
<glyph unicode="U" horiz-adv-x="1337" d="M206 452.5q0 98.5 19 219.5l133 827h287l-135 -860q-15 -95 -15 -165q1 -90 25 -136q44 -84 203 -84t231.5 88.5t104.5 296.5l137 860h289l-131 -895q-23 -147 -65.5 -254.5t-99 -176t-136 -110t-166.5 -57.5t-201 -16q-70 0 -127 7.5t-113.5 27t-98 52t-75 85t-50 122.5 t-16.5 168.5z" />
<glyph unicode="V" horiz-adv-x="1402" d="M285 1499h301l151 -1122l525 1122h319l-733 -1499h-332z" />
<glyph unicode="W" horiz-adv-x="2068" d="M285 1499h299l153 -1108l492 1108h307l-193 -414l105 -700l496 1114h303l-686 -1499h-324l-94 616l-287 -616h-340z" />
<glyph unicode="X" horiz-adv-x="1316" d="M66 0l555 766l-322 733h313l205 -508l367 508h323l-569 -786l315 -713h-315l-197 487l-350 -487h-325z" />
<glyph unicode="Y" horiz-adv-x="1343" d="M285 1499h309l172 -717l428 717h328l-658 -1034l-73 -465h-287l74 465z" />
<glyph unicode="Z" horiz-adv-x="1140" d="M55 0l43 264l834 971h-682l43 264h1032l-43 -264l-813 -971h661l-43 -264h-1032z" />
<glyph unicode="[" horiz-adv-x="684" d="M119.5 -150q1.5 46 9.5 93l221 1374q19 120 61.5 191.5t128.5 110t224 38.5h164l-39 -242h-107q-63 0 -100 -35t-53 -127l-213 -1331q-18 -105 4 -141.5t92 -36.5h113l-39 -242h-183q-70 0 -122.5 20.5t-83.5 56t-50 79t-24 95t-3.5 97.5z" />
<glyph unicode="\" horiz-adv-x="919" d="M279 1577h286l303 -1724h-286z" />
<glyph unicode="]" horiz-adv-x="677" d="M-37 -498l39 242h107q63 0 101 35.5t52 126.5l211 1331q17 105 -6 141.5t-94 36.5h-107l39 242h168q65 0 117 -17.5t84.5 -47.5t55 -70.5t30.5 -87.5t9.5 -98t-7.5 -101l-209 -1391q-9 -62 -23.5 -109t-43.5 -93t-71.5 -75t-109.5 -47t-155 -18h-187z" />
<glyph unicode="^" horiz-adv-x="786" d="M250 1087l264 279h213l154 -279h-189l-82 132l-135 -132h-225z" />
<glyph unicode="_" horiz-adv-x="1378" d="M49 -2l39 242h1298l-38 -242h-1299z" />
<glyph unicode="`" horiz-adv-x="505" d="M248 1372h244l157 -285h-186z" />
<glyph unicode="a" d="M136 322q-2 24 -1 51q0 102 23 235q18 93 46 168t59 125.5t73 88.5t79 59t86 34t85.5 17.5t85.5 7.5q24 1 48 1q113 -1 237 -27q151 -32 223 -101l-144 -979h-221l-43 113q-40 -52 -136.5 -89.5t-193.5 -37.5q-82 0 -145.5 33.5t-108 108t-52.5 192.5zM423 380 q2 -72 32 -110.5t92 -38.5q83 0 139 25.5t111 77.5l77 524q-48 18 -110 24q-22 2 -42 1q-36 0 -65 -6q-33 -7 -54.5 -14t-50 -28t-47.5 -53.5t-38 -90t-31 -136.5q-13 -91 -13 -158v-17z" />
<glyph unicode="b" horiz-adv-x="1138" d="M94 0l254 1608h285l-90 -576q76 34 168.5 53t165.5 19q75 0 131 -22.5t89 -65t52 -96.5t22 -126q1 -25 1 -50q0 -46 -4 -92q-6 -72 -19 -158q-17 -103 -39 -180.5t-57 -142t-83 -104.5q-47 -41 -113 -61q-60 -19 -135 -18h-15q-90 3 -175 40t-135 83l-67 -111h-236z M428 299q93 -66 244 -66q78 0 121.5 70t70.5 246q18 111 18 182q0 45 -7 73q-19 74 -103 75q-145 0 -258 -41z" />
<glyph unicode="c" horiz-adv-x="1007" d="M146 310q-2 29 -2 61q0 91 18 207q16 99 38.5 177t47.5 133t57.5 94.5t65 63.5t73.5 37.5t78 18t84 4.5q95 0 241.5 -18t250.5 -50l-29 -178q-195 14 -377 14q-29 0 -46 -1t-39.5 -5.5t-35.5 -13.5t-30 -25t-28 -40.5t-23.5 -59.5t-23 -82t-20.5 -108q-14 -83 -16 -139 q0 -12 -1 -22q1 -41 7 -70q8 -36 29.5 -55.5t50.5 -26.5t74 -7q84 0 182.5 4.5t155.5 9.5l57 5l-29 -181q-117 -42 -230 -56q-93 -12 -227 -12q-29 0 -59 1q-80 1 -140.5 34t-103 104t-50.5 182z" />
<glyph unicode="d" horiz-adv-x="1126" d="M160 584q17 98 37 170.5t54.5 141.5t80.5 112.5t115 69.5t157 26q74 0 164 -19t156 -53l92 576h284l-256 -1608h-235l-35 111q-68 -50 -158 -86.5t-178 -36.5q-76 0 -134.5 32t-93 87.5t-51.5 131.5q-17 74 -17 158q0 89 18 187zM446 302q23 -70 97 -69q149 0 264 66 l84 539q-99 41 -248 41q-35 0 -61 -13t-51 -47t-45.5 -101t-36.5 -169q-14 -94 -14 -158q0 -56 11 -89z" />
<glyph unicode="e" horiz-adv-x="1079" d="M162 614q14 76 29.5 132.5t38 110.5t51 91.5t69 69t92.5 50.5t120 29.5t153 10.5h15q65 0 121 -8q62 -8 119 -29.5t96 -56.5q38 -34 59 -90q17 -45 17 -102q0 -13 -1 -27q-7 -102 -46 -178t-95.5 -118t-127.5 -67q-72 -24 -140 -30q-44 -4 -86 -4q-23 0 -46 1 q-64 3 -106.5 11t-61.5 16q-8 -47 -8 -82q0 -58 21 -84q34 -44 145 -45q23 -1 48 -1q168 0 396 36l-35 -205q-210 -63 -449 -63q-58 0 -118 4q-296 14 -296 380q0 108 26 248zM455 614q7 -1 20 -3t51 -4q22 -1 42 -1h30q34 2 78.5 10t77.5 23.5t59 45.5t33 71q3 19 3 35 q-1 45 -27 63q-34 24 -115 23h-13q-46 0 -81 -9t-58.5 -28t-39 -38.5t-26.5 -51.5t-17 -57t-14 -63q-2 -11 -3 -16z" />
<glyph unicode="f" horiz-adv-x="827" d="M168 868l29 183l180 36l22 146q33 209 123 293t273 84q67 0 137 -14t112 -35l-26 -172l-184 2q-31 1 -52 -3t-37 -17t-25 -26t-18 -45t-13.5 -57t-12.5 -78l-12 -78h262l-35 -219h-264l-142 -868h-286l141 868h-172z" />
<glyph unicode="g" horiz-adv-x="1138" d="M39 -508l31 191h460q80 0 135 49.5t70 144.5l31 199q-128 -78 -283 -78q-117 0 -192.5 44t-107 124t-36.5 192q-1 19 -1 39q0 96 20 209q41 264 162.5 382t314.5 118q154 0 320 -19.5t247 -42.5l-190 -1200q-34 -215 -158 -320q-103 -85 -263 -85q-35 0 -73 4zM433 343 q10 -105 99 -118q14 -2 29 -2q71 0 119 9t117 36l98 619h-219q-47 0 -84.5 -23t-59.5 -54t-39.5 -79t-25 -80.5t-14.5 -75.5q-21 -138 -21 -205q0 -15 1 -27z" />
<glyph unicode="h" horiz-adv-x="1126" d="M94 0l254 1604h285l-101 -633q51 34 79 50.5t78 40t101.5 34t110.5 10.5q274 0 273 -270q0 -51 -9 -111l-114 -725h-287l115 729q3 23 3 43q0 105 -100 105q-82 0 -142 -22t-136 -73l-123 -782h-287z" />
<glyph unicode="i" horiz-adv-x="462" d="M88 0l172 1087h287l-172 -1087h-287zM274 1247l27 183q7 51 57 51h215q22 0 32 -14q8 -11 7 -27v-10l-28 -183q-6 -47 -54 -47h-215q-22 0 -33 12q-9 10 -9 26q0 4 1 9z" />
<glyph unicode="j" horiz-adv-x="497" d="M18 -553l261 1640h286l-174 -1095q-26 -166 -61 -297.5t-101 -247.5h-211zM291 1247l31 183q7 51 57 51h215q22 0 32 -14q8 -11 8 -27q0 -5 -1 -10l-31 -183q-6 -47 -53 -47h-215q-22 0 -34 13q-10 10 -10 26q0 4 1 8z" />
<glyph unicode="k" horiz-adv-x="1085" d="M94 0l254 1602h287l-146 -910q82 29 164.5 87.5t150 141t91.5 166.5h305q-27 -95 -75.5 -180t-106 -145.5t-111.5 -102.5t-106 -69l334 -590h-320l-276 500l-78 -2l-80 -498h-287z" />
<glyph unicode="l" horiz-adv-x="628" d="M152 387l192 1217h287l-187 -1172q-8 -50 -9 -85.5t2.5 -56.5t15 -35.5t23 -21t32.5 -14.5q111 -41 119 -41l-27 -178h-184q-154 0 -225 93q-49 64 -49 180q0 52 10 114z" />
<glyph unicode="m" horiz-adv-x="1792" d="M94 0l172 1087h230l39 -116q6 4 31.5 20.5t32.5 20.5t29.5 18t32.5 18.5t31.5 15t35 14t35.5 10.5t41 9.5t42.5 4.5t48.5 2q97 0 163.5 -41t90.5 -109q105 69 202.5 109.5t215.5 40.5q113 0 179 -51t84 -135q9 -42 10 -92q0 -49 -9 -105l-115 -721h-286l114 725 q4 23 4 42q0 43 -18 69q-26 36 -82 36q-89 0 -152.5 -19t-126.5 -67q-10 -40 -10 -67l-115 -719h-286l114 725q4 22 4 42q0 45 -20 69q-28 36 -82 36q-82 0 -138 -20.5t-132 -71.5l-123 -780h-287z" />
<glyph unicode="n" horiz-adv-x="1126" d="M94 0l172 1087h230l39 -116q57 37 81.5 51.5t75 39.5t100.5 34.5t109 9.5q274 0 273 -270q0 -51 -9 -111l-114 -725h-287l115 729q3 23 3 43q0 105 -100 105q-82 0 -142 -22t-136 -73l-123 -782h-287z" />
<glyph unicode="o" horiz-adv-x="1140" d="M158 557q21 135 53 227.5t76 155.5t111 98t147.5 49.5t195.5 14.5q270 0 365 -145q62 -95 63 -262q0 -88 -18 -195q-17 -103 -39 -178t-55.5 -133t-75 -95t-101.5 -61t-131.5 -33.5t-168.5 -9.5q-274 0 -371 136q-66 92 -66 257q0 79 15 174zM429 390v-11q-1 -47 7 -78 q8 -34 33.5 -51.5t55.5 -23t81 -5.5q38 0 62 2t49.5 8.5t41.5 20t33 35t28.5 55t22.5 79t21 107.5q14 89 18 146q1 20 2 38q0 33 -4 60q-6 41 -28.5 61t-55.5 28.5t-87 8.5q-90 0 -135.5 -24t-75 -94.5t-54.5 -223.5q-14 -83 -15 -138z" />
<glyph unicode="p" horiz-adv-x="1138" d="M6 -553l260 1597q103 25 261 39.5t307 14.5q86 0 150.5 -30t102.5 -84t59 -128q21 -72 21 -157v-7q-1 -90 -14 -190q-20 -132 -54.5 -226.5t-91.5 -161.5t-139 -99.5t-192 -32.5q-78 0 -156 18.5t-129 58.5l-98 -612h-287zM422 250q77 -45 172 -45q28 0 57 4 q42 3 71.5 17.5t57.5 51t48.5 104t37.5 171.5q14 81 14 142q0 184 -128 184h-226z" />
<glyph unicode="q" horiz-adv-x="1132" d="M144 336q-1 21 -1 44q0 93 19 202q44 277 164.5 399.5t320.5 122.5q154 0 317 -19.5t242 -42.5l-252 -1595h-286l96 612q-128 -79 -285 -79q-115 0 -189.5 43.5t-107 122.5t-38.5 190zM429 344q1 -22 5 -48t13.5 -40.5t24.5 -27.5t37.5 -18t51.5 -5q69 0 117 9t117 36 l100 635h-225q-45 0 -81.5 -23t-58 -55t-39 -81.5t-25 -85t-15.5 -83.5q-8 -51 -12 -81.5t-7 -69.5q-3 -30 -3 -51v-11z" />
<glyph unicode="r" horiz-adv-x="854" d="M94 0l172 1087h242l22 -137q176 148 336 148q90 0 119 -13l-43 -276q-87 6 -156 6q-97 0 -166 -25t-131 -96l-108 -694h-287z" />
<glyph unicode="s" horiz-adv-x="1042" d="M115 45l28 178h512q72 0 84 70l11 55q5 36 -8.5 53t-55.5 17h-244q-148 0 -220 80q-54 60 -54 163q0 34 6 72l16 98q21 134 99 202.5t231 68.5q485 0 570 -55l-29 -181h-492q-50 0 -70.5 -20t-25.5 -55l-8 -54q-2 -13 -2.5 -23.5t2 -17.5t5 -12.5t8 -8.5t10 -4.5t12 -2 t12.5 -1t14 0t13 0.5h249q148 0 211 -88q47 -65 47 -151q0 -30 -6 -64l-18 -125q-10 -64 -34 -111.5t-54 -74.5t-70.5 -42.5t-75 -20.5t-77.5 -5q-517 0 -596 59z" />
<glyph unicode="t" horiz-adv-x="770" d="M158 870l24 160l185 60l96 303h239l-49 -303h244l-35 -220h-244l-67 -436q-10 -63 -11 -102.5t9.5 -62t23.5 -32.5t39 -20q111 -39 121 -39l-28 -180h-197q-143 0 -213 96q-49 66 -49 182q0 52 10 113l76 481h-174z" />
<glyph unicode="u" horiz-adv-x="1124" d="M124 242q2 58 11 123l115 722h287l-115 -729q-5 -29 -5 -52q1 -42 17 -62q26 -32 84 -31q84 0 145 21.5t134 72.5l123 780h286l-174 -1087h-229l-37 115q-98 -69 -176 -101t-191 -32q-74 0 -128 19t-84.5 53.5t-46.5 82.5q-15 44 -16 96v9z" />
<glyph unicode="v" horiz-adv-x="1093" d="M172 1087h303l117 -768l260 541q52 107 66 230h264q8 -36 8 -74q0 -112 -66 -246l-397 -770h-348z" />
<glyph unicode="w" horiz-adv-x="1695" d="M172 1087h299l117 -763l260 534q51 104 65 229h258q10 -41 10 -84q0 -82 -36 -167l-33 -78l80 -428l268 530q52 107 66 230h260q8 -40 8 -81q0 -114 -65 -239l-414 -770h-318l-77 418l-203 -418h-338z" />
<glyph unicode="x" horiz-adv-x="1171" d="M37 0l463 563l-291 524h340l153 -325l256 325h349l-465 -575l282 -512h-331l-154 313l-248 -313h-354z" />
<glyph unicode="y" horiz-adv-x="1153" d="M172 1087h297l68 -761q2 -14 7 -26t11 -20t15 -14t16.5 -9.5t17.5 -5.5t15.5 -3t13 -1.5t8.5 -0.5l277 616q38 91 51 228h266q9 -42 9 -86q0 -111 -58 -236l-350 -768q-62 -135 -135 -239t-137.5 -164t-138.5 -102t-126 -58.5t-111 -26.5v201q125 68 206 163.5t147 225.5 q-120 0 -194 68t-89 208z" />
<glyph unicode="z" horiz-adv-x="968" d="M78 2l35 240l579 604h-510l37 241h879l-37 -241l-557 -602h459l-37 -242h-848z" />
<glyph unicode="{" horiz-adv-x="655" d="M121 516l35 217q29 2 43 3t39.5 7t39.5 15.5t27 28t17 44.5l75 480q29 180 150 263t350 83l-37 -242q-87 0 -131 -48.5t-65 -180.5l-58 -371q-27 -174 -227 -197q86 -15 131 -67t33 -127l-74 -453q-20 -132 8 -186t117 -51l-37 -232q-97 0 -170.5 21.5t-117.5 60.5 t-70.5 92t-29.5 116.5t7 133.5l76 473q9 56 -29.5 89t-101.5 28z" />
<glyph unicode="|" horiz-adv-x="505" d="M109 -147l272 1724h242l-273 -1724h-241z" />
<glyph unicode="}" horiz-adv-x="651" d="M-37 -498l37 232q86 -1 130 48t63 165l71 440q12 79 71 128t154 67q-91 9 -134.5 58.5t-28.5 137.5l59 383q24 149 -3.5 203t-115.5 51l39 242q77 0 140 -16.5t105 -46t72 -70.5t42.5 -89.5t16 -103.5t-8.5 -112l-58 -420q-7 -56 33 -86.5t101 -30.5l-35 -215 q-149 4 -166 -100l-84 -510q-32 -192 -147 -273.5t-353 -81.5z" />
<glyph unicode="~" horiz-adv-x="856" d="M266 1200q37 35 60 54.5t59.5 45t74 37t77.5 11.5q46 0 105 -36t99 -36q92 -2 205 82l29 -123q-143 -148 -254 -148q-46 0 -114 36t-107 36q-23 0 -42.5 -2.5t-44 -12.5t-33 -13.5t-42 -22t-39.5 -21.5z" />
<glyph unicode="&#xa1;" horiz-adv-x="565" d="M45 -553l207 1094h235l-143 -1094h-299zM260 719l27 178q6 43 57 47h174q19 -2 31.5 -17t9.5 -36l-29 -172q-7 -48 -51 -53h-182q-43 0 -37 53z" />
<glyph unicode="&#xa2;" horiz-adv-x="993" d="M130 310q-9 111 15 268q23 138 58.5 236t75 153.5t95 86.5t107 39t123.5 7l33 198h178l-35 -204q176 -18 303 -62l-28 -176q-195 12 -377 12q-27 0 -41.5 -0.5t-36 -3.5t-33 -9t-28 -17t-26 -28t-22.5 -41t-22 -57t-19.5 -76t-19.5 -97q-14 -83 -16 -139t5.5 -92 t29.5 -55.5t50.5 -26.5t73.5 -7q84 0 183.5 4.5t157.5 9.5l57 5l-29 -181q-140 -62 -340 -69l-29 -183h-176l29 185q-81 1 -142 34t-103 104t-51 182z" />
<glyph unicode="&#xa3;" horiz-adv-x="1191" d="M78 0l35 221l143 43l59 379h-135l23 148l143 45l31 188q12 76 30 137.5t38 108t50 82t57.5 59.5t69 41t75 26t85.5 14t91.5 6t101.5 1q52 0 145.5 -8.5t160.5 -16.5l67 -8l-35 -229h-381q-75 0 -117 -7t-75 -31.5t-49.5 -67t-28.5 -117.5l-29 -178l448 -33l-24 -160h-455 l-59 -379h614l-43 -264h-1036z" />
<glyph unicode="&#xa4;" horiz-adv-x="919" d="M141 369l113 98q-38 85 -25 172q12 92 66 164l-82 94l115 100l78 -92q96 60 192 60q108 0 182 -58l111 99l92 -105l-117 -100q33 -81 21 -170q-18 -110 -86 -193l84 -96l-115 -104l-90 106q-72 -41 -170 -41q-99 0 -170 55l-109 -98zM393 637q-12 -70 28.5 -120 t108.5 -50q78 -1 129.5 46t65.5 120q14 68 -27 119t-114 51q-75 -1 -127.5 -49t-63.5 -117z" />
<glyph unicode="&#xa5;" horiz-adv-x="1298" d="M244 285l26 166h283l10 73h-280l26 168h207l-250 807h312l167 -672l416 672h342l-553 -807h234l-27 -168h-307l-10 -73h305l-27 -166h-303l-41 -285h-287l41 285h-284z" />
<glyph unicode="&#xa6;" horiz-adv-x="507" d="M109 -147l106 671h242l-107 -671h-241zM270 879l111 698h242l-111 -698h-242z" />
<glyph unicode="&#xa7;" horiz-adv-x="1105" d="M164 23l31 202h487q45 0 69 13.5t31 50.5l13 82q6 39 -11 53t-63 14h-250q-144 0 -221 70t-55 205l12 69q6 39 12.5 64t23 57t47.5 55t77 37q-116 68 -91 236l15 98q38 277 336 277q130 0 311 -11.5t254 -27.5l-31 -203h-493q-82 0 -93 -74l-12 -69q-9 -72 72 -72h252 q153 0 224.5 -71t51.5 -199l-10 -70q-30 -178 -156 -211q35 -8 56.5 -34t28 -61.5t6.5 -66t-5 -61.5l-16 -117q-14 -87 -43.5 -143.5t-75.5 -84t-94.5 -37t-118.5 -9.5q-146 0 -325.5 11t-245.5 28zM489 750q-8 -51 11 -66.5t69 -15.5h176q62 0 82 18.5t27 65.5l12 77 q9 48 -5 68.5t-77 20.5h-176q-58 0 -78 -19.5t-28 -73.5z" />
<glyph unicode="&#xa8;" horiz-adv-x="915" d="M266 1192q7 49 48.5 84t91.5 35q51 0 79.5 -34.5t20.5 -84.5t-48 -85.5t-89 -35.5q-51 0 -81 35.5t-22 85.5zM788 1192q7 49 48.5 84t91.5 35q51 0 80 -34.5t20 -84.5q-8 -50 -48 -85.5t-91 -35.5q-49 0 -79 35.5t-22 85.5z" />
<glyph unicode="&#xa9;" horiz-adv-x="1632" d="M185.5 597.5q1.5 88.5 15.5 178.5q19 124 47 223.5t78 195.5t117 160.5t168 104t227 39.5h465q85 0 151 -25t109 -67t72 -102.5t42 -127.5t15 -146.5t-4 -154t-19 -155.5q-55 -353 -205.5 -537t-382.5 -184h-465q-96 0 -171.5 33t-124 91t-80.5 133t-44 163.5t-10.5 177z M372 532.5q6 -104.5 32 -184t85 -126t144 -46.5h459q138 0 241 140t150 438q10 62 16 110t9 110t-1.5 108t-18.5 94t-38.5 78t-66 49.5t-97.5 19.5h-473q-58 0 -107 -14t-99.5 -52.5t-90 -101t-73.5 -164t-56 -237.5q-21 -117 -15 -221.5zM562.5 549.5q-8.5 88.5 8.5 216.5 q21 126 55.5 212t83 132t102.5 65t124 19q76 0 184 -12.5t185 -36.5l-23 -152q-176 25 -328 25q-83 0 -127 -62t-69 -215q-21 -133 6.5 -198.5t112.5 -65.5q151 0 340 33l-23 -152q-152 -57 -389 -57q-63 0 -112 25t-85.5 80t-45 143.5z" />
<glyph unicode="&#xaa;" horiz-adv-x="745" d="M131 537l21 143h657l-21 -143h-657zM190.5 987.5q-8.5 78.5 10.5 186.5q13 72 35.5 127.5t52.5 89.5t59.5 56t68.5 33t66.5 15t65.5 6q91 4 200.5 -19t155.5 -69l-94 -645h-145l-33 98q-28 -46 -97.5 -77t-136.5 -31q-49 0 -92 24.5t-75.5 75.5t-41 129.5zM399 1143 q-34 -195 74 -195q106 0 178 82l41 289q-34 12 -82.5 15.5t-77.5 -3.5q-23 -6 -39.5 -14t-36.5 -27t-34.5 -56t-22.5 -91z" />
<glyph unicode="&#xab;" horiz-adv-x="1183" d="M193 725l487 416l135 -158l-323 -276l237 -277l-172 -131zM633 725l487 416l135 -158l-323 -276l237 -277l-172 -131z" />
<glyph unicode="&#xac;" horiz-adv-x="1009" d="M145 492l37 229h875q-9 -58 -32 -197.5t-32 -197.5h-231l26 166h-643z" />
<glyph unicode="&#xad;" horiz-adv-x="722" d="M115 473l39 242h643l-39 -242h-643z" />
<glyph unicode="&#xae;" horiz-adv-x="1632" d="M185.5 597.5q1.5 88.5 15.5 178.5q19 124 47 223.5t78 195.5t117 160.5t168 104t227 39.5h465q85 0 151 -25t109 -67t72 -102.5t42 -127.5t15 -146.5t-4 -154t-19 -155.5q-55 -353 -205.5 -537t-382.5 -184h-465q-96 0 -171.5 33t-124 91t-80.5 133t-44 163.5t-10.5 177z M372 532.5q6 -104.5 32 -184t85 -126t144 -46.5h459q138 0 241 140t150 438q10 62 16 110t9 110t-1.5 108t-18.5 94t-38.5 78t-66 49.5t-97.5 19.5h-473q-58 0 -107 -14t-99.5 -52.5t-90 -101t-73.5 -164t-56 -237.5q-21 -117 -15 -221.5zM551 313l139 875h375 q51 0 93 -12.5t79 -42t53 -87t4 -137.5q-8 -59 -23.5 -103t-33.5 -70t-44.5 -45t-48 -27.5t-52.5 -16.5l127 -334h-203l-119 326l-102 25l-56 -351h-188zM815 799h156q79 0 102 20t35 94q10 63 -15 81t-89 18h-154z" />
<glyph unicode="&#xaf;" horiz-adv-x="751" d="M250 1087l26 162h598l-26 -162h-598z" />
<glyph unicode="&#xb0;" horiz-adv-x="563" d="M279 1294q4 87 67 147t150 60t144.5 -60t53.5 -147t-66 -144.5t-149 -57.5t-145.5 57.5t-54.5 144.5zM395 1294q-1 -37 25 -63.5t63 -26.5q38 0 64 26.5t28 63.5q3 37 -21 64.5t-62 27.5q-37 0 -66.5 -27.5t-30.5 -64.5z" />
<glyph unicode="&#xb1;" horiz-adv-x="1024" d="M111 143l36 242h852l-36 -242h-852zM213 782l37 242h303l49 303h242l-49 -303h307l-37 -242h-307l-49 -307h-242l49 307h-303z" />
<glyph unicode="&#xb2;" horiz-adv-x="815" d="M137 727l31 197q49 31 74 47t89.5 58.5t105 73t97.5 76t91.5 81t61.5 75.5t32 72q10 67 -20 92t-117 25h-326q-1 0 6 42t14 83.5t7 40.5q116 21 200 30t205 9q74 0 130.5 -29.5t86 -76.5t41 -101.5t2.5 -108.5q-9 -56 -37 -113.5t-60 -100t-80 -90t-79.5 -73.5t-76.5 -61 t-54 -43h307l-32 -205h-699z" />
<glyph unicode="&#xb3;" horiz-adv-x="833" d="M141 760l27 162l328 2q75 0 110.5 17.5t42.5 66.5l4 26q7 51 -21.5 69.5t-94.5 20.5l-252 11l26 178l258 10q72 3 106 21.5t40 62.5l4 25q9 47 -21 65.5t-100 18.5h-346l27 161q88 29 193 37t251 4q116 -1 177.5 -76t43.5 -184l-10 -61q-12 -75 -49 -123t-94 -60 q54 -21 73 -79t8 -131l-8 -50q-38 -238 -309 -235h-46.5h-47.5t-43.5 0.5t-45.5 1t-40.5 2t-42.5 3.5t-38 5t-40 7t-34.5 9.5t-35.5 12.5z" />
<glyph unicode="&#xb4;" horiz-adv-x="497" d="M203 1087l231 285h250l-295 -285h-186z" />
<glyph unicode="&#xb5;" horiz-adv-x="1202" d="M53 -553l144 918l116 722h287l-117 -729q-24 -145 97 -145q85 0 144.5 21t133.5 73l125 780h287l-172 -1087h-232l-39 115q-11 -6 -52.5 -29t-58 -31t-49 -23t-60.5 -22.5t-58 -11.5q-64 -9 -121 10l-88 -561h-287z" />
<glyph unicode="&#xb6;" horiz-adv-x="1179" d="M219.5 973q-3.5 38 3.5 74l29 190q10 62 34 109t57.5 75.5t79 46.5t92 24.5t103.5 6.5h771l-35 -213h-107l-205 -1286h-206l204 1290h-137l-291 -1843h-209l209 1315q-2 -1 -15 -7l-26 -12t-35 -11t-44 -5q-55 0 -100.5 13.5t-75.5 37t-52.5 55t-31.5 67t-12.5 73.5z M434 1047q-6 -39 0.5 -63.5t25.5 -34.5t35 -12.5t42 -2.5h102l57 360h-100q-75 0 -103 -27.5t-38 -95.5z" />
<glyph unicode="&#xb7;" horiz-adv-x="536" d="M240 696l30 185q7 51 58 51h176q52 0 43 -51l-31 -185q-8 -47 -57 -47h-176q-22 0 -34 13t-9 34z" />
<glyph unicode="&#xb8;" horiz-adv-x="497" d="M20 -365l21 123l94 31q43 18 57.5 44.5t24.5 90.5h195q-25 -159 -85.5 -224t-191.5 -65h-115z" />
<glyph unicode="&#xb9;" horiz-adv-x="571" d="M225 1442l23 151q51 0 132.5 44t113.5 79h217l-158 -989h-221l123 762q-60 -47 -230 -47z" />
<glyph unicode="&#xba;" horiz-adv-x="788" d="M158 541l22 141h660l-23 -141h-659zM231 1143q18 110 46 179t77 110.5t113.5 57t163.5 15.5q185 2 255.5 -91t35.5 -308q-31 -198 -115 -270t-285 -72q-183 0 -252.5 92t-38.5 287zM432.5 1039q0.5 -34 6 -53.5t23.5 -29t36 -12t51 -2.5q42 -1 63 2.5t43 21t34.5 55 t23.5 103.5q8 49 11 80.5t0 55.5t-9 36t-22.5 19.5t-34.5 9.5t-50 2q-61 0 -89 -12.5t-46 -54t-33 -136.5q-8 -51 -7.5 -85z" />
<glyph unicode="&#xbb;" horiz-adv-x="1179" d="M150 459l325 284l-227 258l166 140l358 -420l-483 -422zM594 459l326 284l-228 258l164 140l361 -420l-484 -422z" />
<glyph unicode="&#xbc;" horiz-adv-x="1980" d="M225 1237l23 152q51 0 132.5 43.5t113.5 78.5h217l-158 -989h-221l123 762q-60 -47 -230 -47zM393 0l1092 1577h215l-1092 -1577h-215zM1149 295l461 690h241l-374 -575h223l33 211l67 100h164l-49 -311h100l-28 -174l-109 -35l-27 -199h-215l31 197h-473z" />
<glyph unicode="&#xbd;" horiz-adv-x="2076" d="M225 1237l23 152q51 0 132.5 43.5t113.5 78.5h217l-158 -989h-221l123 762q-60 -47 -230 -47zM381 0l1092 1577h215l-1092 -1577h-215zM1319 -2l31 197q55 34 89 56.5t107 71.5t123.5 89.5t106 89.5t87.5 94t38 82q10 67 -20.5 92t-117.5 25h-325q2 11 4.5 28t7.5 54 t9 61t5 23q113 20 197.5 29t208.5 9q59 0 107.5 -19.5t78.5 -51.5t50.5 -73t23.5 -84.5t-2 -86.5q-8 -56 -36 -113.5t-59 -99.5t-80.5 -90.5t-79 -73t-77.5 -62t-55 -42.5h309l-33 -205h-698z" />
<glyph unicode="&#xbe;" horiz-adv-x="2209" d="M141 555l27 162l328 2q75 0 110.5 17.5t42.5 66.5l4 26q7 51 -22 70t-94 21l-252 10l26 178l258 10q72 3 106 21.5t40 62.5l4 25q9 47 -21 65.5t-100 18.5h-346l27 162q88 29 192 36.5t252 3.5q116 -1 177.5 -76t43.5 -184l-10 -61q-12 -75 -49 -122.5t-94 -59.5 q54 -21 73 -79.5t8 -131.5l-8 -49q-38 -239 -309 -236h-46.5h-47.5t-43.5 0.5t-45.5 1t-40.5 2t-42.5 3.5t-38 5t-40 7t-34.5 9.5t-35.5 12.5zM598 0l1092 1577h215l-1092 -1577h-215zM1331 295l463 690h240l-377 -575h225l33 211l65 100h166l-49 -311h98l-26 -174l-109 -35 l-26 -199h-217l32 197h-475z" />
<glyph unicode="&#xbf;" horiz-adv-x="1105" d="M37 -123l22 150q34 214 160.5 293.5t364.5 60.5q0 1 15 91t15 93h232l-64 -399q-15 0 -68 0.5t-97 0.5t-68 -1q-178 -7 -205 -168l-16 -111q-15 -94 31 -134t165 -40h510l-33 -211q-174 -32 -300.5 -45t-286.5 -6q-106 0 -187 38t-125 100t-61 136.5t-4 151.5zM623 733 l28 185q9 47 58 47h178q22 0 33 -12.5t8 -34.5l-29 -185q-7 -51 -57 -51h-178q-48 0 -41 51z" />
<glyph unicode="&#xc0;" horiz-adv-x="1409" d="M70 0l743 1499h326l250 -1499h-293l-60 332h-485l-164 -332h-317zM666 586h342l-84 544zM688 1917h244l158 -285h-187z" />
<glyph unicode="&#xc1;" horiz-adv-x="1409" d="M70 0l743 1499h326l250 -1499h-293l-60 332h-485l-164 -332h-317zM666 586h342l-84 544zM903 1632l232 285h249l-294 -285h-187z" />
<glyph unicode="&#xc2;" horiz-adv-x="1409" d="M70 0l743 1499h326l250 -1499h-293l-60 332h-485l-164 -332h-317zM666 586h342l-84 544zM682 1632l264 277h213l154 -277h-185l-88 133l-147 -133h-211z" />
<glyph unicode="&#xc3;" horiz-adv-x="1409" d="M70 0l743 1499h326l250 -1499h-293l-60 332h-485l-164 -332h-317zM664 1745q151 143 270 143q51 -2 111.5 -36t93.5 -35q47 -1 110.5 25t93.5 52l29 -122q-39 -34 -58.5 -49.5t-57 -41.5t-71.5 -37.5t-69 -11.5q-51 1 -115.5 36.5t-101.5 35.5q-39 0 -78.5 -12t-57 -21.5 t-67.5 -38.5zM666 586h342l-84 544z" />
<glyph unicode="&#xc4;" horiz-adv-x="1409" d="M70 0l743 1499h326l250 -1499h-293l-60 332h-485l-164 -332h-317zM637 1753q7 51 47.5 85t91.5 34q50 0 79 -34t22 -85q-8 -50 -48.5 -85.5t-91.5 -35.5q-50 0 -79.5 36t-20.5 85zM666 586h342l-84 544zM1159 1753q7 51 47.5 85t91.5 34q50 0 79 -34t22 -85 q-8 -50 -48 -85.5t-91 -35.5q-50 0 -80 36t-21 85z" />
<glyph unicode="&#xc5;" horiz-adv-x="1409" d="M70 0l743 1499h133q-71 14 -115 70.5t-38 132.5q7 87 72.5 147t152.5 60t142 -60t48 -147q-6 -76 -56.5 -132.5t-123.5 -70.5h111l250 -1499h-293l-60 332h-485l-164 -332h-317zM666 586h342l-84 544zM913 1702q-3 -36 21 -61t61 -25t64.5 24.5t30.5 61.5t-20 62.5 t-60 25.5t-65.5 -25.5t-31.5 -62.5z" />
<glyph unicode="&#xc6;" horiz-adv-x="2080" d="M47 0l766 1178q51 78 106 135.5t108.5 91.5t111 56t113 29t114.5 10t115 -1q506 -15 635 -33l-37 -237h-574q-29 0 -50.5 -7.5t-33 -16t-20 -27t-11 -29t-6.5 -33.5l-38 -239l579 -23l-35 -236l-590 -18l-36 -231q-2 -16 -2.5 -29t2 -23t5.5 -18t9.5 -14t12 -10 t14.5 -6.5t15.5 -4t17.5 -2t17 -0.5h18h3h549l-37 -235q-53 -7 -208 -16t-284 -14l-128 -5q-45 -3 -89.5 3t-89.5 23.5t-77 46.5t-47.5 77t-6.5 110l23 147h-350l-264 -399h-320zM791 653h231l80 480z" />
<glyph unicode="&#xc7;" horiz-adv-x="1169" d="M182.5 538.5q1.5 115.5 22.5 249.5q24 150 56 260t81.5 201.5t116.5 148.5t160.5 87.5t214.5 30.5q279 0 512 -74l-35 -223q-3 0 -35 4t-75 8.5t-97.5 9.5t-119.5 8t-122 2h-7q-57 0 -86.5 -3.5t-78 -29t-78 -75.5t-62.5 -149t-56 -244q-46 -250 -1.5 -371t205.5 -127 q197 -2 465 18l-35 -225q-110 -37 -230.5 -48.5t-301.5 -8.5q-111 1 -193 43.5t-129 114.5t-70 174.5t-21.5 218zM360 -365l21 123l94 31q43 14 58.5 43t25.5 94h193q-25 -160 -85.5 -225.5t-191.5 -65.5h-115z" />
<glyph unicode="&#xc8;" horiz-adv-x="1146" d="M162 307l141 893q15 91 51 153t89 93t109 43t126 10q504 -15 633 -33l-37 -237h-572q-36 0 -60.5 -9.5t-36.5 -28.5t-16.5 -35t-8.5 -42l-37 -229l579 -21l-39 -235l-583 -21l-39 -237q-2 -16 -2.5 -29.5t2.5 -23.5t5.5 -18t9.5 -13.5t11.5 -9.5t15 -6.5t15.5 -4t17.5 -2 t17 -0.5h18.5h551l-39 -235q-53 -7 -209 -16t-286 -14l-129 -5q-46 -2 -90 5t-88 28.5t-74 55.5t-43.5 92t-1.5 132zM563 1905h244l158 -283h-187z" />
<glyph unicode="&#xc9;" horiz-adv-x="1146" d="M162 307l141 893q15 91 51 153t89 93t109 43t126 10q504 -15 633 -33l-37 -237h-572q-36 0 -60.5 -9.5t-36.5 -28.5t-16.5 -35t-8.5 -42l-37 -229l579 -21l-39 -235l-583 -21l-39 -237q-2 -16 -2.5 -29.5t2.5 -23.5t5.5 -18t9.5 -13.5t11.5 -9.5t15 -6.5t15.5 -4t17.5 -2 t17 -0.5h18.5h551l-39 -235q-53 -7 -209 -16t-286 -14l-129 -5q-46 -2 -90 5t-88 28.5t-74 55.5t-43.5 92t-1.5 132zM782 1622l230 283h252l-297 -283h-185z" />
<glyph unicode="&#xca;" horiz-adv-x="1146" d="M162 307l141 893q15 91 51 153t89 93t109 43t126 10q504 -15 633 -33l-37 -237h-572q-36 0 -60.5 -9.5t-36.5 -28.5t-16.5 -35t-8.5 -42l-37 -229l579 -21l-39 -235l-583 -21l-39 -237q-2 -16 -2.5 -29.5t2.5 -23.5t5.5 -18t9.5 -13.5t11.5 -9.5t15 -6.5t15.5 -4t17.5 -2 t17 -0.5h18.5h551l-39 -235q-53 -7 -209 -16t-286 -14l-129 -5q-46 -2 -90 5t-88 28.5t-74 55.5t-43.5 92t-1.5 132zM563 1622l264 279h213l156 -279h-188l-84 131l-133 -131h-228z" />
<glyph unicode="&#xcb;" horiz-adv-x="1146" d="M162 307l141 893q15 91 51 153t89 93t109 43t126 10q504 -15 633 -33l-37 -237h-572q-36 0 -60.5 -9.5t-36.5 -28.5t-16.5 -35t-8.5 -42l-37 -229l579 -21l-39 -235l-583 -21l-39 -237q-2 -16 -2.5 -29.5t2.5 -23.5t5.5 -18t9.5 -13.5t11.5 -9.5t15 -6.5t15.5 -4t17.5 -2 t17 -0.5h18.5h551l-39 -235q-53 -7 -209 -16t-286 -14l-129 -5q-46 -2 -90 5t-88 28.5t-74 55.5t-43.5 92t-1.5 132zM494 1726q7 49 48.5 84t92.5 35q49 0 78.5 -34.5t21.5 -84.5q-7 -49 -48 -84.5t-91 -35.5t-79.5 35.5t-22.5 84.5zM1016 1726q7 49 48.5 84t92.5 35 q49 0 78.5 -34.5t21.5 -84.5q-7 -49 -48 -84.5t-91 -35.5t-79.5 35.5t-22.5 84.5z" />
<glyph unicode="&#xcc;" horiz-adv-x="524" d="M133 0l238 1499h286l-237 -1499h-287zM227 1917h244l158 -285h-187z" />
<glyph unicode="&#xcd;" horiz-adv-x="524" d="M133 0l238 1499h286l-237 -1499h-287zM442 1632l232 285h250l-295 -285h-187z" />
<glyph unicode="&#xce;" horiz-adv-x="524" d="M133 0l238 1499h286l-237 -1499h-287zM219 1632l264 277h213l156 -277h-186l-86 133l-150 -133h-211z" />
<glyph unicode="&#xcf;" horiz-adv-x="524" d="M133 0l238 1499h286l-237 -1499h-287zM174 1753q7 50 48 84.5t91 34.5q51 0 80 -34t21 -85q-8 -50 -48.5 -85.5t-91.5 -35.5q-49 0 -78.5 35.5t-21.5 85.5zM696 1753q7 50 48.5 84.5t91.5 34.5q51 0 79.5 -34t20.5 -85q-8 -50 -48 -85.5t-91 -35.5q-49 0 -79 35.5 t-22 85.5z" />
<glyph unicode="&#xd0;" horiz-adv-x="1335" d="M100 696l23 135h133l104 668h617q90 0 161 -26t117.5 -70t78.5 -106.5t46.5 -131t18 -149t-2 -154.5t-18.5 -153q-63 -369 -206 -539t-410 -170h-639l110 696h-133zM451 256h307q255 0 332 489q21 146 23 242.5t-24 153.5t-68 80.5t-108 23.5h-305l-65 -414h227l-20 -135 h-230z" />
<glyph unicode="&#xd1;" horiz-adv-x="1370" d="M125 0l237 1499h287l426 -975l154 975h287l-238 -1499h-283l-430 963l-151 -963h-289zM618 1741q151 143 271 143q50 -2 110.5 -37t94.5 -35q46 -3 109 23.5t95 52.5l29 -121q-46 -41 -77.5 -66t-81.5 -49t-95 -24q-52 1 -117 36.5t-102 35.5q-39 -1 -77.5 -12.5t-59 -22 t-66.5 -37.5z" />
<glyph unicode="&#xd2;" horiz-adv-x="1363" d="M186 539q5 103 25 229q23 148 57 262t71 192t90.5 132t102 84.5t120 46.5t129.5 20t145 4q82 0 145.5 -7.5t126 -29.5t105.5 -59t77 -97.5t48.5 -143.5t12 -199t-25.5 -262q-22 -140 -53.5 -248.5t-68 -184t-87.5 -128.5t-100.5 -83.5t-120 -47.5t-132 -22t-148.5 -5 q-71 0 -127 5.5t-113.5 19.5t-99.5 40.5t-79.5 66.5t-59 99t-33.5 136t-7 180zM476 561q-6 -73 0.5 -129t23 -88.5t50.5 -53t77.5 -27.5t109.5 -7q72 0 122.5 11.5t94.5 42t75 85.5t55.5 139t43.5 205q14 87 20.5 155.5t4.5 120.5t-9 89.5t-24.5 63t-36.5 40.5t-51 23.5 t-62 11t-75 2.5q-47 0 -78 -2t-67 -10t-59 -22.5t-49 -39.5t-44 -62t-37 -89.5t-34 -121.5t-29 -159q-16 -105 -22 -178zM637 1917h244l157 -285h-186z" />
<glyph unicode="&#xd3;" horiz-adv-x="1363" d="M186 539q5 103 25 229q23 148 57 262t71 192t90.5 132t102 84.5t120 46.5t129.5 20t145 4q82 0 145.5 -7.5t126 -29.5t105.5 -59t77 -97.5t48.5 -143.5t12 -199t-25.5 -262q-22 -140 -53.5 -248.5t-68 -184t-87.5 -128.5t-100.5 -83.5t-120 -47.5t-132 -22t-148.5 -5 q-71 0 -127 5.5t-113.5 19.5t-99.5 40.5t-79.5 66.5t-59 99t-33.5 136t-7 180zM476 561q-6 -73 0.5 -129t23 -88.5t50.5 -53t77.5 -27.5t109.5 -7q72 0 122.5 11.5t94.5 42t75 85.5t55.5 139t43.5 205q14 87 20.5 155.5t4.5 120.5t-9 89.5t-24.5 63t-36.5 40.5t-51 23.5 t-62 11t-75 2.5q-47 0 -78 -2t-67 -10t-59 -22.5t-49 -39.5t-44 -62t-37 -89.5t-34 -121.5t-29 -159q-16 -105 -22 -178zM852 1632l231 285h252l-297 -285h-186z" />
<glyph unicode="&#xd4;" horiz-adv-x="1363" d="M186 539q5 103 25 229q23 148 57 262t71 192t90.5 132t102 84.5t120 46.5t129.5 20t145 4q82 0 145.5 -7.5t126 -29.5t105.5 -59t77 -97.5t48.5 -143.5t12 -199t-25.5 -262q-22 -140 -53.5 -248.5t-68 -184t-87.5 -128.5t-100.5 -83.5t-120 -47.5t-132 -22t-148.5 -5 q-71 0 -127 5.5t-113.5 19.5t-99.5 40.5t-79.5 66.5t-59 99t-33.5 136t-7 180zM476 561q-6 -73 0.5 -129t23 -88.5t50.5 -53t77.5 -27.5t109.5 -7q72 0 122.5 11.5t94.5 42t75 85.5t55.5 139t43.5 205q14 87 20.5 155.5t4.5 120.5t-9 89.5t-24.5 63t-36.5 40.5t-51 23.5 t-62 11t-75 2.5q-47 0 -78 -2t-67 -10t-59 -22.5t-49 -39.5t-44 -62t-37 -89.5t-34 -121.5t-29 -159q-16 -105 -22 -178zM631 1632l264 277h213l154 -277h-185l-86 133l-149 -133h-211z" />
<glyph unicode="&#xd5;" horiz-adv-x="1363" d="M186 539q5 103 25 229q23 148 57 262t71 192t90.5 132t102 84.5t120 46.5t129.5 20t145 4q82 0 145.5 -7.5t126 -29.5t105.5 -59t77 -97.5t48.5 -143.5t12 -199t-25.5 -262q-22 -140 -53.5 -248.5t-68 -184t-87.5 -128.5t-100.5 -83.5t-120 -47.5t-132 -22t-148.5 -5 q-71 0 -127 5.5t-113.5 19.5t-99.5 40.5t-79.5 66.5t-59 99t-33.5 136t-7 180zM476 561q-6 -73 0.5 -129t23 -88.5t50.5 -53t77.5 -27.5t109.5 -7q72 0 122.5 11.5t94.5 42t75 85.5t55.5 139t43.5 205q14 87 20.5 155.5t4.5 120.5t-9 89.5t-24.5 63t-36.5 40.5t-51 23.5 t-62 11t-75 2.5q-47 0 -78 -2t-67 -10t-59 -22.5t-49 -39.5t-44 -62t-37 -89.5t-34 -121.5t-29 -159q-16 -105 -22 -178zM612 1745q151 143 269 143q51 -2 111.5 -36t92.5 -35q47 -1 111 25t94 52l31 -122q-39 -34 -58.5 -49.5t-57 -41.5t-71.5 -37.5t-69 -11.5 q-42 1 -80.5 19t-72 35.5t-64.5 17.5q-16 0 -31.5 -2t-26.5 -3.5t-26.5 -7t-23.5 -8.5t-24.5 -11.5t-22.5 -11.5t-25.5 -14t-24.5 -14z" />
<glyph unicode="&#xd6;" horiz-adv-x="1363" d="M186 539q5 103 25 229q23 148 57 262t71 192t90.5 132t102 84.5t120 46.5t129.5 20t145 4q82 0 145.5 -7.5t126 -29.5t105.5 -59t77 -97.5t48.5 -143.5t12 -199t-25.5 -262q-22 -140 -53.5 -248.5t-68 -184t-87.5 -128.5t-100.5 -83.5t-120 -47.5t-132 -22t-148.5 -5 q-71 0 -127 5.5t-113.5 19.5t-99.5 40.5t-79.5 66.5t-59 99t-33.5 136t-7 180zM476 561q-6 -73 0.5 -129t23 -88.5t50.5 -53t77.5 -27.5t109.5 -7q72 0 122.5 11.5t94.5 42t75 85.5t55.5 139t43.5 205q14 87 20.5 155.5t4.5 120.5t-9 89.5t-24.5 63t-36.5 40.5t-51 23.5 t-62 11t-75 2.5q-47 0 -78 -2t-67 -10t-59 -22.5t-49 -39.5t-44 -62t-37 -89.5t-34 -121.5t-29 -159q-16 -105 -22 -178zM586 1753q7 50 48 84.5t91 34.5t78.5 -34t21.5 -85q-8 -50 -48 -85.5t-91 -35.5q-49 0 -78.5 35.5t-21.5 85.5zM1108 1753q7 50 48 84.5t91 34.5 t79 -34t22 -85q-8 -50 -48.5 -85.5t-91.5 -35.5q-49 0 -78.5 35.5t-21.5 85.5z" />
<glyph unicode="&#xd7;" horiz-adv-x="944" d="M168 514l248 215l-178 215l184 162l180 -213l264 225l144 -172l-265 -229l181 -215l-185 -154l-176 209l-250 -221z" />
<glyph unicode="&#xd8;" horiz-adv-x="1363" d="M88 0l150 176q-44 86 -52.5 236t23.5 362q23 147 57 261t71 191t91 131t101.5 83.5t120 45t129.5 19.5t145 4q125 0 214.5 -16.5t151.5 -62.5l60 69h153l-131 -156q52 -87 63.5 -246.5t-22.5 -391.5q-17 -109 -40.5 -198t-49.5 -157.5t-61 -122t-69.5 -91t-81 -64 t-88.5 -42t-99.5 -24.5t-107 -11.5t-116.5 -2.5q-138 0 -232 18t-159 72l-69 -82h-152zM481 463l613 737q-31 27 -79.5 36t-123.5 9q-47 0 -78 -2t-67 -10t-59 -22.5t-49 -39.5t-43.5 -62t-36.5 -89.5t-33.5 -121.5t-28.5 -159q-30 -187 -15 -276zM514 322 q30 -37 81.5 -51.5t137.5 -14.5q73 0 123.5 12t94.5 42t74.5 85t55.5 138.5t45 205.5q36 228 15 336z" />
<glyph unicode="&#xd9;" horiz-adv-x="1337" d="M206 452.5q0 98.5 19 219.5l133 827h287l-135 -860q-35 -216 9.5 -300.5t203.5 -84.5t231.5 88.5t104.5 296.5l137 860h289l-131 -895q-23 -147 -65.5 -254.5t-99 -176t-136 -110t-166.5 -57.5t-201 -16q-70 0 -127 7.5t-113.5 27t-98 52t-75 85t-50 122.5t-16.5 168.5z M633 1917h244l157 -285h-186z" />
<glyph unicode="&#xda;" horiz-adv-x="1337" d="M206 452.5q0 98.5 19 219.5l133 827h287l-135 -860q-35 -216 9.5 -300.5t203.5 -84.5t231.5 88.5t104.5 296.5l137 860h289l-131 -895q-23 -147 -65.5 -254.5t-99 -176t-136 -110t-166.5 -57.5t-201 -16q-70 0 -127 7.5t-113.5 27t-98 52t-75 85t-50 122.5t-16.5 168.5z M848 1632l231 285h250l-295 -285h-186z" />
<glyph unicode="&#xdb;" horiz-adv-x="1337" d="M206 452.5q0 98.5 19 219.5l133 827h287l-135 -860q-35 -216 9.5 -300.5t203.5 -84.5t231.5 88.5t104.5 296.5l137 860h289l-131 -895q-23 -147 -65.5 -254.5t-99 -176t-136 -110t-166.5 -57.5t-201 -16q-70 0 -127 7.5t-113.5 27t-98 52t-75 85t-50 122.5t-16.5 168.5z M627 1632l264 277h213l153 -277h-184l-88 133l-147 -133h-211z" />
<glyph unicode="&#xdc;" horiz-adv-x="1337" d="M206 452.5q0 98.5 19 219.5l133 827h287l-135 -860q-35 -216 9.5 -300.5t203.5 -84.5t231.5 88.5t104.5 296.5l137 860h289l-131 -895q-23 -147 -65.5 -254.5t-99 -176t-136 -110t-166.5 -57.5t-201 -16q-70 0 -127 7.5t-113.5 27t-98 52t-75 85t-50 122.5t-16.5 168.5z M582 1753q7 50 48 84.5t91 34.5t78.5 -34t21.5 -85q-8 -50 -48 -85.5t-91 -35.5q-50 0 -79.5 36t-20.5 85zM1104 1753q7 50 48 84.5t91 34.5t78.5 -34t21.5 -85q-8 -50 -48 -85.5t-91 -35.5q-50 0 -79.5 36t-20.5 85z" />
<glyph unicode="&#xdd;" horiz-adv-x="1343" d="M285 1499h309l172 -717l428 717h328l-658 -1034l-73 -465h-287l74 465zM831 1632l232 285h250l-295 -285h-187z" />
<glyph unicode="&#xde;" horiz-adv-x="1116" d="M94 0q39 249 118 746.5t118 746.5h286l-45 -289h301q33 0 64.5 -5.5t66 -19.5t61.5 -36.5t52 -57t37.5 -81.5t17.5 -109.5t-8 -140.5q-12 -88 -34 -157.5t-47 -115.5t-61 -79t-66.5 -50t-74 -27t-72.5 -12.5t-73 -3.5q-57 -1 -96.5 0t-97.5 11t-105 30l-55 -350h-287z M469 563h213q47 0 74 6t52 26.5t39.5 61t26.5 109.5q5 33 5.5 59t-4.5 44.5t-11.5 32.5t-18.5 22.5t-22 14t-26 8t-27.5 3t-28.5 0.5h-211z" />
<glyph unicode="&#xdf;" horiz-adv-x="1171" d="M94 0l185 1159q15 93 52.5 169.5t102.5 139t168 97t236 34.5q107 0 190 -21.5t134.5 -58.5t83 -86.5t39.5 -105.5t0 -115.5t-32.5 -116.5t-60 -109t-80.5 -93q-24 -21 -73.5 -51.5t-75 -57.5t-31.5 -67q-5 -28 9.5 -50t40 -38.5t57.5 -32.5t63 -37t55.5 -47.5t35.5 -68.5 t3 -95l-10 -63q-13 -88 -52.5 -150t-96.5 -93.5t-115.5 -44.5t-126.5 -13q-25 0 -50.5 1t-44 2.5t-42.5 5t-36.5 5t-36.5 6.5t-31 6t-31 6.5t-27 6.5l32 202q216 -12 232 -12q52 0 92.5 29.5t50.5 87.5l8 41q4 28 -10 49.5t-39 36.5t-56 29t-61 33t-53.5 43t-35 63.5 t-3.5 91.5q17 103 62 159t164 130q99 70 112 174q14 94 -30.5 126.5t-145.5 32.5q-117 0 -180 -61.5t-88 -220.5l-166 -1057h-287z" />
<glyph unicode="&#xe0;" d="M136.5 322q-7.5 118 21.5 286q18 93 46 168t59 125.5t73 88.5t79 59t86 34t85.5 17.5t85.5 7.5q134 7 285 -25.5t223 -101.5l-144 -979h-221l-43 113q-40 -52 -136.5 -89.5t-193.5 -37.5q-82 0 -145.5 33.5t-108 108t-52 192.5zM414 1516h243l158 -283h-186zM423 380 q2 -72 32 -110.5t92 -38.5q83 0 139 25.5t111 77.5l77 524q-48 18 -110 23.5t-107 -4.5q-33 -7 -54.5 -14t-50 -28t-47.5 -53.5t-38 -90t-31 -136.5q-15 -103 -13 -175z" />
<glyph unicode="&#xe1;" d="M136.5 322q-7.5 118 21.5 286q18 93 46 168t59 125.5t73 88.5t79 59t86 34t85.5 17.5t85.5 7.5q134 7 285 -25.5t223 -101.5l-144 -979h-221l-43 113q-40 -52 -136.5 -89.5t-193.5 -37.5q-82 0 -145.5 33.5t-108 108t-52 192.5zM423 380q2 -72 32 -110.5t92 -38.5 q83 0 139 25.5t111 77.5l77 524q-48 18 -110 23.5t-107 -4.5q-33 -7 -54.5 -14t-50 -28t-47.5 -53.5t-38 -90t-31 -136.5q-15 -103 -13 -175zM639 1233l229 283h252l-295 -283h-186z" />
<glyph unicode="&#xe2;" d="M136.5 322q-7.5 118 21.5 286q18 93 46 168t59 125.5t73 88.5t79 59t86 34t85.5 17.5t85.5 7.5q134 7 285 -25.5t223 -101.5l-144 -979h-221l-43 113q-40 -52 -136.5 -89.5t-193.5 -37.5q-82 0 -145.5 33.5t-108 108t-52 192.5zM408 1233l264 276h213l153 -276h-184 l-88 133l-148 -133h-210zM423 380q2 -72 32 -110.5t92 -38.5q83 0 139 25.5t111 77.5l77 524q-48 18 -110 23.5t-107 -4.5q-33 -7 -54.5 -14t-50 -28t-47.5 -53.5t-38 -90t-31 -136.5q-15 -103 -13 -175z" />
<glyph unicode="&#xe3;" d="M136.5 322q-7.5 118 21.5 286q18 93 46 168t59 125.5t73 88.5t79 59t86 34t85.5 17.5t85.5 7.5q134 7 285 -25.5t223 -101.5l-144 -979h-221l-43 113q-40 -52 -136.5 -89.5t-193.5 -37.5q-82 0 -145.5 33.5t-108 108t-52 192.5zM395 1346q151 143 271 143 q49 -2 109.5 -36.5t94.5 -35.5q47 -1 110.5 25t94.5 51l29 -121q-37 -33 -57.5 -49.5t-57.5 -41.5t-71.5 -36.5t-69.5 -11.5q-52 1 -116 36.5t-101 35.5q-39 -1 -78 -13t-58.5 -22t-68.5 -37zM423 380q2 -72 32 -110.5t92 -38.5q83 0 139 25.5t111 77.5l77 524 q-48 18 -110 23.5t-107 -4.5q-33 -7 -54.5 -14t-50 -28t-47.5 -53.5t-38 -90t-31 -136.5q-15 -103 -13 -175z" />
<glyph unicode="&#xe4;" d="M136.5 322q-7.5 118 21.5 286q18 93 46 168t59 125.5t73 88.5t79 59t86 34t85.5 17.5t85.5 7.5q134 7 285 -25.5t223 -101.5l-144 -979h-221l-43 113q-40 -52 -136.5 -89.5t-193.5 -37.5q-82 0 -145.5 33.5t-108 108t-52 192.5zM360 1354q7 50 48.5 84.5t91.5 34.5 q51 0 79.5 -34t20.5 -85q-8 -50 -48 -85.5t-91 -35.5q-49 0 -79 35.5t-22 85.5zM423 380q2 -72 32 -110.5t92 -38.5q83 0 139 25.5t111 77.5l77 524q-48 18 -110 23.5t-107 -4.5q-33 -7 -54.5 -14t-50 -28t-47.5 -53.5t-38 -90t-31 -136.5q-15 -103 -13 -175zM883 1354 q7 50 48 84.5t91 34.5q51 0 79.5 -34t20.5 -85q-8 -50 -48 -85.5t-91 -35.5q-49 0 -78.5 35.5t-21.5 85.5z" />
<glyph unicode="&#xe5;" d="M136.5 322q-7.5 118 21.5 286q18 93 46 168t59 125.5t73 88.5t79 59t86 34t85.5 17.5t85.5 7.5q134 7 285 -25.5t223 -101.5l-144 -979h-221l-43 113q-40 -52 -136.5 -89.5t-193.5 -37.5q-82 0 -145.5 33.5t-108 108t-52 192.5zM423 380q2 -72 32 -110.5t92 -38.5 q83 0 139 25.5t111 77.5l77 524q-48 18 -110 23.5t-107 -4.5q-33 -7 -54.5 -14t-50 -28t-47.5 -53.5t-38 -90t-31 -136.5q-15 -103 -13 -175zM557 1440q7 87 72.5 147t152.5 60t142.5 -60t48.5 -147q-8 -88 -71.5 -147.5t-149.5 -59.5q-87 0 -144.5 60t-50.5 147zM676 1440 q-3 -37 21 -62.5t61 -25.5t64 25.5t30 62.5q4 37 -18.5 62.5t-59.5 25.5t-65 -25.5t-33 -62.5z" />
<glyph unicode="&#xe6;" horiz-adv-x="1738" d="M91 330q-8 118 22 282q15 75 35 137.5t41.5 109t50 84t54 62t60 43.5t61.5 29t65 17t64.5 9.5t65.5 4.5q89 6 204.5 -11.5t191.5 -52.5q111 61 297 64q75 1 139 -7.5t123.5 -30t100 -56.5t62.5 -90.5t17 -128.5q-6 -102 -45 -178t-95.5 -118t-127 -67t-139 -30.5 t-132.5 -2.5t-106.5 11t-61.5 16q-21 -122 13 -165.5t145 -45.5q173 -6 432 35l-35 -205q-259 -77 -555 -59q-177 9 -245 141q-60 -69 -177 -105t-219 -36q-82 0 -146.5 36.5t-108 113t-51.5 194.5zM375.5 378q-0.5 -72 30 -110.5t96.5 -38.5q72 -2 142 19.5t99 56.5 q-9 132 25 309q27 158 70 240q-54 18 -119 25t-109 -2q-33 -6 -54.5 -14t-49.5 -29t-46.5 -53.5t-37.5 -90t-31 -137.5q-15 -103 -15.5 -175zM1061 614q7 -1 20 -3t51 -4t72.5 -0.5t78.5 9.5t77 23.5t59 45.5t33 71q13 71 -24.5 97t-129.5 24q-55 -1 -95 -15.5t-62.5 -35 t-38.5 -57.5t-23 -65.5t-16 -77.5q-1 -8 -2 -12z" />
<glyph unicode="&#xe7;" horiz-adv-x="1009" d="M148 309.5q-9 111.5 14 268.5q23 137 58 234t73.5 152.5t93 86.5t103.5 40t118 9q294 0 490 -68l-27 -176q-195 12 -377 12q-27 0 -41.5 -0.5t-36 -3.5t-33 -9t-28 -17t-26 -28t-22.5 -41t-22 -57t-19.5 -76t-19.5 -97q-14 -82 -15.5 -138.5t6.5 -92.5t30 -55.5t50 -26.5 t73 -7q84 0 183 4.5t157 9.5l57 5l-29 -181q-41 -19 -89 -32.5t-81 -20.5t-92 -10.5t-80.5 -4t-91.5 0t-82 0.5q-80 0 -140.5 33t-102.5 104t-51 182.5zM262 -367l21 123l94 31q43 18 58.5 45t25.5 90h192q-25 -160 -84 -224.5t-190 -64.5h-117z" />
<glyph unicode="&#xe8;" horiz-adv-x="1079" d="M162 614q14 76 29.5 132.5t38 110.5t51 91.5t69 69t92.5 50.5t120 29.5t153 10.5q74 1 136 -7.5t119 -30t95.5 -56.5t59.5 -90.5t16 -128.5q-7 -102 -46 -178t-95.5 -118t-127.5 -67t-139.5 -30.5t-132.5 -2.5t-106.5 11t-61.5 16q-21 -122 13 -165.5t145 -45.5 q183 -6 444 35l-35 -205q-261 -78 -567 -59q-384 18 -270 628zM428 1516h244l157 -285h-186zM455 614q7 -1 20 -3t51 -4t72.5 -0.5t78.5 9.5t77 23.5t59 45.5t33 71q13 72 -23.5 97.5t-128.5 23.5q-46 0 -81 -9t-58.5 -28t-39 -38.5t-26.5 -51.5t-17 -57t-14 -63 q-2 -11 -3 -16z" />
<glyph unicode="&#xe9;" horiz-adv-x="1079" d="M162 614q14 76 29.5 132.5t38 110.5t51 91.5t69 69t92.5 50.5t120 29.5t153 10.5q74 1 136 -7.5t119 -30t95.5 -56.5t59.5 -90.5t16 -128.5q-7 -102 -46 -178t-95.5 -118t-127.5 -67t-139.5 -30.5t-132.5 -2.5t-106.5 11t-61.5 16q-21 -122 13 -165.5t145 -45.5 q183 -6 444 35l-35 -205q-261 -78 -567 -59q-384 18 -270 628zM455 614q7 -1 20 -3t51 -4t72.5 -0.5t78.5 9.5t77 23.5t59 45.5t33 71q13 72 -23.5 97.5t-128.5 23.5q-46 0 -81 -9t-58.5 -28t-39 -38.5t-26.5 -51.5t-17 -57t-14 -63q-2 -11 -3 -16zM643 1231l231 285h250 l-295 -285h-186z" />
<glyph unicode="&#xea;" horiz-adv-x="1079" d="M162 614q14 76 29.5 132.5t38 110.5t51 91.5t69 69t92.5 50.5t120 29.5t153 10.5q74 1 136 -7.5t119 -30t95.5 -56.5t59.5 -90.5t16 -128.5q-7 -102 -46 -178t-95.5 -118t-127.5 -67t-139.5 -30.5t-132.5 -2.5t-106.5 11t-61.5 16q-21 -122 13 -165.5t145 -45.5 q183 -6 444 35l-35 -205q-261 -78 -567 -59q-384 18 -270 628zM422 1231l264 276h213l154 -276h-185l-88 133l-147 -133h-211zM455 614q7 -1 20 -3t51 -4t72.5 -0.5t78.5 9.5t77 23.5t59 45.5t33 71q13 72 -23.5 97.5t-128.5 23.5q-46 0 -81 -9t-58.5 -28t-39 -38.5 t-26.5 -51.5t-17 -57t-14 -63q-2 -11 -3 -16z" />
<glyph unicode="&#xeb;" horiz-adv-x="1079" d="M162 614q14 76 29.5 132.5t38 110.5t51 91.5t69 69t92.5 50.5t120 29.5t153 10.5q74 1 136 -7.5t119 -30t95.5 -56.5t59.5 -90.5t16 -128.5q-7 -102 -46 -178t-95.5 -118t-127.5 -67t-139.5 -30.5t-132.5 -2.5t-106.5 11t-61.5 16q-21 -122 13 -165.5t145 -45.5 q183 -6 444 35l-35 -205q-261 -78 -567 -59q-384 18 -270 628zM375 1352q7 50 48 84t91 34q51 0 80 -33.5t20 -84.5q-8 -50 -48 -85.5t-89 -35.5q-51 0 -80.5 35.5t-21.5 85.5zM455 614q7 -1 20 -3t51 -4t72.5 -0.5t78.5 9.5t77 23.5t59 45.5t33 71q13 72 -23.5 97.5 t-128.5 23.5q-46 0 -81 -9t-58.5 -28t-39 -38.5t-26.5 -51.5t-17 -57t-14 -63q-2 -11 -3 -16zM897 1352q7 50 48 84t91 34q51 0 80.5 -33.5t20.5 -84.5q-8 -50 -48.5 -85.5t-89.5 -35.5q-51 0 -80.5 35.5t-21.5 85.5z" />
<glyph unicode="&#xec;" horiz-adv-x="462" d="M78 0l172 1087h287l-172 -1087h-287zM104 1507h242l160 -282h-187z" />
<glyph unicode="&#xed;" horiz-adv-x="462" d="M78 0l172 1087h287l-172 -1087h-287zM317 1225l232 282h250l-295 -282h-187z" />
<glyph unicode="&#xee;" horiz-adv-x="462" d="M78 0l172 1087h287l-172 -1087h-287zM94 1225l264 276h213l154 -276h-184l-88 133l-148 -133h-211z" />
<glyph unicode="&#xef;" horiz-adv-x="462" d="M43 1346q9 50 49.5 84t91.5 34q50 0 79 -34.5t22 -83.5q-7 -51 -48.5 -86t-91.5 -35t-79.5 35t-22.5 86zM78 0l172 1087h287l-172 -1087h-287zM565 1346q9 50 50 84t92 34q49 0 78.5 -34t21.5 -84q-7 -51 -48 -86t-91 -35t-80 35t-23 86z" />
<glyph unicode="&#xf0;" horiz-adv-x="1103" d="M127 337q-7 103 16 224q45 277 153.5 401.5t313.5 124.5h117q121 0 154 -18q-20 125 -86 197l-252 -109l-39 117l158 69q-87 33 -252 25l36 236q336 0 506 -123l201 88l43 -119l-149 -64q178 -245 79 -884q-23 -142 -63 -240.5t-99.5 -155.5t-132 -81.5t-169.5 -24.5 h-224q-103 0 -172 42t-100.5 117t-38.5 178zM415 396.5q-1 -53.5 12.5 -82.5t36.5 -39t62 -9h131q52 0 82 16.5t56 76t45 176.5q22 116 19 180t-28.5 86t-87.5 22h-122q-54 0 -86.5 -21t-59 -84.5t-45.5 -182.5q-14 -85 -15 -138.5z" />
<glyph unicode="&#xf1;" horiz-adv-x="1126" d="M94 0l172 1087h230l39 -116q57 37 81.5 51.5t75 39.5t100.5 34.5t109 9.5q325 0 264 -381l-114 -725h-287l115 729q22 148 -97 148q-82 0 -142 -22t-136 -73l-123 -782h-287zM430 1341q152 144 268 144q51 -2 112 -36.5t93 -35.5q47 -1 111 25.5t94 52.5l31 -123 q-37 -33 -57.5 -49.5t-57.5 -41.5t-71.5 -36.5t-69.5 -11.5q-42 1 -80.5 18.5t-72 35t-64.5 17.5q-41 0 -78.5 -11t-59 -22t-67.5 -38z" />
<glyph unicode="&#xf2;" horiz-adv-x="1140" d="M158 557q21 135 53 227.5t76 155.5t111 98t147.5 49.5t195.5 14.5q270 0 365 -145t45 -457q-17 -103 -39 -178t-55.5 -133t-75 -95t-101.5 -61t-131.5 -33.5t-168.5 -9.5q-274 0 -371 135.5t-51 431.5zM429 390q-1 -55 7.5 -89t33.5 -51.5t55 -23t81 -5.5q38 0 62 2 t49.5 8.5t41.5 20t33 35t28.5 55t22.5 79t21 107.5q15 89 18.5 146t-3 98t-28.5 61t-55 28.5t-87 8.5q-90 0 -135.5 -24t-75 -94.5t-54.5 -223.5q-14 -83 -15 -138zM440 1507h244l158 -282h-187z" />
<glyph unicode="&#xf3;" horiz-adv-x="1140" d="M158 557q21 135 53 227.5t76 155.5t111 98t147.5 49.5t195.5 14.5q270 0 365 -145t45 -457q-17 -103 -39 -178t-55.5 -133t-75 -95t-101.5 -61t-131.5 -33.5t-168.5 -9.5q-274 0 -371 135.5t-51 431.5zM429 390q-1 -55 7.5 -89t33.5 -51.5t55 -23t81 -5.5q38 0 62 2 t49.5 8.5t41.5 20t33 35t28.5 55t22.5 79t21 107.5q15 89 18.5 146t-3 98t-28.5 61t-55 28.5t-87 8.5q-90 0 -135.5 -24t-75 -94.5t-54.5 -223.5q-14 -83 -15 -138zM664 1225l229 282h252l-295 -282h-186z" />
<glyph unicode="&#xf4;" horiz-adv-x="1140" d="M158 557q21 135 53 227.5t76 155.5t111 98t147.5 49.5t195.5 14.5q270 0 365 -145t45 -457q-17 -103 -39 -178t-55.5 -133t-75 -95t-101.5 -61t-131.5 -33.5t-168.5 -9.5q-274 0 -371 135.5t-51 431.5zM429 390q-1 -55 7.5 -89t33.5 -51.5t55 -23t81 -5.5q38 0 62 2 t49.5 8.5t41.5 20t33 35t28.5 55t22.5 79t21 107.5q15 89 18.5 146t-3 98t-28.5 61t-55 28.5t-87 8.5q-90 0 -135.5 -24t-75 -94.5t-54.5 -223.5q-14 -83 -15 -138zM430 1225l264 276h213l154 -276h-184l-89 133l-147 -133h-211z" />
<glyph unicode="&#xf5;" horiz-adv-x="1140" d="M158 557q21 135 53 227.5t76 155.5t111 98t147.5 49.5t195.5 14.5q270 0 365 -145t45 -457q-17 -103 -39 -178t-55.5 -133t-75 -95t-101.5 -61t-131.5 -33.5t-168.5 -9.5q-274 0 -371 135.5t-51 431.5zM416 1337q150 142 270 142q41 -1 77 -18.5t67.5 -34.5t60.5 -17 q46 -3 109.5 23.5t95.5 52.5l28 -121q-46 -41 -77.5 -66t-82.5 -49t-96 -24q-51 1 -115.5 36t-101.5 35q-40 -1 -77.5 -12t-58.5 -22t-66 -37zM429 390q-1 -55 7.5 -89t33.5 -51.5t55 -23t81 -5.5q38 0 62 2t49.5 8.5t41.5 20t33 35t28.5 55t22.5 79t21 107.5 q15 89 18.5 146t-3 98t-28.5 61t-55 28.5t-87 8.5q-90 0 -135.5 -24t-75 -94.5t-54.5 -223.5q-14 -83 -15 -138z" />
<glyph unicode="&#xf6;" horiz-adv-x="1140" d="M158 557q21 135 53 227.5t76 155.5t111 98t147.5 49.5t195.5 14.5q270 0 365 -145t45 -457q-17 -103 -39 -178t-55.5 -133t-75 -95t-101.5 -61t-131.5 -33.5t-168.5 -9.5q-274 0 -371 135.5t-51 431.5zM391 1346q7 49 48.5 83.5t92.5 34.5q50 0 79 -34.5t22 -83.5 q-7 -51 -48 -86t-91 -35q-51 0 -81 35t-22 86zM429 390q-1 -55 7.5 -89t33.5 -51.5t55 -23t81 -5.5q38 0 62 2t49.5 8.5t41.5 20t33 35t28.5 55t22.5 79t21 107.5q15 89 18.5 146t-3 98t-28.5 61t-55 28.5t-87 8.5q-90 0 -135.5 -24t-75 -94.5t-54.5 -223.5 q-14 -83 -15 -138zM913 1346q7 49 49 83.5t93 34.5q49 0 78.5 -34t21.5 -84q-7 -51 -48 -86t-91 -35q-51 0 -81 35t-22 86z" />
<glyph unicode="&#xf7;" horiz-adv-x="1017" d="M172 602l39 242h864l-39 -242h-864zM430 317l23 138q7 49 57 49h152q46 0 40 -49l-22 -138q-8 -47 -57 -47h-150q-22 0 -34 13t-9 34zM537 979l20 137q7 51 57 51h152q48 0 41 -51l-23 -137q-5 -47 -57 -47h-149q-22 0 -33 12.5t-8 34.5z" />
<glyph unicode="&#xf8;" horiz-adv-x="1144" d="M55 0l135 141q-36 64 -43 173.5t15 240.5q27 168 68 272.5t112.5 165.5t164.5 83t238 22q193 0 297 -64l52 53h157l-131 -137q86 -136 33 -448q-19 -123 -48 -208t-71.5 -145.5t-107 -94.5t-146.5 -49t-198 -15q-210 0 -316 69l-57 -59h-154zM446 401l400 430 q-32 37 -135 37q-46 0 -75.5 -4t-57 -18t-44.5 -35.5t-33 -61.5t-27.5 -91.5t-24.5 -129.5q-15 -87 -3 -127zM465 262q19 -26 51 -33.5t92 -7.5q45 0 71.5 2.5t55 13.5t44.5 30t33 54t29.5 84.5t24.5 122.5q20 113 4 168z" />
<glyph unicode="&#xf9;" horiz-adv-x="1124" d="M124.5 242.5q1.5 57.5 10.5 122.5l115 722h287l-115 -729q-14 -82 11.5 -113.5t84.5 -31.5q84 0 145 21.5t134 72.5l123 780h286l-174 -1087h-229l-37 115q-98 -69 -176 -101t-191 -32q-74 0 -128 19t-84.5 53.5t-47 82.5t-15 105.5zM440 1507h244l158 -282h-187z" />
<glyph unicode="&#xfa;" horiz-adv-x="1124" d="M124.5 242.5q1.5 57.5 10.5 122.5l115 722h287l-115 -729q-14 -82 11.5 -113.5t84.5 -31.5q84 0 145 21.5t134 72.5l123 780h286l-174 -1087h-229l-37 115q-98 -69 -176 -101t-191 -32q-74 0 -128 19t-84.5 53.5t-47 82.5t-15 105.5zM655 1225l232 282h250l-295 -282 h-187z" />
<glyph unicode="&#xfb;" horiz-adv-x="1124" d="M124.5 242.5q1.5 57.5 10.5 122.5l115 722h287l-115 -729q-14 -82 11.5 -113.5t84.5 -31.5q84 0 145 21.5t134 72.5l123 780h286l-174 -1087h-229l-37 115q-98 -69 -176 -101t-191 -32q-74 0 -128 19t-84.5 53.5t-47 82.5t-15 105.5zM434 1225l264 276h213l154 -276h-184 l-88 133l-148 -133h-211z" />
<glyph unicode="&#xfc;" horiz-adv-x="1124" d="M124.5 242.5q1.5 57.5 10.5 122.5l115 722h287l-115 -729q-14 -82 11.5 -113.5t84.5 -31.5q84 0 145 21.5t134 72.5l123 780h286l-174 -1087h-229l-37 115q-98 -69 -176 -101t-191 -32q-74 0 -128 19t-84.5 53.5t-47 82.5t-15 105.5zM387 1346q7 49 48 83.5t91 34.5 q51 0 81 -34t22 -84q-9 -51 -49.5 -86t-90.5 -35q-51 0 -80.5 35t-21.5 86zM909 1346q7 49 48.5 83.5t91.5 34.5q51 0 80.5 -34t21.5 -84q-9 -51 -49 -86t-90 -35q-51 0 -81 35t-22 86z" />
<glyph unicode="&#xfd;" horiz-adv-x="1153" d="M172 1087h297l68 -761q2 -14 7 -26t11 -20t15 -14t16.5 -9.5t17.5 -5.5t15.5 -3t13 -1.5t8.5 -0.5l277 616q38 91 51 228h266q32 -148 -49 -322l-350 -768q-62 -135 -135 -239t-137.5 -164t-138.5 -102t-126 -58.5t-111 -26.5v201q125 68 206 163.5t147 225.5 q-120 0 -194 68t-89 208zM643 1217l231 282h250l-295 -282h-186z" />
<glyph unicode="&#xfe;" horiz-adv-x="1134" d="M20 -553l345 2155h286l-102 -633q67 49 163.5 87t184.5 38t150.5 -45t92.5 -123.5t37 -185t-14 -228.5q-11 -68 -21.5 -119t-29 -110t-40.5 -101.5t-55.5 -84t-74.5 -67.5t-98 -41.5t-125 -15.5q-75 0 -163.5 20t-152.5 56l-96 -602h-287zM434 238q85 -35 240 -39 q27 0 49 7t45.5 28.5t42 57.5t35 96t28.5 142q48 330 -94 320q-134 -3 -262 -72z" />
<glyph unicode="&#xff;" horiz-adv-x="1153" d="M172 1087h297l68 -761q2 -14 7 -26t11 -20t15 -14t16.5 -9.5t17.5 -5.5t15.5 -3t13 -1.5t8.5 -0.5l277 616q38 91 51 228h266q32 -148 -49 -322l-350 -768q-62 -135 -135 -239t-137.5 -164t-138.5 -102t-126 -58.5t-111 -26.5v201q125 68 206 163.5t147 225.5 q-120 0 -194 68t-89 208zM377 1315q9 50 49.5 84.5t91.5 34.5q49 0 78.5 -34.5t21.5 -84.5t-49 -85.5t-90 -35.5t-79.5 35.5t-22.5 85.5zM901 1315q8 50 48 84.5t91 34.5q50 0 79 -35t22 -84q-8 -50 -48.5 -85.5t-91.5 -35.5q-50 0 -79.5 36t-20.5 85z" />
<glyph unicode="&#x152;" horiz-adv-x="2125" d="M153 510.5q2 114.5 25 257.5q23 148 57 262t71 192t90.5 132t102 84.5t120 46.5t129.5 20t145 4q133 0 227 -25t154 -89q87 115 280 104q504 -15 633 -33l-37 -237h-571q-36 0 -61 -9.5t-37.5 -28t-17.5 -35.5t-9 -42l-35 -229l578 -21l-35 -235l-586 -21l-39 -237 q-2 -16 -2.5 -29.5t2.5 -23.5t5.5 -18t10 -13.5t12 -9.5t15 -6.5t15.5 -4t17.5 -2t17 -0.5h18.5h549l-37 -235q-53 -7 -208.5 -16t-285.5 -14l-129 -5q-70 -3 -136 20t-103 76q-80 -58 -181.5 -78t-246.5 -20q-82 0 -144 7t-125 27.5t-106.5 56t-78.5 94t-50 139t-13 195z M441 531q-4 -82 7 -138.5t45 -85t82 -40t127 -11.5q72 0 122.5 11.5t95.5 42t76 85.5t56 139t44 205q16 100 21.5 175t2.5 129.5t-18 91t-34 58.5t-53.5 33.5t-68.5 15t-86 3.5q-54 0 -88 -3t-73 -14t-64 -32t-52 -57.5t-46 -91t-37.5 -130.5t-34.5 -178q-20 -126 -24 -208z " />
<glyph unicode="&#x153;" horiz-adv-x="1787" d="M145 559q21 135 53 227.5t76 155t111 97.5t147.5 49t196.5 14q225 0 320 -109q59 58 149.5 86t228.5 29q75 1 137 -7.5t119.5 -30t95.5 -56.5t58.5 -90.5t15.5 -128.5q-6 -102 -45 -178t-95.5 -118t-127 -67t-139.5 -30.5t-133 -2.5t-106.5 11t-61.5 16q-20 -123 14 -167 t144 -44q222 0 444 35l-33 -205q-263 -78 -567 -59q-142 6 -205 98q-63 -51 -153 -72.5t-224 -21.5q-273 0 -369.5 136.5t-50.5 432.5zM417 390q-1 -55 7.5 -89t33 -51.5t54.5 -23t80 -5.5q54 0 84.5 4.5t61 20.5t48.5 50.5t34.5 89.5t31.5 142q18 111 20 175t-17 103 t-55.5 51.5t-103.5 12.5q-45 0 -75 -4.5t-57.5 -18t-45 -36t-34 -62.5t-28 -92t-24.5 -129q-14 -83 -15 -138zM1167 614q8 -1 20.5 -3t50.5 -4t73.5 -0.5t79.5 9.5t77 23.5t59.5 45.5t33.5 71q11 72 -25.5 97.5t-128.5 23.5q-55 -1 -95 -16.5t-62 -33t-40 -58.5t-23.5 -63.5 t-16.5 -77.5q-1 -3 -1.5 -5t-1 -4.5t-0.5 -4.5z" />
<glyph unicode="&#x178;" horiz-adv-x="1343" d="M246 1499h309l172 -717l428 717h328l-658 -1034l-73 -465h-287l74 465zM522 1749q7 49 48.5 84t91.5 35q51 0 80.5 -34.5t21.5 -84.5q-9 -50 -49.5 -85.5t-89.5 -35.5q-51 0 -81 35.5t-22 85.5zM1044 1749q7 49 48.5 84t91.5 35q51 0 80.5 -34.5t21.5 -84.5 q-9 -50 -49.5 -85.5t-89.5 -35.5q-51 0 -81 35.5t-22 85.5z" />
<glyph unicode="&#x2c6;" horiz-adv-x="649" d="M102 1087l265 277h213l155 -277h-186l-86 134l-150 -134h-211z" />
<glyph unicode="&#x2dc;" horiz-adv-x="862" d="M250 1200q151 143 270 143q49 -2 110 -36t95 -35q47 -1 111 25.5t94 52.5l28 -123q-39 -34 -58.5 -49.5t-57 -41.5t-71.5 -37.5t-69 -11.5q-52 1 -116 36.5t-101 35.5q-15 0 -30.5 -2t-26.5 -3.5t-27 -7.5t-23 -8t-24.5 -11.5t-22 -11.5t-25.5 -14t-25 -14z" />
<glyph unicode="&#x2000;" horiz-adv-x="958" />
<glyph unicode="&#x2001;" horiz-adv-x="1917" />
<glyph unicode="&#x2002;" horiz-adv-x="958" />
<glyph unicode="&#x2003;" horiz-adv-x="1917" />
<glyph unicode="&#x2004;" horiz-adv-x="639" />
<glyph unicode="&#x2005;" horiz-adv-x="479" />
<glyph unicode="&#x2006;" horiz-adv-x="319" />
<glyph unicode="&#x2007;" horiz-adv-x="319" />
<glyph unicode="&#x2008;" horiz-adv-x="239" />
<glyph unicode="&#x2009;" horiz-adv-x="383" />
<glyph unicode="&#x200a;" horiz-adv-x="106" />
<glyph unicode="&#x2010;" horiz-adv-x="722" d="M125 473l37 242h643l-37 -242h-643z" />
<glyph unicode="&#x2011;" horiz-adv-x="722" d="M125 473l37 242h643l-37 -242h-643z" />
<glyph unicode="&#x2012;" horiz-adv-x="722" d="M125 473l37 242h643l-37 -242h-643z" />
<glyph unicode="&#x2013;" horiz-adv-x="927" d="M121 467l41 244h968l-40 -244h-969z" />
<glyph unicode="&#x2014;" horiz-adv-x="1507" d="M125 471l39 244h1425l-39 -244h-1425z" />
<glyph unicode="&#x2018;" horiz-adv-x="528" d="M291 1049l43 270q8 50 29 87.5t48 57.5t58 32t60 14.5t53 2t38 -2.5l15 -3l-19 -114q-29 1 -47 -12t-22.5 -25t-7.5 -29l-7 -43h25q23 0 36 -13.5t9 -39.5l-29 -182q-9 -60 -65 -60h-176q-48 0 -41 60z" />
<glyph unicode="&#x2019;" horiz-adv-x="528" d="M293 995l18 115q22 -1 37.5 5.5t23 19t10.5 21t5 20.5l8 43h-24q-23 0 -36 13.5t-9 39.5l30 182q9 59 62 59h176q54 0 43 -59l-43 -270q-11 -69 -46 -113.5t-77 -59.5t-83 -20t-68 -1z" />
<glyph unicode="&#x201a;" horiz-adv-x="528" d="M100 -223l17 112q23 0 39 6.5t23.5 19.5t10.5 21t5 21l6 43h-23q-24 0 -36.5 13t-8.5 40l29 183q9 59 63 59h176q50 0 43 -59l-45 -271q-8 -50 -29 -87.5t-47.5 -57.5t-57.5 -32t-60 -14.5t-52.5 -2t-38.5 2.5z" />
<glyph unicode="&#x201c;" horiz-adv-x="866" d="M281 1047l41 270q8 50 29 87.5t48 57t58 31.5t60 14t53 2t38 -3l15 -3l-17 -112q-23 1 -39 -5.5t-23.5 -19t-10.5 -20.5t-5 -21l-6 -43h23q24 0 36.5 -13t8.5 -40l-29 -182q-9 -60 -63 -60h-176q-52 0 -41 60zM643 1047l41 270q8 50 29.5 87.5t48.5 57t57.5 31.5t60 14 t53 2t37.5 -3l15 -3l-16 -112q-23 1 -39 -5.5t-23.5 -19t-10.5 -20.5t-5 -21l-6 -43h22q24 0 36.5 -13t8.5 -40l-28 -182q-9 -60 -64 -60h-176q-52 0 -41 60z" />
<glyph unicode="&#x201d;" horiz-adv-x="868" d="M281 993l18 115q22 -1 37.5 5.5t23 19t10.5 21t5 20.5l8 43h-25q-23 0 -35 13.5t-8 39.5l29 182q9 59 62 59h178q52 0 41 -59l-43 -270q-11 -69 -46 -113.5t-77 -59.5t-83 -20t-68 -1zM643 993l19 115q22 -1 37.5 5.5t22.5 19t10 20.5t5 21l8 43h-24q-23 0 -35 13.5 t-8 39.5l29 182q9 59 61 59h178q52 0 41 -59l-43 -270q-11 -69 -46 -113.5t-77 -59.5t-83 -20t-68 -1z" />
<glyph unicode="&#x201e;" horiz-adv-x="866" d="M88 -223l18 114q22 -1 37.5 5.5t23 19.5t10.5 21.5t5 21.5l6 41h-22q-24 0 -36.5 13t-8.5 40l29 185q9 57 63 57h176q50 0 43 -57l-45 -273q-11 -68 -46 -112.5t-76.5 -59.5t-82 -20t-67.5 -1zM451 -223l18 114q22 -1 37.5 5.5t23 19.5t10.5 21.5t5 21.5l6 41h-23 q-24 0 -36.5 13t-8.5 40l29 185q9 57 63 57h177q50 0 43 -57l-45 -273q-11 -68 -46 -112.5t-76.5 -59.5t-82 -20t-67.5 -1z" />
<glyph unicode="&#x2022;" horiz-adv-x="628" d="M236 659l36 242q5 33 26 52.5t54 19.5h232q69 0 59 -72l-37 -242q-11 -65 -84 -65h-231q-31 0 -45.5 17t-9.5 48z" />
<glyph unicode="&#x2026;" horiz-adv-x="1603" d="M272 47l31 184q7 52 57 52h177q49 0 43 -52l-31 -184q-8 -47 -57 -47h-177q-22 0 -34 13t-9 34zM829 47l31 184q3 24 18.5 38t39.5 14h176q49 0 43 -52l-31 -184q-8 -47 -57 -47h-177q-22 0 -34 13t-9 34zM1386 47l31 184q3 24 18.5 38t39.5 14h176q49 0 43 -52l-31 -184 q-8 -47 -57 -47h-176q-22 0 -34.5 13t-9.5 34z" />
<glyph unicode="&#x202f;" horiz-adv-x="383" />
<glyph unicode="&#x2039;" horiz-adv-x="589" d="M41 725l487 416l136 -158l-314 -264l228 -266l-172 -154z" />
<glyph unicode="&#x203a;" horiz-adv-x="733" d="M193 459l313 268l-225 264l176 150l358 -420l-491 -422z" />
<glyph unicode="&#x205f;" horiz-adv-x="479" />
<glyph unicode="&#x20ac;" horiz-adv-x="1441" d="M115 512l22 139l162 17l20 139l-153 16l20 131l160 21q5 35 9.5 58t16.5 69t25.5 79.5t38.5 79t54.5 78.5t74 68.5t96.5 57.5t122 36.5t151 14.5q96 0 257.5 -20.5t266.5 -53.5l-33 -209q-296 29 -464 29q-50 0 -90.5 -5t-71.5 -17t-53.5 -24.5t-39.5 -35t-28 -41 t-20 -50t-13.5 -54t-11.5 -60.5l477 -17l-23 -139l-481 -12l-20 -139l475 -17l-23 -139q-31 -1 -81 -2t-156.5 -4t-176 -6t-67.5 -4q-11 -50 -7 -89t11 -67t26.5 -48t39 -32.5t50 -19t58.5 -9t64 -2.5q82 0 202.5 11t200.5 22l80 12l-35 -204q-211 -82 -555 -82 q-59 0 -113 7.5t-124 38.5t-115.5 82.5t-68 149.5t-1.5 230z" />
<glyph unicode="&#x2122;" horiz-adv-x="1286" d="M78 1335l24 164h576l-25 -164h-194l-86 -551h-187l86 551h-194zM600 784l191 715h190l53 -412l170 412h203l-27 -715h-186l23 377l-138 -377h-166l-34 377l-91 -377h-188z" />
<glyph unicode="&#xe000;" horiz-adv-x="1085" d="M0 0v1085h1085v-1085h-1085z" />
<glyph unicode="&#xfb03;" horiz-adv-x="2062" d="M168 868l29 185l209 34l28 183q8 55 29 106t59.5 101.5t105.5 81t154 30.5q159 0 277 -49l-29 -170h-180q-81 1 -109 -51q-13 -25 -30 -109l-23 -123h459l12 82q30 193 170 315.5t344 125.5q112 2 261 -11t206 -38l-26 -170l-373 2q-259 0 -297 -236l-10 -70l704 -20 l-168 -1067h-287l138 868h-424l-137 -868h-287l137 868h-457l-137 -868h-287l138 868h-199z" />
<glyph unicode="&#xfb04;" horiz-adv-x="2250" d="M168 868l29 185l209 34l28 183q8 55 29 106t59.5 101.5t105.5 81t154 30.5q159 0 277 -49l-29 -170h-180q-32 1 -55.5 -7.5t-36 -18.5t-22.5 -36t-14 -42.5t-11 -55.5l-23 -123h463l14 93q35 224 154.5 325.5t316.5 104.5l611 -4l-187 -1174q-9 -58 -9.5 -96t9 -61 t23.5 -34.5t39 -21.5q115 -43 129 -43l-27 -176h-203q-154 0 -220 89.5t-34 297.5l158 1004l-266 2q-91 0 -139.5 -45.5t-67.5 -167.5l-14 -93h245l-34 -219h-248l-137 -868h-287l137 868h-461l-137 -868h-287l138 868h-199z" />
</font>
</defs>
</svg>
