<?xml version="1.0" standalone="no"?>
<!DOCTYPE svg PUBLIC "-//W3C//DTD SVG 1.1//EN" "http://www.w3.org/Graphics/SVG/1.1/DTD/svg11.dtd" >
<svg xmlns="http://www.w3.org/2000/svg">
<metadata></metadata>
<defs>
<font id="exoregular_italic" horiz-adv-x="1351" >
<font-face units-per-em="2048" ascent="1638" descent="-410" />
<missing-glyph horiz-adv-x="512" />
<glyph unicode="&#xfb01;" horiz-adv-x="1185" d="M123 936l18 117l209 34l17 109q31 196 153.5 305t313.5 109q76 0 185 -22t191 -48l-16 -100l-348 22q-38 3 -76.5 -2.5t-80 -23.5t-75 -47.5t-60 -79t-36.5 -113.5l-16 -109l733 -20l-168 -1067h-154l148 936h-588l-147 -936h-152l148 936h-199z" />
<glyph unicode="&#xfb02;" horiz-adv-x="1413" d="M188 936l19 113l213 38l12 74q37 236 144.5 340.5t291.5 104.5h545l-192 -1219q-10 -60 -11 -100.5t3 -64.5t19 -38t29.5 -19.5t43.5 -12.5q151 -37 153 -37l-18 -115h-140q-292 0 -231 387l170 1071h-379q-114 0 -182.5 -66t-93.5 -231l-13 -74h338l-24 -151h-340 l-156 -936h-151l153 936h-203z" />
<glyph horiz-adv-x="0" />
<glyph unicode="&#xd;" horiz-adv-x="2048" />
<glyph unicode=" "  horiz-adv-x="512" />
<glyph unicode="&#x09;" horiz-adv-x="512" />
<glyph unicode="&#xa0;" horiz-adv-x="512" />
<glyph unicode="!" horiz-adv-x="542" d="M174 47l19 117q7 51 57 51h112q22 0 32 -14t7 -37l-18 -117q-6 -47 -53 -47h-113q-22 0 -34 13t-9 34zM250 410l158 1087h182l-187 -1087h-153z" />
<glyph unicode="&#x22;" horiz-adv-x="780" d="M369 1087l20 275l23 137h153l-22 -137l-64 -275h-110zM645 1087l21 275l22 137h154l-23 -137l-63 -275h-111z" />
<glyph unicode="#" horiz-adv-x="1406" d="M115 475l32 107h326l107 338h-326l37 106h323l150 473h106l-149 -473h340l147 473h107l-148 -473h363l-37 -106h-363l-106 -340h362l-32 -107h-363l-151 -473h-107l152 473l-340 2l-152 -475h-106l151 475h-323zM580 582l338 -2l106 340h-338z" />
<glyph unicode="$" horiz-adv-x="1175" d="M164 35l20 108q27 0 203.5 -6t284.5 -6q38 0 78.5 8t88 26.5t81.5 58t43 95.5l22 140q1 4 2 12q14 91 4 123q-18 61 -128 65h-17h-266q-82 0 -143.5 21t-95 56.5t-54 81.5t-21 95.5t5.5 98.5l21 135q18 105 58 177.5t100.5 112t128.5 56t157 18.5l29 177h119l-29 -183 q74 -6 219 -23.5t164 -19.5l-18 -119q-45 0 -167 4.5t-222 9.5l-99 5q-252 11 -289 -215l-20 -135q-16 -108 21.5 -154.5t158.5 -46.5h266q59 0 105 -11t76.5 -29t51 -45.5t30 -57t12.5 -66.5t0.5 -70.5t-8.5 -72.5l-23 -140q-13 -82 -49 -144.5t-84 -99.5t-110.5 -59.5 t-125 -29t-131.5 -2.5l-26 -168h-119l29 178q-76 8 -203.5 24.5t-130.5 16.5z" />
<glyph unicode="%" horiz-adv-x="1970" d="M236 971l43 272q11 69 27.5 112.5t49.5 78.5t88.5 50t139.5 15h207q134 0 187 -59.5t32 -196.5l-43 -272q-16 -99 -45.5 -152t-90 -78.5t-167.5 -25.5h-207q-120 0 -180.5 65.5t-40.5 190.5zM369 971q-12 -73 11 -98t97 -25h207q83 0 110.5 24t39.5 99l43 272 q10 49 4.5 76.5t-29.5 37t-82 9.5h-207q-85 0 -112.5 -25t-38.5 -98zM461 0l1134 1499h146l-1135 -1499h-145zM1194 256l43 272q11 69 27.5 112.5t49.5 78.5t88.5 50t139.5 15h207q134 0 187 -59.5t32 -196.5l-43 -272q-16 -99 -46.5 -152t-91 -78.5t-167.5 -25.5h-207 q-119 0 -179 65.5t-40 190.5zM1327 256q-12 -74 11 -98.5t96 -24.5h206q83 0 111.5 24t40.5 99l43 272q11 49 4.5 76.5t-30.5 37t-83 9.5h-206q-85 0 -112 -25t-38 -98z" />
<glyph unicode="&#x26;" horiz-adv-x="1282" d="M143 470q44 156 205 280l195 149l-101 174q-64 116 -41.5 206.5t94 146.5t160.5 63q161 14 275.5 6.5t263.5 -41.5l-16 -98h-416q-70 0 -119 -12.5t-80 -40t-28 -77.5t43 -120l383 -664l272 246l49 -41l-145 -241l-99 -95l185 -311h-156l-133 227l-152 -137 q-80 -71 -190.5 -93t-221.5 19.5t-177 145.5q-94 152 -50 308zM271.5 360q4.5 -63 45.5 -122q64 -92 173.5 -104t197.5 65l172 153l-246 414l-176 -135q-89 -66 -130 -137t-36.5 -134z" />
<glyph unicode="'" horiz-adv-x="380" d="M307 1087l21 275l22 137h154l-23 -137l-63 -275h-111z" />
<glyph unicode="(" horiz-adv-x="686" d="M234.5 408q3.5 131 25.5 260q30 174 90.5 351t126.5 304.5t127.5 230.5t101.5 155l39 52h181q-16 -19 -43.5 -54.5t-102 -150.5t-137.5 -235.5t-130.5 -299.5t-100.5 -353q-35 -196 -31 -364t35.5 -303.5t67 -231.5t64.5 -147l30 -52h-166q-5 10 -14.5 28t-34.5 79 t-46 126.5t-42.5 167t-32.5 204t-7.5 233.5z" />
<glyph unicode=")" horiz-adv-x="690" d="M-27 -430q16 19 43.5 54.5t102 151t137.5 236t130.5 299.5t100.5 353q35 196 31 364t-35 303.5t-67 231t-65 147.5l-29 51h165q5 -10 14.5 -28t34.5 -79t46 -126.5t42.5 -166.5t32.5 -203.5t7.5 -233.5t-25.5 -260q-30 -174 -90.5 -351t-126.5 -305t-127.5 -230.5 t-100.5 -155.5l-40 -52h-181z" />
<glyph unicode="*" horiz-adv-x="901" d="M285 1159l12 82l295 59l-14 -151zM375 848l92 276l143 -34l-164 -267zM580 975l104 127l195 -187l-54 -65zM592 1468l84 33l117 -241l-150 -64zM698 1169l271 156l26 -72l-217 -198z" />
<glyph unicode="+" horiz-adv-x="1056" d="M205 653l24 152h349l55 350h151l-55 -350h352l-24 -152h-352l-56 -350h-151l55 350h-348z" />
<glyph unicode="," horiz-adv-x="548" d="M156 -180l10 65q63 -2 74 64l8 51h-23q-23 0 -35 13t-8 38l17 111q9 55 61 55h105q45 0 38 -55l-28 -185q-9 -55 -34.5 -91t-56 -49t-60 -17.5t-48.5 -1.5z" />
<glyph unicode="-" horiz-adv-x="727" d="M123 518l24 152h644l-25 -152h-643z" />
<glyph unicode="." horiz-adv-x="555" d="M180 47l19 117q7 51 57 51h109q52 0 43 -51l-19 -117q-8 -47 -57 -47h-109q-22 0 -34 13t-9 34z" />
<glyph unicode="/" horiz-adv-x="819" d="M16 -147l848 1724h162l-848 -1724h-162z" />
<glyph unicode="0" horiz-adv-x="1314" d="M195 332l133 835q27 172 129 252t274 80h336q72 0 128 -19t89 -51t54.5 -75t23.5 -90.5t-4 -96.5l-133 -835q-28 -177 -126 -254.5t-270 -77.5h-335q-73 0 -131 18t-102.5 55.5t-62 103.5t-3.5 155zM341 278.5q0 -24.5 2.5 -42t11.5 -31.5t16 -22.5t22 -14.5t25 -9.5 t29.5 -5t29.5 -1.5h32h9h336q96 0 150.5 47t68.5 133l133 835q14 94 -19.5 137.5t-142.5 43.5h-335q-203 0 -230 -181l-133 -835q-5 -29 -5 -53.5z" />
<glyph unicode="1" horiz-adv-x="739" d="M274 1217l17 108q57 0 116.5 18t103.5 43.5t80 51t55 43.5l18 18h147l-233 -1499h-152l209 1305q-42 -33 -135.5 -60.5t-225.5 -27.5z" />
<glyph unicode="2" horiz-adv-x="1218" d="M96 0l23 139q75 46 145 90.5t172.5 115t189 136.5t180 148.5t160.5 157.5t115.5 156t59.5 151q41 272 -223 272h-621l18 113q323 41 631 41q80 0 143.5 -24t103.5 -64.5t65 -96.5t32.5 -117t1.5 -128q-7 -79 -49.5 -167t-102.5 -166t-143 -160.5t-157.5 -146.5 t-160 -128.5t-138.5 -100.5t-103 -69h697l-25 -152h-1014z" />
<glyph unicode="3" horiz-adv-x="1216" d="M100 43l17 96h610q85 0 160.5 48.5t91.5 142.5l20 121q6 38 7 68t-5 52t-13.5 38t-23 26t-28 16.5t-35 10t-37.5 4.5t-41 2l-495 14l20 119l500 20q105 4 168 56.5t78 146.5l22 141q9 56 -2.5 94.5t-41 58t-63 27t-77.5 7.5h-637l14 94q89 30 202.5 44t223 14t236.5 -1 q149 -3 234.5 -98t62.5 -240l-23 -141q-19 -120 -67 -190.5t-113 -88.5q126 -71 90 -294l-20 -121q-54 -344 -418 -344h-75h-79t-70 0.5t-75 2.5t-65.5 4.5t-70.5 7t-60.5 10t-65 14t-56.5 18.5z" />
<glyph unicode="4" horiz-adv-x="1234" d="M113 459l821 1040h190l-753 -956h565l68 424l106 153h76l-92 -577h184l-18 -121l-191 -39l-59 -379h-158l59 379h-741z" />
<glyph unicode="5" horiz-adv-x="1234" d="M162 39l18 113h623q50 0 90 18.5t64 48t38 60.5t19 63l35 217q34 203 -150 203h-309q-68 0 -125.5 -38.5t-69.5 -115.5h-141l186 891h867l-25 -151h-721l-104 -496q50 53 182 63q66 4 107 3.5t100 -3t76 -2.5q141 0 221 -99t57 -251l-35 -225q-16 -102 -52 -172 t-89.5 -107t-112.5 -52.5t-135 -16.5q-202 -2 -311.5 6.5t-302.5 42.5z" />
<glyph unicode="6" horiz-adv-x="1271" d="M224 457q0 142 30 329q25 157 65.5 283t87 207t101.5 135.5t107.5 77t105.5 22.5q367 0 612 -38l-18 -113h-592q-62 0 -117 -56t-92.5 -144t-61.5 -169t-38 -157q361 41 544 43q66 1 117.5 -13.5t82 -38.5t51.5 -56t26.5 -66.5t8 -68.5t-4.5 -63l-41 -268 q-49 -303 -379 -303h-301q-63 0 -112.5 19t-93.5 72.5t-66 138.5t-22 227zM395 725q-92 -580 140 -580h305q30 0 59 6.5t62.5 23.5t57.5 53t32 87l39 256q15 91 -20.5 122.5t-135.5 31.5h-539z" />
<glyph unicode="7" horiz-adv-x="1118" d="M274 1348l25 151h940l39 -98l-764 -1401h-180l741 1348h-801z" />
<glyph unicode="8" horiz-adv-x="1294" d="M218 273q2 20 5 42l31 201q17 106 82 163.5t147 65.5q-64 21 -101.5 70t-47 101.5t-0.5 105.5l22 133q31 198 131.5 276t284.5 78h299q154 0 228.5 -93.5t48.5 -260.5l-23 -133q-2 -22 -12.5 -53.5t-32 -72t-62.5 -73t-94 -43.5q40 -13 68 -44.5t40 -68.5t16.5 -78 t-3.5 -73l-31 -201q-14 -84 -44 -144t-65.5 -92.5t-86.5 -51t-92 -23t-97 -4.5h-297q-71 0 -126 14t-88 35t-55.5 51.5t-31.5 58t-12 61t-1 53.5zM373 309q-13 -88 28.5 -122.5t155.5 -34.5h297q33 0 64 7.5t62 24.5t53 49t28 76l35 215q13 82 -31.5 124t-118.5 42h-325 q-80 0 -139.5 -39t-73.5 -127zM483 1012q-8 -48 5 -84t40.5 -54t56 -26t58.5 -8h326q174 0 202 172l23 139q20 120 -13 163.5t-134 43.5h-299q-123 0 -173.5 -47t-68.5 -160z" />
<glyph unicode="9" horiz-adv-x="1269" d="M176 39l19 113h591q50 0 96.5 38.5t80 96.5t61.5 132.5t45 137.5t27 121q-361 -41 -545 -43q-66 -1 -117.5 13t-82 38.5t-51.5 56.5t-26.5 66t-8 68t4.5 63l41 268q49 303 379 303h301q63 0 112.5 -19t93.5 -72.5t66 -138.5t22 -227t-30 -329q-25 -157 -65.5 -283 t-87 -207t-101.5 -135.5t-107.5 -77t-105.5 -22.5q-137 0 -212 1.5t-189.5 10.5t-210.5 27zM420 940q-15 -91 20 -122.5t135 -31.5h539q92 580 -139 580h-305q-30 0 -59 -6.5t-62.5 -23.5t-57.5 -53t-32 -87z" />
<glyph unicode=":" horiz-adv-x="557" d="M180 47l19 117q7 51 57 51h109q52 0 43 -51l-19 -117q-8 -47 -57 -47h-109q-22 0 -34 13t-9 34zM319 922l19 116q7 52 57 52h109q52 0 43 -52l-19 -116q-8 -48 -59 -48h-109q-22 0 -33 13t-8 35z" />
<glyph unicode=";" horiz-adv-x="557" d="M156 -180l10 65q63 -2 74 64l8 51h-23q-21 0 -33.5 16t-9.5 35l17 111q3 22 20.5 38.5t40.5 16.5h105q45 0 38 -55l-28 -185q-9 -55 -34.5 -91t-56 -49t-60 -17.5t-48.5 -1.5zM324 924l18 116q7 52 57 52h109q52 0 43 -52l-19 -116q-8 -47 -57 -47h-108q-22 0 -34 13 t-9 34z" />
<glyph unicode="&#x3c;" horiz-adv-x="970" d="M203 643l26 164l820 332l-25 -164l-635 -258l551 -277l-27 -153z" />
<glyph unicode="=" horiz-adv-x="956" d="M109 434l26 152h875l-27 -152h-874zM174 862l27 152h874l-26 -152h-875z" />
<glyph unicode="&#x3e;" horiz-adv-x="972" d="M147 287l27 168l647 270l-565 270l27 144l714 -332l-24 -164z" />
<glyph unicode="?" horiz-adv-x="1105" d="M256 1368l18 105q19 2 85 11t85.5 11t73 8t82 7.5t75.5 3.5t90.5 1.5t92.5 -2.5q80 0 144.5 -20t106 -55t68.5 -83t32 -103.5t-3 -116.5l-32 -207q-14 -91 -50 -157t-87 -103t-116.5 -57t-139.5 -18t-156 13q0 -1 -17 -100.5t-16 -106.5h-154l51 332q194 -3 291 0 q54 2 103 21.5t89.5 65t51.5 110.5l33 207q20 129 -34.5 181t-211.5 52h-555zM358 47l19 117q7 51 57 51h109q52 0 43 -51l-19 -117q-8 -47 -57 -47h-109q-22 0 -34 13t-9 34z" />
<glyph unicode="@" horiz-adv-x="1777" d="M131 18l166 1049q12 76 39.5 137.5t75 114.5t125.5 83t180 30h768q168 0 241 -95t46 -270l-109 -725q-4 -30 -8 -50t-15.5 -58t-26 -65t-41 -60t-60 -53.5t-84 -35t-111.5 -14.5h-111l-47 123q-121 -134 -319 -137q-60 -1 -107 8.5t-90.5 34.5t-70 67t-45 105.5 t-16.5 151.5t17 204q20 130 58.5 230.5t83 159.5t99 97t102.5 51t98 13q133 0 263.5 -29.5t201.5 -97.5l-121 -829q33 0 56 3t48 14t41.5 30.5t30.5 53.5t22 83l109 725q6 39 7 70t-4 52.5t-10.5 37.5t-19 25.5t-22 15t-27.5 7.5t-28.5 2.5t-30.5 0.5h-10h-783 q-55 0 -99 -16.5t-68.5 -39t-42 -54.5t-23.5 -54t-10 -47l-166 -1049q-4 -36 -5.5 -69.5t8.5 -63t28.5 -52t55 -35.5t87.5 -13h790l-16 -96q-286 -56 -598 -56h-201q-159 0 -243 109.5t-58 275.5zM661.5 336.5q-0.5 -72.5 21.5 -115.5t58.5 -60t98.5 -18q88 -2 161.5 24 t169.5 99l105 666q-123 33 -305 33q-242 0 -297 -445q-12 -111 -12.5 -183.5z" />
<glyph unicode="A" d="M92 0l789 1499h151l289 -1499h-154l-80 418h-608l-221 -418h-166zM559 569h500l-129 717z" />
<glyph unicode="B" horiz-adv-x="1222" d="M164 0l237 1499h580q62 0 113.5 -13t86.5 -35.5t62 -53t41 -66t23 -73.5q8 -35 9 -70q0 -4 -1 -8q-1 -39 -4 -76q-32 -266 -244 -326q58 -10 109 -109q37 -72 37 -176q0 -39 -5 -81q-51 -412 -465 -412h-579zM342 152h426q244 0 287 270q7 34 7 67q0 23 -3 43 q-8 52 -29.5 91.5t-66.5 63.5t-107 24h-426zM455 862h426q236 0 276 248q6 46 6 81q-1 3 -1 6q0 37 -13 63.5t-29.5 43.5t-43 26.5t-53.5 13.5t-62 4h-429z" />
<glyph unicode="C" horiz-adv-x="1183" d="M218 576q3 87 18 178q26 153 56 264t78 210t112 159t156.5 94.5t213.5 34.5q75 0 225.5 -20t265.5 -42l-18 -121q-39 5 -105 12t-182 14q-91 5 -163 5h-41q-90 -2 -138 -19q-229 -84 -309 -595q-21 -108 -21 -205v-28q4 -109 29.5 -190.5t84.5 -131t147 -56.5 q35 -2 87 -2q148 0 431 19l-17 -121q-174 -47 -510 -47q-94 0 -166.5 32t-117.5 89.5t-73.5 130.5t-36.5 161q-6 65 -7 130q0 22 1 45z" />
<glyph unicode="D" horiz-adv-x="1368" d="M164 0l237 1497q0 2 560 2q95 0 170 -29t121.5 -76.5t78 -113.5t45 -134t16.5 -144q1 -28 1 -55q0 -44 -3 -83q-5 -62 -16 -121q-130 -743 -651 -743h-559zM340 158h408q96 0 178.5 48.5t141 131.5t97.5 186t58 221q20 126 20 225q0 144 -42 231q-71 147 -265 147h-408z " />
<glyph unicode="E" horiz-adv-x="1161" d="M201 252l155 981q44 267 279 267q11 0 22 -1l643 -33l-18 -118h-649q-66 0 -91.5 -31.5t-33.5 -83.5l-66 -410l672 -20l-20 -121l-676 -20l-66 -410q-4 -31 1.5 -52.5t14 -32t29 -16t32 -6t36.5 -0.5h629l-21 -116l-635 -35q-10 -1 -19 -1q-42 -1 -80 11 q-46 14 -81.5 43.5t-51.5 82.5q-9 31 -9 68q0 26 4 54z" />
<glyph unicode="F" horiz-adv-x="1163" d="M164 0l194 1233q44 267 279 267q11 0 22 -1l644 -33l-19 -118h-649q-66 0 -91.5 -31.5t-33.5 -83.5l-64 -410l670 -20l-18 -121l-678 -20l-105 -662h-151z" />
<glyph unicode="G" horiz-adv-x="1247" d="M222 574q3 88 18 178q21 127 45.5 223.5t59.5 186t81 151.5t107.5 108.5t142.5 69t182 22.5h7q70 0 206 -17q143 -19 260 -42l-16 -121q-151 22 -475 29q-18 3 -39.5 0.5t-44.5 -3.5t-48 -10.5t-50 -21.5t-50.5 -37t-49.5 -55.5t-47.5 -78t-43.5 -104.5t-38.5 -135 t-31.5 -169q-19 -103 -19 -196q0 -21 1 -40q5 -112 30.5 -195.5t84.5 -132.5q59 -47 143 -47h4q71 0 170.5 28.5t162.5 56.5l64 28l70 393h-346l16 102q194 52 367 52q63 0 137 -6l-125 -791h-117l-20 117q-54 -48 -169.5 -89.5t-225.5 -41.5q-92 0 -164.5 32.5t-117.5 90 t-74.5 130.5t-38.5 161q-8 69 -8 138v36z" />
<glyph unicode="H" horiz-adv-x="1318" d="M174 0l238 1499h151l-112 -698h716l113 698h152l-238 -1499h-152l105 649h-717l-104 -649h-152z" />
<glyph unicode="I" horiz-adv-x="460" d="M184 0l238 1499h151l-237 -1499h-152z" />
<glyph unicode="J" horiz-adv-x="737" d="M78 43l26 111q41 -11 67 -16.5t69 -11.5q29 -3 51 -3q12 0 23 1q29 3 65.5 15t60.5 36t44.5 65t29.5 98l184 1161h152l-184 -1161q-7 -46 -15 -80.5t-24.5 -79.5t-45.5 -81.5t-69 -59.5q-86 -50 -213 -50q-6 0 -13 1q-135 2 -208 55z" />
<glyph unicode="K" horiz-adv-x="1171" d="M164 0l237 1499h152l-107 -672h179l563 672h188l-622 -758l385 -741h-183l-346 676h-186l-107 -676h-153z" />
<glyph unicode="L" horiz-adv-x="1095" d="M203 258l200 1241h150l-199 -1241q-2 -16 -3 -29t2 -23t6 -18t9.5 -13.5t11.5 -9.5t14.5 -6.5t15.5 -4t17.5 -2t17 -0.5h17.5h5h627l-23 -152h-631q-54 0 -99.5 13.5t-81.5 42.5q-35 29 -51 81q-9 30 -10 67q0 25 5 54z" />
<glyph unicode="M" horiz-adv-x="1642" d="M145 0l336 1499h197l209 -1247l590 1247h206l-122 -1499h-152l107 1227l-584 -1227h-156l-203 1225l-276 -1225h-152z" />
<glyph unicode="N" d="M164 0l237 1499h148l571 -1216l193 1216h151l-237 -1499h-144l-573 1217l-193 -1217h-153z" />
<glyph unicode="O" horiz-adv-x="1366" d="M212 483q2 113 24 256q33 207 81 349.5t102.5 225t137.5 126.5t161.5 56.5t199.5 12.5q83 0 144.5 -7t123 -27t102.5 -55.5t74 -93.5t46 -138q11 -70 11 -163v-30q-2 -113 -24 -256q-21 -140 -51 -249.5t-65 -188t-82 -134.5t-95.5 -89.5t-113.5 -53t-127 -26t-144 -6.5 q-80 0 -137.5 5.5t-121 23.5t-105 50t-77.5 88q-36 55 -51 133q-14 70 -14 171q1 10 1 20zM362 391q4 -64 24.5 -107.5t47.5 -71.5t72.5 -43t94.5 -20.5t120 -5.5q78 0 135 9t111.5 32.5t94 65.5t74.5 108t61 160t46 221q18 113 25 202q3 42 3 78q0 41 -4 75 q-8 64 -18.5 110t-40 74.5t-53 45t-71 24t-79.5 9t-92 1.5q-64 0 -98 -1.5t-84.5 -9t-79 -24t-66.5 -45.5t-62 -74.5t-51 -109.5t-47 -152.5t-38 -202.5q-17 -113 -23 -199q-3 -47 -4 -87q0 -33 2 -62z" />
<glyph unicode="P" horiz-adv-x="1218" d="M154 0l237 1499h627q42 0 80.5 -9t76.5 -29t66 -53t48.5 -81t24.5 -113q1 -20 2 -42q0 -49 -7 -107q-13 -94 -36 -168t-47.5 -121.5t-62.5 -80.5t-66 -49.5t-73.5 -25t-70 -9.5t-68.5 -1h-6q-60 0 -260.5 15t-208.5 20l-105 -645h-151zM426 762h473q36 0 63.5 5 t59.5 23.5t55.5 50t44.5 88.5t33 136q7 49 7 89q0 3 1 6q0 36 -6 62q-6 28 -15 49.5t-24 34.5t-28.5 21.5t-32.5 12.5t-32.5 5t-31.5 1h-475z" />
<glyph unicode="Q" horiz-adv-x="1374" d="M220 483q1 113 24 256q33 207 81 349.5t102.5 225t137.5 126.5t161.5 56.5t199.5 12.5q83 0 144.5 -7t123 -27t102.5 -55.5t74 -93t46 -138.5q11 -69 11 -163v-30q-2 -113 -24 -256q-21 -140 -51 -249.5t-65 -188t-82 -134.5t-95.5 -89.5t-113.5 -53t-127 -26t-144 -6.5 q-80 0 -137.5 5.5t-121 23.5t-105 50t-77.5 88t-51 133q-14 71 -14 171q0 10 1 20zM370 391q5 -64 25 -107.5t47 -71.5t72.5 -43t94.5 -20.5t120 -5.5q78 0 135 9t111.5 32.5t94 65.5t74.5 108t61 160t46 221q20 129 24 227q2 41 2 77q0 49 -3 87q-6 65 -33 109.5t-51 68 t-76 35t-87.5 13.5t-104.5 2q-64 0 -98 -1.5t-85 -9t-79 -24t-66.5 -45.5t-62 -74.5t-51 -109.5t-47.5 -152.5t-38 -202.5q-18 -113 -23 -199q-4 -47 -4 -87q0 -33 2 -62zM633 -68h106q55 -44 111 -60q41 -12 79 -12q15 0 29 2q52 6 119 29l-26 -163q-47 -17 -103 -20 q-11 -1 -22 -1q-45 0 -90 11q-55 12 -100.5 37.5t-74 71.5t-28.5 105z" />
<glyph unicode="R" horiz-adv-x="1249" d="M154 0l237 1499h639q69 0 122 -23t93.5 -73t56.5 -140q9 -50 9 -110q0 -49 -6 -104q-8 -81 -28 -147t-43 -109t-55.5 -76t-58 -50t-58.5 -29t-47.5 -14.5t-35.5 -5.5l217 -618h-166l-203 602l-421 29l-101 -631h-151zM428 762h475q45 0 84.5 14.5t75 46t59 89t29.5 137.5 q5 50 5 90v10q0 34 -4 60q-4 30 -9.5 52.5t-16 37.5t-22 24.5t-28 14.5t-32.5 6.5t-38 1.5h-486z" />
<glyph unicode="S" horiz-adv-x="1169" d="M162 33l18 123q154 -21 506 -21q264 0 293 184l22 140q7 50 7 89v14q-2 44 -37 70.5t-109 26.5h-284q-67 0 -119.5 11.5t-87 31t-58 48t-34.5 58.5t-15 67q-3 25 -3 47q0 12 1 22q2 32 8 68l21 135q15 93 47 161t73.5 107.5t98.5 62.5q58 24 115 30q39 4 85 4q21 0 44 -1 q78 -3 245 -19.5t256 -29.5l-18 -121q-45 0 -172 4.5t-231 9.5l-105 5q-23 1 -43 1q-36 1 -64 -3q-42 -6 -81.5 -27.5t-63.5 -66.5t-35 -117l-20 -135q-7 -43 -7 -75.5t6.5 -53.5t17.5 -36t26 -21.5t33 -10.5t38.5 -4h42.5h8h7h8h285q73 0 127 -20.5t83 -54.5t47 -80 q17 -43 16 -91v-5q-1 -50 -7 -101l-23 -140q-10 -65 -33 -116.5t-51.5 -86t-68 -60t-76 -39t-82.5 -21.5t-80.5 -10t-76.5 -2q-105 0 -267.5 17.5t-232.5 31.5z" />
<glyph unicode="T" horiz-adv-x="1185" d="M285 1348l24 151h1041l-25 -151h-451l-212 -1348h-152l213 1348h-438z" />
<glyph unicode="U" horiz-adv-x="1343" d="M250 328q-5 44 -5 95q0 87 15 195l139 881h154l-139 -881q-15 -96 -17 -170v-20q0 -60 11 -106q13 -52 36.5 -87.5t62.5 -56t86.5 -29t111.5 -8.5q103 0 176.5 23t131 78.5t94.5 147t58 228.5l140 881h153l-139 -881q-12 -75 -23.5 -128t-34.5 -123.5t-51.5 -119.5 t-76 -101t-107.5 -83.5t-145 -52t-189 -20.5q-129 0 -219.5 34.5t-149.5 109t-73 194.5z" />
<glyph unicode="V" horiz-adv-x="1372" d="M307 1499h160l238 -1255l657 1255h174l-788 -1499h-152z" />
<glyph unicode="W" horiz-adv-x="2052" d="M307 1499h154l239 -1251l662 1251h172l-266 -516l121 -747l661 1263h166l-789 -1499h-151l-125 766l-403 -766h-152z" />
<glyph unicode="X" horiz-adv-x="1230" d="M78 0l565 745l-334 754h160l274 -620l469 620h183l-584 -772l322 -727h-160l-262 594l-451 -594h-182z" />
<glyph unicode="Y" horiz-adv-x="1290" d="M307 1499h160l262 -780l545 780h180l-672 -967l-84 -532h-151l84 532z" />
<glyph unicode="Z" horiz-adv-x="1155" d="M72 0l24 152l1000 1196h-811l24 151h1010l-25 -151l-999 -1196h811l-25 -152h-1009z" />
<glyph unicode="[" horiz-adv-x="657" d="M152.5 -198.5q-1.5 36.5 0.5 64t7 56.5l235 1487q10 60 21.5 102t35.5 85t58 69t88.5 42.5t126.5 16.5h164l-25 -151h-164q-64 0 -100.5 -34.5t-52.5 -129.5l-236 -1487q-10 -66 -11 -104t11.5 -60.5t34 -29.5t62.5 -7h163l-24 -151h-164q-52 0 -92.5 13.5t-65.5 35.5 t-41 53t-23 62t-8.5 67.5z" />
<glyph unicode="\" horiz-adv-x="800" d="M289 1577h145l303 -1724h-145z" />
<glyph unicode="]" horiz-adv-x="659" d="M-27 -430l25 151h164q64 0 100.5 34.5t52.5 129.5l236 1487q19 129 0.5 165t-96.5 36h-164l24 151h164q52 0 92.5 -13.5t65.5 -35.5t41 -53t23 -62t8.5 -67.5t-0.5 -64t-7 -56.5l-235 -1487q-10 -60 -21.5 -102t-35.5 -85t-58 -69t-88.5 -42.5t-126.5 -16.5h-164z" />
<glyph unicode="^" horiz-adv-x="802" d="M274 1087l283 269h145l170 -269h-141l-106 164l-179 -164h-172z" />
<glyph unicode="_" horiz-adv-x="1378" d="M39 -2l24 152h1299l-25 -152h-1298z" />
<glyph unicode="`" horiz-adv-x="520" d="M256 1360h178l217 -273h-141z" />
<glyph unicode="a" horiz-adv-x="1107" d="M164 382q3 84 20 187q21 128 59 224t80 152t97.5 92t102 50t104.5 21q35 4 74 5q93 0 211 -26q168 -36 241 -106l-143 -981h-109l-22 123q-43 -28 -91 -54t-133 -54.5t-157 -28.5q-53 0 -95 6.5t-83 23t-69.5 44.5t-50.5 72q-22 46 -30 106q-6 46 -7 102q0 20 1 42z M330 514q-15 -95 -15 -164q-1 -83 21 -129q40 -84 162 -84q75 0 145 14.5t114 31t132 53.5l106 690q-95 24 -191 34q-43 4 -79 5q-46 0 -82 -7q-28 -5 -44 -9t-41.5 -12t-41 -18t-37.5 -27.5t-36.5 -39.5t-32.5 -54.5t-31 -72.5t-26 -93.5t-23 -117.5z" />
<glyph unicode="b" horiz-adv-x="1134" d="M123 0l254 1608h147l-92 -586q99 38 214 60t190 22q301 0 301 -360q0 -91 -19 -205q-11 -66 -20.5 -111t-28 -109.5t-39.5 -108t-55.5 -91t-75.5 -75.5t-99 -44q-47 -13 -101 -13q-13 0 -27 1q-95 5 -217 51.5t-164 81.5l-60 -121h-108zM309 233q66 -29 112.5 -46 t122.5 -32.5t152 -15.5q112 0 176.5 100t94.5 300q10 69 15 118.5t5 100t-9.5 83.5t-28 59.5t-50 39t-76.5 12.5q-114 0 -203 -12t-204 -41z" />
<glyph unicode="c" horiz-adv-x="1015" d="M164 329q-1 18 -1 37q0 80 19 179q19 109 43.5 194t50.5 143t59.5 99.5t64.5 64.5t72.5 36t75.5 16.5t81 3.5q157 0 456 -58l-16 -110q-283 16 -465 16q-43 0 -68.5 -4.5t-57.5 -26.5t-54 -65t-46 -121.5t-46 -195.5q-20 -117 -20 -195q0 -76 21 -120q21 -46 55.5 -65.5 t86.5 -19.5q84 0 205.5 5.5t201.5 11.5l79 6l-19 -115q-126 -35 -232 -47q-91 -11 -203 -10h-36q-65 1 -117.5 19.5t-95.5 59t-65.5 105t-28.5 157.5z" />
<glyph unicode="d" horiz-adv-x="1130" d="M170 411q2 63 12 128q16 97 35 171.5t54.5 152t81.5 127.5t117 82t161 32q76 0 189 -22.5t200 -59.5l94 586h148l-256 -1608h-109l-20 121q-60 -40 -184 -86.5t-216 -46.5q-70 0 -124.5 23t-89 64.5t-57 94t-30.5 115.5q-7 53 -7 106q1 10 1 20zM334 539 q-15 -87 -15 -157q0 -82 21 -138q38 -104 141 -105q76 0 156.5 15.5t131.5 32.5t126 46l104 666q-105 29 -191.5 41t-201.5 12q-49 0 -87 -18t-73.5 -62.5t-63.5 -127.5t-48 -205z" />
<glyph unicode="e" horiz-adv-x="1075" d="M182 569q13 69 25 119.5t29.5 105t39 93t51 76.5t67 63t85.5 44.5t109 28.5t135 9q209 0 311 -72q84 -59 84 -184q0 -27 -4 -57q-12 -92 -58.5 -161t-111.5 -106.5t-144 -59.5q-80 -24 -156 -28q-46 -3 -89 -2q-29 0 -57 1q-70 3 -116 10.5t-65 15.5q-17 -90 -17 -153 q0 -25 2 -46q10 -74 46.5 -104t110.5 -31q51 -4 109 -4q170 0 401 33l-17 -115q-216 -59 -512 -59q-194 0 -254 140q-31 73 -31 189q0 108 27 254zM334 575q12 -1 33 -3t83 -3h24q48 0 94 3q56 4 127 18t124 37.5t93.5 66.5t50.5 101q4 24 4 45q1 24 -5 41q-10 33 -46.5 49 t-80.5 21t-120 5q-109 0 -180 -25t-109.5 -86t-52 -101.5t-31.5 -131.5q-5 -25 -8 -37z" />
<glyph unicode="f" horiz-adv-x="825" d="M188 936l19 113l213 38l12 74q16 102 33.5 170.5t44 125t64 87.5t89 47.5t123.5 16.5q82 0 244 -49l-14 -101h-230q-102 0 -138.5 -57.5t-63.5 -239.5l-13 -74h338l-24 -151h-340l-156 -936h-151l153 936h-203z" />
<glyph unicode="g" horiz-adv-x="1132" d="M76 -508l16 100h529q76 0 133 50.5t71 144.5l43 272q-202 -77 -370 -77q-96 0 -163 30t-103.5 80.5t-51.5 126.5q-13 64 -13 132v27q3 82 19 185q41 257 159.5 397t291.5 140q96 0 206 -9.5t211 -22.5t124 -15l-201 -1266q-29 -180 -138 -269q-95 -77 -209 -77 q-17 0 -34 2zM318 379q-1 -20 -1 -36q0 -23 3 -39q3 -29 14 -65.5t30.5 -57.5t53 -35.5t78.5 -14.5q114 0 186.5 9.5t204.5 41.5l123 766h-373q-62 0 -113.5 -33.5t-82.5 -79.5t-54.5 -107t-33 -101.5t-15.5 -77.5q-1 -9 -4 -28q-7 -45 -10 -70t-6 -72z" />
<glyph unicode="h" horiz-adv-x="1114" d="M123 0l254 1606h151l-102 -645q6 3 44 23.5t47 24.5t42.5 21t47 21.5t43.5 17t49 16.5t47 10.5t53.5 8.5t52.5 2q104 0 174 -50t96 -128q16 -49 16 -104q0 -32 -5 -66l-121 -758h-152l121 758q3 24 3 45q0 63 -32 101q-42 50 -125 50q-79 0 -149.5 -15.5t-116 -34 t-153.5 -66.5l-134 -838h-151z" />
<glyph unicode="i" horiz-adv-x="399" d="M123 0l172 1087h151l-172 -1087h-151zM299 1262l16 110q7 51 58 51h102q22 0 32 -14q8 -11 7 -27v-10l-16 -110q-3 -23 -18.5 -35.5t-37.5 -12.5h-102q-22 0 -33 13q-9 10 -9 26q0 4 1 9z" />
<glyph unicode="j" horiz-adv-x="444" d="M57 -553l260 1640h152l-174 -1095q-50 -324 -139 -545h-99zM322 1262l18 110q7 51 57 51h103q22 0 32 -14q8 -11 8 -27q0 -5 -1 -10l-19 -110q-3 -23 -18 -35.5t-37 -12.5h-103q-22 0 -32 13q-9 10 -9 26q0 4 1 9z" />
<glyph unicode="k" horiz-adv-x="1003" d="M123 0l254 1602h151l-151 -955q90 27 206.5 101.5t209 170t108.5 168.5h170q-22 -78 -80.5 -160.5t-130 -148t-141.5 -115t-125 -73.5l412 -590h-185l-381 549l-78 -2l-88 -547h-151z" />
<glyph unicode="l" horiz-adv-x="593" d="M182 387l193 1217h151l-192 -1217q-10 -61 -11 -101v-15q0 -30 3 -49q4 -24 19 -38t29.5 -19.5t43.5 -12.5q151 -37 153 -37l-18 -115h-139q-147 0 -205 95q-38 62 -38 167q0 56 11 125z" />
<glyph unicode="m" horiz-adv-x="1839" d="M123 0l172 1087h106l25 -131q19 10 64.5 35t66 35.5t60.5 28t69 25t69 14t81 6.5q92 0 166.5 -50t97.5 -126q242 176 475 176q135 0 219 -99q66 -77 66 -186q0 -31 -5 -65l-118 -750h-152l119 750q3 20 3 37q1 63 -35 106q-46 55 -122 55q-128 0 -218 -24t-202 -90 l-12 -89l-119 -745h-151l119 750q3 19 3 37q0 63 -36 106q-46 55 -123 55q-25 0 -48 -1.5t-40 -2.5t-40.5 -6.5t-35 -7t-37.5 -11t-34 -12t-39.5 -16t-38 -16t-45 -20t-47.5 -21.5l-132 -834h-151z" />
<glyph unicode="n" horiz-adv-x="1114" d="M123 0l172 1087h106l25 -126q6 3 44 23.5t47 24.5t42.5 21t47 21.5t43.5 17t49 16.5t47 10.5t53.5 8.5t52.5 2q104 0 174 -50t96 -128q16 -49 16 -104q0 -32 -5 -66l-121 -758h-152l121 758q3 24 3 45q0 63 -32 101q-43 50 -125 50q-79 0 -149.5 -15.5t-116 -34 t-153.5 -66.5l-134 -838h-151z" />
<glyph unicode="o" horiz-adv-x="1155" d="M182 528q27 169 67 276.5t108 174.5t159.5 93t228.5 26q255 0 349 -140q63 -93 63 -251q0 -81 -16 -179q-26 -156 -63 -254.5t-100 -164.5t-153.5 -92.5t-226.5 -26.5q-266 0 -364 124q-67 85 -66 247q0 75 14 167zM319 396v-27q1 -41 5 -72q6 -41 24 -69.5t39.5 -45.5 t57.5 -26t70.5 -12t84.5 -3q61 0 100 4t82 17t71 38.5t55 68t46.5 106.5t34.5 153q18 106 18 178t-14.5 120t-51.5 74t-86.5 36t-125.5 10q-54 0 -91 -3.5t-76 -13.5t-65.5 -29t-52.5 -49.5t-44.5 -75t-35 -105.5t-30.5 -142q-13 -74 -15 -132z" />
<glyph unicode="p" horiz-adv-x="1144" d="M35 -553l272 1620q235 27 518 27q320 0 320 -404q0 -79 -12 -172q-15 -110 -47 -202t-84 -168.5t-132 -120t-180 -43.5q-83 0 -202 19.5t-203 55.5l-101 -612h-149zM307 184q159 -54 292 -54q52 0 101 9q39 7 65 15t62.5 34t61.5 66t50.5 112.5t41.5 172.5q14 88 14 157 q0 246 -178 246h-383z" />
<glyph unicode="q" horiz-adv-x="1132" d="M168 365q2 82 18 184q42 265 157.5 408t307.5 143q96 0 202.5 -9.5t203.5 -22.5t121 -15l-254 -1606h-152l96 612q-100 -38 -201.5 -58.5t-174.5 -20.5q-92 0 -157 28.5t-101 78t-52 123.5q-14 65 -14 137v18zM317 301q8 -128 100 -159q34 -11 81 -11q114 0 186.5 9.5 t204.5 41.5l121 766h-383q-58 0 -106.5 -30t-78.5 -72.5t-53 -101t-34 -104t-17 -91.5q-22 -157 -22 -228q0 -11 1 -20z" />
<glyph unicode="r" horiz-adv-x="874" d="M123 0l172 1087h106l23 -137q11 6 56.5 30.5t61 32t55 26t62.5 26t58.5 18t68.5 14t68 3.5q117 0 150 -17l-25 -149q-50 12 -150 12q-60 0 -107 -6t-106.5 -26.5t-90.5 -34t-119 -52.5l-132 -827h-151z" />
<glyph unicode="s" horiz-adv-x="1040" d="M131 18l19 113h561q1 2 11.5 0t29 4t36 15t33 33.5t21.5 58.5l18 110q3 18 3 34q0 32 -14 51q-21 28 -85 28h-303q-153 1 -219 61q-49 44 -49 135q0 33 6 72l16 105q23 137 98 203.5t228 66.5q72 0 254 -12t276 -21l-18 -117h-535q-37 0 -65 -9t-43 -21t-25 -31 t-12.5 -30.5t-5.5 -28.5l-17 -105q-4 -22 -4 -40t3 -30t7 -21t13 -14t16 -8t18.5 -4t19 -1t21 0.5t19.5 0.5h307q131 0 196 -74q50 -57 50 -139q0 -24 -4 -51l-19 -129q-10 -64 -35 -110.5t-54.5 -71.5t-70.5 -39.5t-73.5 -18t-73.5 -3.5q-67 0 -273 15t-282 23z" />
<glyph unicode="t" horiz-adv-x="774" d="M188 938l19 115l209 37l84 303h114l-47 -303h318l-25 -152h-317l-86 -551q-9 -61 -10 -101v-17q1 -29 3 -47q4 -24 19 -38t29 -20t43 -12q151 -37 153 -37l-16 -115h-139q-149 0 -207 94q-37 61 -38 166q0 57 11 127l86 551h-203z" />
<glyph unicode="u" horiz-adv-x="1112" d="M156 330l118 757h152l-119 -757q-5 -31 -5 -57q0 -64 30 -96q42 -44 129 -44q78 0 149.5 16t116.5 34t154 67l131 837h151l-172 -1087h-106l-25 127q-6 -3 -49.5 -26t-52.5 -27.5t-47 -23t-53.5 -23.5t-49.5 -17t-56.5 -16t-54 -8t-61.5 -4q-158 0 -231 98 q-55 74 -55 178q0 34 6 72z" />
<glyph unicode="v" horiz-adv-x="1054" d="M193 1087h157l213 -901l381 738q23 46 34 78t19 85h121q15 -43 15 -84q0 -53 -25 -104l-469 -899h-190z" />
<glyph unicode="w" horiz-adv-x="1634" d="M193 1087h151l207 -890l383 721q23 46 34 78t19 85h111q14 -42 14 -83q0 -54 -25 -105l-59 -133l111 -551l397 715q23 46 34 78t19 85h113q16 -47 16 -89q0 -54 -26 -99l-506 -899h-150l-118 573l-302 -573h-167z" />
<glyph unicode="x" horiz-adv-x="1073" d="M49 0l481 549l-309 538h174l240 -417l366 417h195l-481 -557l303 -530h-174l-236 410l-354 -410h-205z" />
<glyph unicode="y" horiz-adv-x="1124" d="M193 1087h157l131 -849q7 -44 42 -64q32 -18 61 -18h6l31 2l395 770q36 68 51 164h125q13 -39 13 -78q0 -60 -31 -119l-453 -893q-67 -131 -119.5 -216.5t-115.5 -160.5t-132.5 -117t-152.5 -59v109q59 39 110.5 91.5t96.5 119.5t71 112.5t64 118.5q-20 0 -40 3.5 t-50.5 17t-54.5 36.5t-45.5 66.5t-30.5 101.5z" />
<glyph unicode="z" horiz-adv-x="933" d="M92 2l19 152l706 782h-604l20 151h811l-20 -151l-694 -782h565l-23 -152h-780z" />
<glyph unicode="{" horiz-adv-x="655" d="M137 635l23 137h37t43 0.5t39.5 5.5t38 13.5t26 26t16.5 42.5l76 483q30 184 142.5 282.5t308.5 98.5l-25 -151q-113 2 -183 -51t-91 -179l-76 -483q-11 -70 -67 -114t-136 -58q72 -11 114 -60.5t32 -113.5l-82 -508q-18 -110 2.5 -176t68.5 -89.5t125 -19.5l-24 -151 q-71 0 -128 18t-94 49t-63 73t-35.5 90.5t-12 101t8.5 104.5l82 500q10 61 -44.5 97.5t-121.5 31.5z" />
<glyph unicode="|" horiz-adv-x="501" d="M152 -147l272 1724h151l-272 -1724h-151z" />
<glyph unicode="}" horiz-adv-x="645" d="M-27 -430l25 151q112 -2 181.5 50.5t90.5 179.5l78 483q11 70 66 114t135 58q-72 11 -112.5 60.5t-30.5 113.5l81 508q18 110 -2.5 176t-68.5 89.5t-125 19.5l24 151q71 0 128 -18t94 -49t63 -73t35.5 -90.5t12 -101t-8.5 -104.5l-82 -500q-10 -61 44.5 -97.5 t121.5 -31.5l-23 -137h-37t-43 -0.5t-39.5 -5.5t-38 -13.5t-26 -26t-16.5 -42.5l-78 -483q-30 -184 -142 -282.5t-307 -98.5z" />
<glyph unicode="~" horiz-adv-x="897" d="M287 1171q17 13 62 48.5t65.5 49t58 28t76.5 14.5q46 0 105.5 -36t99.5 -36q28 0 60 10t47.5 17t54 30t42.5 25l31 -86q-11 -9 -39.5 -34t-48.5 -41t-49 -35t-59.5 -28.5t-61.5 -9.5q-47 0 -111 36t-102 36q-36 0 -66.5 -11t-69.5 -31t-65 -30z" />
<glyph unicode="&#xa1;" horiz-adv-x="555" d="M92 -551l195 1088h153l-149 -1088h-199zM301 788l16 111q6 43 58 47h100q19 -2 31.5 -17t9.5 -36l-16 -105q-10 -40 -49 -51h-115q-38 3 -35 51z" />
<glyph unicode="&#xa2;" horiz-adv-x="1001" d="M145.5 326q-5.5 94 18.5 219q19 112 43.5 198.5t52.5 145.5t60.5 101t68.5 64t76 34.5t84 13.5t92 0l33 196h123l-35 -206q126 -15 307 -48l-18 -110q-283 16 -465 16q-31 0 -50 -2t-44 -10.5t-41.5 -25t-36.5 -46.5t-36 -73.5t-32.5 -107.5t-32.5 -148 q-19 -114 -19.5 -191t21 -123.5t56 -66t86.5 -19.5q84 0 205 5.5t200 11.5l80 6l-18 -115q-163 -46 -336 -55l-27 -187h-123l27 185q-69 1 -123.5 18.5t-99.5 57.5t-68 104t-28.5 158z" />
<glyph unicode="&#xa3;" horiz-adv-x="1220" d="M102 0l19 121l153 31l82 524h-147l14 92l154 35l37 231q12 74 30 135t38 106.5t49 80.5t55 58.5t64.5 39.5t68 25t75.5 13.5t77.5 5.5t82.5 1q52 0 151 -8.5t172 -16.5l73 -8l-19 -116h-383q-85 0 -139.5 -7.5t-98 -26t-70 -56t-44.5 -90.5t-31 -136l-37 -231l549 -35 l-14 -92h-555l-82 -524h715l-25 -152h-1014z" />
<glyph unicode="&#xa4;" horiz-adv-x="952" d="M162 362l106 91q-52 96 -37 192q17 116 76 186l-76 91l95 73l71 -86q94 62 197 62q60 0 116.5 -17.5t92.5 -48.5l115 96l69 -96l-113 -96q42 -83 27 -180q-16 -117 -80 -195l90 -108l-98 -76l-82 100q-79 -55 -209 -55q-106 0 -180 61l-106 -92zM356 641q-14 -90 37 -155 t137 -66q107 -1 168 58t82 155q19 86 -33 152t-149 65q-100 -1 -164 -60t-78 -149z" />
<glyph unicode="&#xa5;" horiz-adv-x="1230" d="M217 313l19 121h337l15 103h-336l20 120h326l-319 842h159l262 -682l543 682h182l-663 -842h385l-21 -120h-387l-14 -103h385l-18 -121h-381l-41 -313h-152l41 313h-342z" />
<glyph unicode="&#xa6;" horiz-adv-x="503" d="M152 -147l106 671h152l-107 -671h-151zM313 879l111 698h151l-110 -698h-152z" />
<glyph unicode="&#xa7;" horiz-adv-x="1128" d="M190 23l19 112h545q64 0 99.5 17t45.5 73l23 150q10 61 -13 78.5t-90 17.5h-354q-123 0 -191 63t-47 189l21 127q13 82 40 128t81 62q-49 34 -62.5 72.5t-3.5 95.5l23 144q40 254 305 254q66 0 271.5 -15.5t283.5 -23.5l-17 -113h-561q-57 0 -89 -22t-42 -80l-22 -144 q-8 -53 21 -74.5t77 -21.5h367q127 0 187 -73t42 -187l-21 -127q-24 -169 -112 -182q34 -14 49 -41.5t13.5 -59t-5.5 -67.5l-22 -150q-12 -78 -33.5 -124.5t-61.5 -73t-91.5 -35t-135.5 -8.5q-66 0 -261 15t-278 24zM377 723q-10 -64 12 -82t86 -18h367q44 0 71 7t39.5 24 t16.5 30t8 41l20 127q6 36 5 60.5t-25.5 37.5t-79.5 13h-367q-69 0 -95 -21t-38 -94z" />
<glyph unicode="&#xa8;" horiz-adv-x="933" d="M291 1192q6 42 42 72t79 30t67.5 -29.5t18.5 -72.5t-41 -74t-78 -31t-68.5 31t-19.5 74zM813 1192q6 42 42 72t79 30t67.5 -29.5t18.5 -72.5t-41 -74t-78 -31t-68.5 31t-19.5 74z" />
<glyph unicode="&#xa9;" horiz-adv-x="1648" d="M214 643q3 60 11 111q18 119 44 218.5t72.5 200.5t108 170t153.5 112.5t206 43.5h532q81 0 143 -28.5t99.5 -74t61 -111t32 -131t7.5 -142.5t-7 -136.5t-16 -121.5q-20 -123 -50.5 -230.5t-77 -205t-105 -167t-136.5 -110.5t-168 -41h-532q-81 0 -145.5 30.5t-105 80.5 t-69 117t-41 137t-16.5 144t-1 134zM340.5 576.5q-1.5 -87.5 13 -168.5t43.5 -142.5t80 -98t119 -36.5h545q61 0 119.5 39.5t110 115t93.5 195.5t66 273q10 63 16 112.5t10 116t0.5 117t-16.5 103.5t-37 87t-65 56t-97 22h-553q-58 0 -107 -16t-100 -58t-91.5 -109.5 t-75.5 -177t-58 -253.5q-14 -90 -15.5 -177.5zM586 748q21 132 57.5 222t85.5 137.5t101.5 67t119.5 19.5q85 0 357 -49l-17 -107q-176 25 -360 25q-163 0 -215 -322q-12 -88 -13 -156.5t30.5 -110.5t96.5 -42q139 0 383 33l-16 -107q-211 -57 -387 -57q-130 0 -194.5 111.5 t-28.5 335.5z" />
<glyph unicode="&#xaa;" horiz-adv-x="757" d="M147 549l19 119h622l-18 -119h-623zM222 1014q-2 57 7 133q13 84 41 148.5t59.5 100t73 59t72 32t66.5 12.5q72 8 192.5 -19t167.5 -73l-92 -627h-70l-20 115q-41 -45 -116.5 -84t-145.5 -39q-32 0 -61.5 6.5t-60.5 23t-53.5 44t-40 69.5t-19.5 99zM352 1118 q-34 -217 117 -217q64 0 118.5 25.5t139.5 81.5l47 342q-161 40 -237 20q-26 -7 -43 -13.5t-42 -24t-41.5 -42.5t-33 -69t-25.5 -103z" />
<glyph unicode="&#xab;" horiz-adv-x="1138" d="M217 725l488 416l94 -111l-375 -319l268 -316l-110 -96zM606 725l488 416l94 -111l-375 -319l268 -316l-110 -96z" />
<glyph unicode="&#xac;" horiz-adv-x="1079" d="M184 524l25 152h874l-55 -350h-151l30 198h-723z" />
<glyph unicode="&#xad;" horiz-adv-x="727" d="M123 518l24 152h644l-25 -152h-643z" />
<glyph unicode="&#xae;" horiz-adv-x="1648" d="M214 643q3 60 11 111q18 119 44 218.5t72.5 200.5t108 170t153.5 112.5t206 43.5h532q81 0 143 -28.5t99.5 -74t61 -111t32 -131t7.5 -142.5t-7 -136.5t-16 -121.5q-20 -123 -50.5 -230.5t-77 -205t-105 -167t-136.5 -110.5t-168 -41h-532q-81 0 -145.5 30.5t-105 80.5 t-69 117t-41 137t-16.5 144t-1 134zM340.5 576.5q-1.5 -87.5 13 -168.5t43.5 -142.5t80 -98t119 -36.5h545q61 0 119.5 39.5t110 115t93.5 195.5t66 273q10 63 16 112.5t10 116t0.5 117t-16.5 103.5t-37 87t-65 56t-97 22h-553q-58 0 -107 -16t-100 -58t-91.5 -109.5 t-75.5 -177t-58 -253.5q-14 -90 -15.5 -177.5zM578 313l139 875h362q45 0 85.5 -12t79.5 -40.5t58 -85.5t9 -137q-5 -46 -16 -83.5t-23 -62.5t-30.5 -44t-33 -29t-36.5 -17.5t-35 -9.5t-34.5 -5t-29.5 -5l131 -344h-147l-131 349l-158 24l-59 -373h-131zM782 776h244 q80 0 110.5 29t43.5 119q1 24 3 42.5t-4 32.5t-10.5 23.5t-15.5 16t-19 10.5t-21 5.5t-21.5 2t-20.5 0.5h-244z" />
<glyph unicode="&#xaf;" horiz-adv-x="802" d="M274 1087l21 130h598l-21 -130h-598z" />
<glyph unicode="&#xb0;" horiz-adv-x="614" d="M303 1294q0 88 61.5 149.5t147.5 61.5t146.5 -61.5t60.5 -149.5t-60.5 -148.5t-146.5 -60.5q-87 0 -148 61t-61 148zM399 1294q0 -45 33.5 -77.5t79.5 -32.5t78.5 32t32.5 78t-32.5 79.5t-78.5 33.5t-79.5 -33.5t-33.5 -79.5z" />
<glyph unicode="&#xb1;" horiz-adv-x="1077" d="M141 178l25 152h852l-25 -152h-852zM240 793l22 151h348l56 350h151l-55 -350h352l-22 -151h-353l-57 -351h-152l58 351h-348z" />
<glyph unicode="&#xb2;" horiz-adv-x="788" d="M154 729l18 119q20 14 79 54t102 71t105.5 78t108.5 90t91 92.5t72.5 100t35.5 98.5q12 85 -15 121t-114 36h-352q-2 0 1 24.5t7.5 49t5.5 23.5q14 2 63.5 7.5t65 7.5t55.5 6t64 5t59.5 2.5t71.5 1.5q66 0 115 -31t72.5 -76t32.5 -90.5t3 -80.5q-11 -73 -48 -145.5 t-85 -128.5t-105.5 -109.5t-105.5 -89t-90 -66.5t-53 -43h393l-21 -127h-632z" />
<glyph unicode="&#xb3;" horiz-adv-x="829" d="M156 758l16 88l363 2q64 0 109.5 30.5t55.5 94.5l9 47q11 73 -22.5 106t-94.5 35l-289 10l16 99l293 12q69 3 111 36.5t51 94.5l6 45q11 66 -15 94.5t-106 28.5h-380l14 88q58 19 124.5 28t132 9.5t146.5 -0.5q113 -1 169 -71.5t42 -168.5l-12 -71q-12 -72 -46 -125 t-77 -68q37 -27 55 -75.5t9 -104.5l-9 -57q-19 -120 -85.5 -182.5t-211.5 -61.5h-48h-49t-42 0.5t-44 1.5t-38 2.5t-41.5 4.5t-36 7t-39.5 9t-36 12z" />
<glyph unicode="&#xb4;" horiz-adv-x="495" d="M213 1087l262 273h195l-316 -273h-141z" />
<glyph unicode="&#xb5;" horiz-adv-x="1216" d="M96 -553l140 883l120 757h152l-121 -757q-14 -97 29 -147t125 -50q78 0 149.5 16t116.5 34t154 67l133 837h151l-172 -1087h-106l-25 127q-6 -3 -44 -23.5t-47 -24.5t-42.5 -21t-47 -21.5t-43.5 -17t-49 -16.5t-47 -10.5t-53.5 -8.5t-52.5 -2q-106 0 -176 51l-92 -586 h-152z" />
<glyph unicode="&#xb6;" horiz-adv-x="1189" d="M242 1022l28 190q46 287 369 287h747l-24 -156h-141l-213 -1343h-152l213 1348h-192l-302 -1901h-151l209 1315q-2 -1 -17.5 -7t-30.5 -12t-37 -11t-40 -5q-80 0 -138 28t-86.5 72.5t-39 94.5t-2.5 100zM395 1026q-7 -41 1 -70t22.5 -43.5t38.5 -22.5t39 -9.5t36 -1.5 h117l76 475h-111q-93 0 -136.5 -38.5t-53.5 -107.5z" />
<glyph unicode="&#xb7;" horiz-adv-x="555" d="M287 725l18 117q7 51 57 51h109q52 0 43 -51l-18 -117q-8 -47 -58 -47h-108q-22 0 -34 13t-9 34z" />
<glyph unicode="&#xb8;" horiz-adv-x="514" d="M45 -354l12 75l113 31q42 17 63 60.5t31 111.5h137q-25 -159 -77.5 -218.5t-173.5 -59.5h-105z" />
<glyph unicode="&#xb9;" horiz-adv-x="567" d="M236 1485l14 86q73 0 147 34.5t112 68.5l38 34h123l-156 -979h-127l133 825q-34 -26 -106 -47.5t-178 -21.5z" />
<glyph unicode="&#xba;" horiz-adv-x="794" d="M170 555l18 119h629l-18 -119h-629zM238 1126q18 111 42 179.5t67.5 117t109.5 68t166 20.5q177 2 250.5 -84t39.5 -301q-16 -103 -39 -167t-67 -111t-113 -66.5t-174 -19.5q-174 0 -243 86.5t-39 277.5zM356 1049q-2 -34 2.5 -58.5t10.5 -42t20 -28t26 -17t34.5 -9.5 t39 -4t44.5 -1h4q24 0 47 -0.5t45 4t41.5 12.5t37 25.5t32 42.5t26.5 63.5t20 89.5q8 54 10 93.5t0 67.5t-14.5 46t-23.5 28t-38 15t-46.5 6t-59.5 2q-41 1 -64.5 -1t-52.5 -9.5t-46 -24t-34.5 -45t-29.5 -72.5t-22 -106q-7 -43 -9 -77z" />
<glyph unicode="&#xbb;" horiz-adv-x="1132" d="M166 410l375 319l-269 315l111 97l365 -426l-488 -416zM563 410l375 319l-268 315l110 97l365 -426l-488 -416z" />
<glyph unicode="&#xbc;" horiz-adv-x="1849" d="M236 1280l14 86q46 0 93.5 14t82.5 34t63.5 40.5t42.5 34.5l15 14h123l-156 -979h-127l133 826q-35 -27 -106.5 -48.5t-177.5 -21.5zM352 0l1204 1577h125l-1204 -1577h-125zM1061 295l534 678h152l-459 -594h330l39 248l74 98h69l-55 -346h121l-17 -107l-125 -26 l-38 -246h-127l38 246h-497z" />
<glyph unicode="&#xbd;" horiz-adv-x="2015" d="M236 1280l14 86q46 0 93.5 14t82.5 34t63.5 40.5t42.5 34.5l15 14h123l-156 -979h-127l133 826q-35 -27 -106.5 -48.5t-177.5 -21.5zM330 0l1204 1577h125l-1204 -1577h-125zM1298 0l19 119q18 13 93.5 64.5t123.5 86t122.5 95t121 109.5t85.5 111t48 117 q12 85 -15 121.5t-114 36.5h-352q-2 0 1 24.5t7.5 48.5t5.5 23q19 2 75 9t78 9t65.5 6t81 5.5t79.5 1.5q66 0 115 -31t72.5 -76t32.5 -90.5t3 -80.5q-11 -73 -48 -145.5t-85 -128.5t-105.5 -109.5t-105.5 -89t-90 -66.5t-53 -43h393l-21 -127h-633z" />
<glyph unicode="&#xbe;" horiz-adv-x="2084" d="M156 553l16 88l363 2q64 0 109.5 30.5t55.5 94.5l9 47q11 73 -22.5 106t-94.5 35l-289 11l16 98l293 12q69 3 111 36.5t51 94.5l6 45q11 66 -15 94.5t-106 28.5h-380l14 88q58 19 124.5 28t132 9.5t146.5 -0.5q113 -1 169 -71t42 -168l-12 -72q-12 -72 -46 -125t-77 -68 q37 -27 55 -75.5t9 -104.5l-9 -57q-19 -120 -85.5 -182.5t-211.5 -61.5h-48h-49t-42 0.5t-44 1.5t-38 2.5t-41.5 4.5t-36 7t-39.5 9t-36 12zM553 0l1204 1577h125l-1204 -1577h-125zM1235 295l534 678h150l-459 -594h332l39 248l74 98h69l-55 -346h119l-17 -107l-123 -26 l-38 -246h-129l41 246h-500z" />
<glyph unicode="&#xbf;" horiz-adv-x="1101" d="M53 -174l33 207q14 91 50 157t87 102.5t116.5 56.5t139.5 18t156 -13q0 1 17 100.5t16 106.5h153l-53 -332q-194 3 -291 0q-85 -3 -155 -52t-86 -144l-33 -207q-20 -130 33.5 -182t209.5 -52h555l-16 -104q-25 -3 -85.5 -11t-85 -11t-74.5 -8.5t-81.5 -7.5t-77 -4 t-89.5 -1.5t-93 2.5q-132 0 -217.5 53.5t-115.5 137.5t-13 188zM686 797l19 116q6 48 53 48h112q22 0 34 -13t9 -35l-18 -116q-7 -52 -57 -52h-113q-22 0 -32 14.5t-7 37.5z" />
<glyph unicode="&#xc0;" d="M92 0l789 1499h151l289 -1499h-154l-80 418h-608l-221 -418h-166zM559 569h500l-129 717zM653 1905h178l218 -273h-142z" />
<glyph unicode="&#xc1;" d="M92 0l789 1499h151l289 -1499h-154l-80 418h-608l-221 -418h-166zM559 569h500l-129 717zM907 1632l262 273h195l-315 -273h-142z" />
<glyph unicode="&#xc2;" d="M92 0l789 1499h151l289 -1499h-154l-80 418h-608l-221 -418h-166zM559 569h500l-129 717zM678 1632l283 266h145l170 -266h-133l-117 170l-184 -170h-164z" />
<glyph unicode="&#xc3;" d="M92 0l789 1499h151l289 -1499h-154l-80 418h-608l-221 -418h-166zM559 569h500l-129 717zM643 1716q60 44 93 66.5t81.5 43.5t87.5 21q56 -3 118.5 -35.5t86.5 -33.5q32 -1 110.5 28.5t94.5 40.5l31 -86q-19 -12 -63 -42t-68 -44.5t-60 -28t-68 -12.5q-49 1 -85.5 19 t-64.5 35t-58 16q-41 -1 -72.5 -10.5t-75.5 -32.5t-57 -29z" />
<glyph unicode="&#xc4;" d="M92 0l789 1499h151l289 -1499h-154l-80 418h-608l-221 -418h-166zM559 569h500l-129 717zM631 1737q6 42 42 72t79 30t67.5 -29.5t18.5 -72.5t-41 -74t-78 -31t-68.5 31t-19.5 74zM1153 1737q6 42 42 72t79 30t67.5 -29.5t18.5 -72.5t-41 -74t-78 -31t-68.5 31t-19.5 74z " />
<glyph unicode="&#xc5;" d="M92 0l789 1499h55q-71 14 -114.5 71.5t-37.5 133.5q7 88 74.5 149.5t153.5 61.5t141 -61.5t47 -149.5q-6 -76 -59 -133.5t-127 -71.5h18l289 -1499h-154l-80 418h-608l-221 -418h-166zM559 569h500l-129 717zM881 1704q-4 -46 26 -78.5t76 -32.5t81 32.5t40 78.5 t-24.5 79.5t-75.5 33.5t-82 -33.5t-41 -79.5z" />
<glyph unicode="&#xc6;" horiz-adv-x="1886" d="M61 0l807 1237q29 43 57.5 78.5t53 62t53.5 46.5t49.5 33t50.5 21.5t47.5 13t49 6.5t47.5 2t50.5 -0.5t49.5 -0.5l649 -33l-18 -120h-655q-35 0 -57.5 -8t-34.5 -27.5t-16.5 -32t-10.5 -41.5l-68 -424l672 -20l-18 -121l-680 -21l-64 -403q-2 -16 -2.5 -29t2.5 -23t6 -18 t9.5 -14t11.5 -10t14.5 -6.5t15.5 -4t17.5 -2t17.5 -0.5h18h3h629l-21 -116l-635 -35q-53 -3 -98.5 10.5t-81 43t-51.5 82.5t-6 122l32 223h-411l-309 -471h-175zM641 623h342l115 688z" />
<glyph unicode="&#xc7;" horiz-adv-x="1183" d="M218 576q3 87 18 178q26 153 56 264t78 210t112 159t156.5 94.5t213.5 34.5q75 0 225.5 -20t265.5 -42l-18 -121q-39 5 -104.5 12t-182 14t-204.5 5q-89 -2 -137 -19q-226 -83 -306 -595q-24 -124 -21 -233t27.5 -190.5t83 -131t146.5 -56.5q137 -9 518 17l-17 -121 q-174 -47 -510 -47q-94 0 -166.5 32t-117.5 89.5t-73.5 130.5t-37 161t-5.5 175zM387 -354l12 75l113 31q30 8 50 36t28.5 59t15.5 77h137q-25 -159 -77.5 -218.5t-173.5 -59.5h-105z" />
<glyph unicode="&#xc8;" horiz-adv-x="1161" d="M201 252l155 981q46 279 301 266l643 -33l-18 -118h-649q-66 0 -91.5 -31.5t-33.5 -83.5l-66 -410l672 -20l-20 -121l-676 -20l-66 -410q-4 -31 1.5 -52.5t14 -32t29 -16t32 -6t36.5 -0.5h629l-21 -116l-635 -35q-53 -3 -99 10.5t-81.5 43t-51.5 82.5t-5 122zM571 1894 h179l217 -272h-142z" />
<glyph unicode="&#xc9;" horiz-adv-x="1161" d="M201 252l155 981q46 279 301 266l643 -33l-18 -118h-649q-66 0 -91.5 -31.5t-33.5 -83.5l-66 -410l672 -20l-20 -121l-676 -20l-66 -410q-4 -31 1.5 -52.5t14 -32t29 -16t32 -6t36.5 -0.5h629l-21 -116l-635 -35q-53 -3 -99 10.5t-81.5 43t-51.5 82.5t-5 122zM815 1622 l262 272h195l-316 -272h-141z" />
<glyph unicode="&#xca;" horiz-adv-x="1161" d="M201 252l155 981q46 279 301 266l643 -33l-18 -118h-649q-66 0 -91.5 -31.5t-33.5 -83.5l-66 -410l672 -20l-20 -121l-676 -20l-66 -410q-4 -31 1.5 -52.5t14 -32t29 -16t32 -6t36.5 -0.5h629l-21 -116l-635 -35q-53 -3 -99 10.5t-81.5 43t-51.5 82.5t-5 122zM584 1622 l282 268h146l170 -268h-142l-106 164l-178 -164h-172z" />
<glyph unicode="&#xcb;" horiz-adv-x="1161" d="M201 252l155 981q46 279 301 266l643 -33l-18 -118h-649q-66 0 -91.5 -31.5t-33.5 -83.5l-66 -410l672 -20l-20 -121l-676 -20l-66 -410q-4 -31 1.5 -52.5t14 -32t29 -16t32 -6t36.5 -0.5h629l-21 -116l-635 -35q-53 -3 -99 10.5t-81.5 43t-51.5 82.5t-5 122zM520 1726 q6 42 42 72.5t79 30.5t67.5 -30t18.5 -73t-41 -73.5t-78 -30.5t-68.5 30.5t-19.5 73.5zM1042 1726q6 42 42 72.5t79 30.5t67.5 -30t18.5 -73t-41 -73.5t-78 -30.5t-68.5 30.5t-19.5 73.5z" />
<glyph unicode="&#xcc;" horiz-adv-x="460" d="M184 0l238 1499h151l-237 -1499h-152zM195 1905h178l217 -273h-141z" />
<glyph unicode="&#xcd;" horiz-adv-x="460" d="M184 0l238 1499h151l-237 -1499h-152zM449 1632l262 273h194l-315 -273h-141z" />
<glyph unicode="&#xce;" horiz-adv-x="460" d="M184 0l238 1499h151l-237 -1499h-152zM219 1632l283 266h145l170 -266h-133l-117 170l-184 -170h-164z" />
<glyph unicode="&#xcf;" horiz-adv-x="460" d="M172 1737q6 42 42 72t79 30t67.5 -29.5t18.5 -72.5t-41 -74t-78 -31t-68.5 31t-19.5 74zM184 0l238 1499h151l-237 -1499h-152zM694 1737q6 42 42 72t79 30t67.5 -29.5t18.5 -72.5t-41 -74t-78 -31t-68.5 31t-19.5 74z" />
<glyph unicode="&#xd0;" horiz-adv-x="1368" d="M141 709l19 110h133l106 678q0 2 559 2q95 0 170 -29t122 -76.5t79 -113.5t45.5 -134t17 -144t-1.5 -138t-16 -121q-130 -743 -653 -743h-559l112 709h-133zM338 158h407q96 0 179 48.5t141 131.5t97.5 186t58.5 221q49 309 -22 456t-265 147h-408l-82 -529h285l-18 -110 h-285z" />
<glyph unicode="&#xd1;" d="M164 0l237 1499h148l571 -1216l193 1216h151l-237 -1499h-144l-573 1217l-193 -1217h-153zM604 1706q60 44 93 66.5t81.5 43.5t87.5 21q44 -3 83 -20t69 -33t53 -17q32 -1 110 29t95 41l31 -86q-20 -12 -63 -42t-67 -44.5t-60 -28t-68 -12.5q-49 1 -85.5 19t-65 35 t-58.5 16q-41 -1 -72.5 -10.5t-75.5 -32.5t-57 -29z" />
<glyph unicode="&#xd2;" horiz-adv-x="1366" d="M211.5 483q1.5 113 24.5 256q33 207 81 349.5t102.5 225t137.5 126.5t161.5 56.5t199.5 12.5q83 0 144.5 -7t123 -27t102.5 -55.5t74 -93t46 -138t11 -193.5t-24 -256q-21 -140 -51 -249.5t-65 -188t-82 -134.5t-95.5 -89.5t-113.5 -53t-127 -26t-144 -6.5 q-80 0 -137.5 5.5t-121 23.5t-105 50t-77.5 88t-51 133.5t-13.5 190.5zM362.5 391q4.5 -64 24.5 -107.5t47 -71.5t72.5 -43t94.5 -20.5t120 -5.5q78 0 135 9t111.5 32.5t94 65.5t74.5 108t61 160t46 221q18 113 25 202t-1 153t-18.5 110t-40 74.5t-53 45t-71 24t-79.5 9 t-92 1.5q-64 0 -98 -1.5t-84.5 -9t-79 -24t-66.5 -45.5t-62 -74.5t-51 -109.5t-47 -152.5t-38 -202.5q-18 -113 -23.5 -198.5t-1 -149.5zM612 1905h179l217 -273h-142z" />
<glyph unicode="&#xd3;" horiz-adv-x="1366" d="M211.5 483q1.5 113 24.5 256q33 207 81 349.5t102.5 225t137.5 126.5t161.5 56.5t199.5 12.5q83 0 144.5 -7t123 -27t102.5 -55.5t74 -93t46 -138t11 -193.5t-24 -256q-21 -140 -51 -249.5t-65 -188t-82 -134.5t-95.5 -89.5t-113.5 -53t-127 -26t-144 -6.5 q-80 0 -137.5 5.5t-121 23.5t-105 50t-77.5 88t-51 133.5t-13.5 190.5zM362.5 391q4.5 -64 24.5 -107.5t47 -71.5t72.5 -43t94.5 -20.5t120 -5.5q78 0 135 9t111.5 32.5t94 65.5t74.5 108t61 160t46 221q18 113 25 202t-1 153t-18.5 110t-40 74.5t-53 45t-71 24t-79.5 9 t-92 1.5q-64 0 -98 -1.5t-84.5 -9t-79 -24t-66.5 -45.5t-62 -74.5t-51 -109.5t-47 -152.5t-38 -202.5q-18 -113 -23.5 -198.5t-1 -149.5zM866 1632l262 273h195l-315 -273h-142z" />
<glyph unicode="&#xd4;" horiz-adv-x="1366" d="M211.5 483q1.5 113 24.5 256q33 207 81 349.5t102.5 225t137.5 126.5t161.5 56.5t199.5 12.5q83 0 144.5 -7t123 -27t102.5 -55.5t74 -93t46 -138t11 -193.5t-24 -256q-21 -140 -51 -249.5t-65 -188t-82 -134.5t-95.5 -89.5t-113.5 -53t-127 -26t-144 -6.5 q-80 0 -137.5 5.5t-121 23.5t-105 50t-77.5 88t-51 133.5t-13.5 190.5zM362.5 391q4.5 -64 24.5 -107.5t47 -71.5t72.5 -43t94.5 -20.5t120 -5.5q78 0 135 9t111.5 32.5t94 65.5t74.5 108t61 160t46 221q18 113 25 202t-1 153t-18.5 110t-40 74.5t-53 45t-71 24t-79.5 9 t-92 1.5q-64 0 -98 -1.5t-84.5 -9t-79 -24t-66.5 -45.5t-62 -74.5t-51 -109.5t-47 -152.5t-38 -202.5q-18 -113 -23.5 -198.5t-1 -149.5zM639 1632l283 266h145l170 -266h-133l-117 170l-184 -170h-164z" />
<glyph unicode="&#xd5;" horiz-adv-x="1366" d="M211.5 483q1.5 113 24.5 256q33 207 81 349.5t102.5 225t137.5 126.5t161.5 56.5t199.5 12.5q83 0 144.5 -7t123 -27t102.5 -55.5t74 -93t46 -138t11 -193.5t-24 -256q-21 -140 -51 -249.5t-65 -188t-82 -134.5t-95.5 -89.5t-113.5 -53t-127 -26t-144 -6.5 q-80 0 -137.5 5.5t-121 23.5t-105 50t-77.5 88t-51 133.5t-13.5 190.5zM362.5 391q4.5 -64 24.5 -107.5t47 -71.5t72.5 -43t94.5 -20.5t120 -5.5q78 0 135 9t111.5 32.5t94 65.5t74.5 108t61 160t46 221q18 113 25 202t-1 153t-18.5 110t-40 74.5t-53 45t-71 24t-79.5 9 t-92 1.5q-64 0 -98 -1.5t-84.5 -9t-79 -24t-66.5 -45.5t-62 -74.5t-51 -109.5t-47 -152.5t-38 -202.5q-18 -113 -23.5 -198.5t-1 -149.5zM602 1716q60 44 93 66.5t81.5 43.5t87.5 21q56 -3 118.5 -35.5t86.5 -33.5q32 -1 110.5 28.5t94.5 40.5l31 -86q-20 -12 -63 -42 t-67 -44.5t-60 -28t-68 -12.5q-49 1 -85.5 19t-65 35t-58.5 16q-41 -1 -72.5 -10.5t-75.5 -32.5t-57 -29z" />
<glyph unicode="&#xd6;" horiz-adv-x="1366" d="M211.5 483q1.5 113 24.5 256q33 207 81 349.5t102.5 225t137.5 126.5t161.5 56.5t199.5 12.5q83 0 144.5 -7t123 -27t102.5 -55.5t74 -93t46 -138t11 -193.5t-24 -256q-21 -140 -51 -249.5t-65 -188t-82 -134.5t-95.5 -89.5t-113.5 -53t-127 -26t-144 -6.5 q-80 0 -137.5 5.5t-121 23.5t-105 50t-77.5 88t-51 133.5t-13.5 190.5zM362.5 391q4.5 -64 24.5 -107.5t47 -71.5t72.5 -43t94.5 -20.5t120 -5.5q78 0 135 9t111.5 32.5t94 65.5t74.5 108t61 160t46 221q18 113 25 202t-1 153t-18.5 110t-40 74.5t-53 45t-71 24t-79.5 9 t-92 1.5q-64 0 -98 -1.5t-84.5 -9t-79 -24t-66.5 -45.5t-62 -74.5t-51 -109.5t-47 -152.5t-38 -202.5q-18 -113 -23.5 -198.5t-1 -149.5zM590 1737q6 42 42 72t79 30t67.5 -29.5t18.5 -72.5t-41 -74t-78 -31t-68.5 31t-19.5 74zM1112 1737q6 42 42 72t79 30t67.5 -29.5 t18.5 -72.5t-41 -74t-78 -31t-68.5 31t-19.5 74z" />
<glyph unicode="&#xd7;" horiz-adv-x="940" d="M190 485l285 246l-205 244l115 98l205 -244l299 258l92 -110l-297 -258l209 -248l-117 -98l-207 248l-286 -246z" />
<glyph unicode="&#xd8;" horiz-adv-x="1366" d="M141 0l127 160q-105 173 -39 579q33 207 81 349.5t102.5 225t137.5 126.5t161.5 56.5t199.5 12.5q127 0 217 -19t152 -69l61 78h125l-120 -151q109 -176 43 -609q-21 -140 -51 -249.5t-65 -188t-82 -134.5t-95.5 -89.5t-113.5 -53t-127 -26t-144 -6.5q-129 0 -221 19 t-156 73l-68 -84h-125zM377 295l805 1005q-43 37 -106.5 47.5t-168.5 10.5q-64 0 -98 -1.5t-84.5 -9t-79 -24t-66.5 -45.5t-62 -74.5t-51 -109.5t-47 -152.5t-38 -202.5q-50 -312 -4 -444zM432 209q42 -38 110 -52t173 -14q78 0 135 9t111.5 32.5t94 65.5t74.5 108t61 160 t46 221q52 338 2 475z" />
<glyph unicode="&#xd9;" horiz-adv-x="1343" d="M250 328.5q-14 119.5 10 289.5l139 881h154l-139 -881q-15 -97 -17 -170.5t11 -126t36.5 -87.5t62.5 -55.5t86.5 -29t111.5 -8.5q103 0 176.5 23t131 78.5t94.5 147t58 228.5l140 881h153l-139 -881q-12 -75 -23.5 -128t-34.5 -123.5t-51.5 -119.5t-76 -101t-107.5 -83.5 t-145 -52t-189 -20.5q-129 0 -219.5 34.5t-149.5 109.5t-73 194.5zM625 1905h178l217 -273h-141z" />
<glyph unicode="&#xda;" horiz-adv-x="1343" d="M250 328.5q-14 119.5 10 289.5l139 881h154l-139 -881q-15 -97 -17 -170.5t11 -126t36.5 -87.5t62.5 -55.5t86.5 -29t111.5 -8.5q103 0 176.5 23t131 78.5t94.5 147t58 228.5l140 881h153l-139 -881q-12 -75 -23.5 -128t-34.5 -123.5t-51.5 -119.5t-76 -101t-107.5 -83.5 t-145 -52t-189 -20.5q-129 0 -219.5 34.5t-149.5 109.5t-73 194.5zM879 1632l262 273h194l-315 -273h-141z" />
<glyph unicode="&#xdb;" horiz-adv-x="1343" d="M250 328.5q-14 119.5 10 289.5l139 881h154l-139 -881q-15 -97 -17 -170.5t11 -126t36.5 -87.5t62.5 -55.5t86.5 -29t111.5 -8.5q103 0 176.5 23t131 78.5t94.5 147t58 228.5l140 881h153l-139 -881q-12 -75 -23.5 -128t-34.5 -123.5t-51.5 -119.5t-76 -101t-107.5 -83.5 t-145 -52t-189 -20.5q-129 0 -219.5 34.5t-149.5 109.5t-73 194.5zM651 1632l283 266h145l170 -266h-133l-117 170l-184 -170h-164z" />
<glyph unicode="&#xdc;" horiz-adv-x="1343" d="M250 328.5q-14 119.5 10 289.5l139 881h154l-139 -881q-15 -97 -17 -170.5t11 -126t36.5 -87.5t62.5 -55.5t86.5 -29t111.5 -8.5q103 0 176.5 23t131 78.5t94.5 147t58 228.5l140 881h153l-139 -881q-12 -75 -23.5 -128t-34.5 -123.5t-51.5 -119.5t-76 -101t-107.5 -83.5 t-145 -52t-189 -20.5q-129 0 -219.5 34.5t-149.5 109.5t-73 194.5zM602 1737q6 42 42 72t79 30t67.5 -29.5t18.5 -72.5t-41 -74t-78 -31t-68.5 31t-19.5 74zM1124 1737q6 42 42 72t79 30t67.5 -29.5t18.5 -72.5t-41 -74t-78 -31t-68.5 31t-19.5 74z" />
<glyph unicode="&#xdd;" horiz-adv-x="1290" d="M307 1499h160l262 -780l545 780h180l-672 -967l-84 -532h-151l84 532zM831 1632l263 273h194l-315 -273h-142z" />
<glyph unicode="&#xde;" horiz-adv-x="1136" d="M123 0q39 249 117.5 746.5t117.5 746.5h152l-45 -289h403q25 0 50 -3.5t54.5 -12.5t54.5 -24.5t50.5 -39t42.5 -56.5t30.5 -76.5t14.5 -99t-6 -124.5q-11 -90 -31 -160.5t-43.5 -117.5t-58 -80.5t-65.5 -51.5t-74 -28t-75 -12.5t-77 -2.5q-282 0 -403 41l-58 -356h-151z M348 467h404q52 0 86.5 10t68.5 40t57.5 93t39.5 162q6 43 6.5 80t-4 63.5t-13.5 48t-19.5 35.5t-25 24t-27 15.5t-28.5 8.5t-26 3.5t-23 0.5h-404z" />
<glyph unicode="&#xdf;" horiz-adv-x="1167" d="M123 0l184 1159q14 93 50 168.5t97 136t157 94t220 33.5q109 0 191.5 -23t129.5 -62t73 -90.5t27 -107.5t-13 -113.5t-43 -108.5t-67 -92.5t-80 -65.5q-15 -8 -54.5 -27.5t-60.5 -32.5t-49 -35t-44 -49.5t-22 -62.5q-7 -41 11.5 -68t53.5 -41t78 -25t85.5 -26.5t76 -38 t50 -66.5t6.5 -106l-15 -96q-9 -64 -38.5 -113.5t-66.5 -78t-85 -47t-89.5 -25t-84.5 -6.5q-62 0 -129 7.5t-132 18.5t-87 13l18 122q34 0 158 -5t202 -5q65 0 115 37t62 98l14 76q5 34 -14 56.5t-54 35t-78 24t-85.5 28.5t-75.5 41.5t-49.5 71t-6.5 110.5q12 84 34.5 129 t79.5 90t181 112q59 32 96 87t46 122q6 48 -4.5 82.5t-31.5 54.5t-59 31.5t-77.5 15t-96.5 3.5q-73 0 -129 -11.5t-107.5 -41t-85 -87t-46.5 -141.5l-185 -1159h-151z" />
<glyph unicode="&#xe0;" horiz-adv-x="1107" d="M164 381.5q3 83.5 20 187.5q21 128 59 224t80 152t97.5 92t102 50t104.5 21q118 15 285.5 -21t240.5 -106l-143 -981h-109l-22 123q-43 -28 -91 -54t-133 -54.5t-157 -28.5q-53 0 -95 6.5t-83 23t-69.5 44.5t-50.5 72.5t-30.5 105t-5.5 144zM330 514q-33 -209 6.5 -293 t161.5 -84q75 0 145 14.5t114 31t132 53.5l106 690q-94 25 -190.5 34.5t-161.5 -2.5q-28 -5 -44 -9t-41.5 -12t-41 -18t-37.5 -27.5t-36.5 -39.5t-32.5 -54.5t-31 -72.5t-26 -93.5t-23 -117.5zM414 1507h178l217 -272h-141z" />
<glyph unicode="&#xe1;" horiz-adv-x="1107" d="M164 381.5q3 83.5 20 187.5q21 128 59 224t80 152t97.5 92t102 50t104.5 21q118 15 285.5 -21t240.5 -106l-143 -981h-109l-22 123q-43 -28 -91 -54t-133 -54.5t-157 -28.5q-53 0 -95 6.5t-83 23t-69.5 44.5t-50.5 72.5t-30.5 105t-5.5 144zM330 514q-33 -209 6.5 -293 t161.5 -84q75 0 145 14.5t114 31t132 53.5l106 690q-94 25 -190.5 34.5t-161.5 -2.5q-28 -5 -44 -9t-41.5 -12t-41 -18t-37.5 -27.5t-36.5 -39.5t-32.5 -54.5t-31 -72.5t-26 -93.5t-23 -117.5zM688 1235l262 272h195l-316 -272h-141z" />
<glyph unicode="&#xe2;" horiz-adv-x="1107" d="M164 381.5q3 83.5 20 187.5q21 128 59 224t80 152t97.5 92t102 50t104.5 21q118 15 285.5 -21t240.5 -106l-143 -981h-109l-22 123q-43 -28 -91 -54t-133 -54.5t-157 -28.5q-53 0 -95 6.5t-83 23t-69.5 44.5t-50.5 72.5t-30.5 105t-5.5 144zM330 514q-33 -209 6.5 -293 t161.5 -84q75 0 145 14.5t114 31t132 53.5l106 690q-94 25 -190.5 34.5t-161.5 -2.5q-28 -5 -44 -9t-41.5 -12t-41 -18t-37.5 -27.5t-36.5 -39.5t-32.5 -54.5t-31 -72.5t-26 -93.5t-23 -117.5zM438 1235l283 266h145l170 -266h-133l-117 170l-184 -170h-164z" />
<glyph unicode="&#xe3;" horiz-adv-x="1107" d="M164 381.5q3 83.5 20 187.5q21 128 59 224t80 152t97.5 92t102 50t104.5 21q118 15 285.5 -21t240.5 -106l-143 -981h-109l-22 123q-43 -28 -91 -54t-133 -54.5t-157 -28.5q-53 0 -95 6.5t-83 23t-69.5 44.5t-50.5 72.5t-30.5 105t-5.5 144zM330 514q-33 -209 6.5 -293 t161.5 -84q75 0 145 14.5t114 31t132 53.5l106 690q-94 25 -190.5 34.5t-161.5 -2.5q-28 -5 -44 -9t-41.5 -12t-41 -18t-37.5 -27.5t-36.5 -39.5t-32.5 -54.5t-31 -72.5t-26 -93.5t-23 -117.5zM420 1319q60 44 93 66.5t81.5 43.5t87.5 21q44 -3 83 -20t69 -33t53 -17 q32 -1 110 29t95 41l30 -86q-20 -12 -63 -42t-67 -44.5t-60 -28t-68 -12.5q-49 1 -85.5 19t-65 35t-58.5 16q-41 -1 -72.5 -10.5t-75 -32.5t-56.5 -29z" />
<glyph unicode="&#xe4;" horiz-adv-x="1107" d="M164 381.5q3 83.5 20 187.5q21 128 59 224t80 152t97.5 92t102 50t104.5 21q118 15 285.5 -21t240.5 -106l-143 -981h-109l-22 123q-43 -28 -91 -54t-133 -54.5t-157 -28.5q-53 0 -95 6.5t-83 23t-69.5 44.5t-50.5 72.5t-30.5 105t-5.5 144zM330 514q-33 -209 6.5 -293 t161.5 -84q75 0 145 14.5t114 31t132 53.5l106 690q-94 25 -190.5 34.5t-161.5 -2.5q-28 -5 -44 -9t-41.5 -12t-41 -18t-37.5 -27.5t-36.5 -39.5t-32.5 -54.5t-31 -72.5t-26 -93.5t-23 -117.5zM389 1339q6 42 42 72.5t79 30.5t67.5 -30t18.5 -73t-41 -73.5t-78 -30.5 t-68.5 30.5t-19.5 73.5zM911 1339q6 42 42 72.5t79 30.5t67.5 -30t18.5 -73t-41 -73.5t-78 -30.5t-68.5 30.5t-19.5 73.5z" />
<glyph unicode="&#xe5;" horiz-adv-x="1107" d="M164 381.5q3 83.5 20 187.5q21 128 59 224t80 152t97.5 92t102 50t104.5 21q118 15 285.5 -21t240.5 -106l-143 -981h-109l-22 123q-43 -28 -91 -54t-133 -54.5t-157 -28.5q-53 0 -95 6.5t-83 23t-69.5 44.5t-50.5 72.5t-30.5 105t-5.5 144zM330 514q-33 -209 6.5 -293 t161.5 -84q75 0 145 14.5t114 31t132 53.5l106 690q-94 25 -190.5 34.5t-161.5 -2.5q-28 -5 -44 -9t-41.5 -12t-41 -18t-37.5 -27.5t-36.5 -39.5t-32.5 -54.5t-31 -72.5t-26 -93.5t-23 -117.5zM584 1444q7 88 74 149.5t153 61.5t141 -61.5t47 -149.5q-7 -88 -73 -148.5 t-152 -60.5t-141.5 60.5t-48.5 148.5zM680 1444q-3 -46 26.5 -78.5t75.5 -32.5t82 32.5t39 78.5q5 46 -24.5 79t-75.5 33t-82 -33t-41 -79z" />
<glyph unicode="&#xe6;" horiz-adv-x="1847" d="M81 358.5q2 90.5 23 204.5q18 97 42.5 176t51.5 133t62 95t67 65t72.5 40.5t72 23.5t73.5 12q101 13 246.5 -13.5t234.5 -80.5q117 94 346 94q208 0 310.5 -72t80.5 -241q-10 -81 -47 -144t-90.5 -101.5t-119 -64.5t-134.5 -35.5t-134.5 -12t-122 3t-94.5 12t-54 12.5 q-24 -125 -15 -199t45.5 -104t110.5 -31q202 -16 512 29l-18 -115q-216 -59 -510 -59q-195 0 -256 143q-63 -51 -191 -97t-229 -46q-62 0 -111 10.5t-93 35t-72 68t-44.5 106t-14.5 153zM248 514q-34 -214 1 -295t167 -82q107 -2 225 27.5t166 73.5q-14 127 24 331 q47 241 109 344q-101 27 -211 41.5t-168 3.5q-36 -7 -56 -12t-51.5 -18.5t-51.5 -31.5t-45 -51t-42.5 -76.5t-35.5 -108t-31 -146.5zM983 575q12 -1 33 -3t82.5 -3t118 3t127.5 18t124 37.5t93.5 66.5t50.5 101q9 53 -1.5 86t-46.5 49t-80 21t-120 5q-109 0 -180 -25 t-109.5 -86t-52 -101.5t-31.5 -131.5q-5 -25 -8 -37z" />
<glyph unicode="&#xe7;" horiz-adv-x="1019" d="M168.5 329q-5.5 93 17.5 216q19 109 43.5 194t50.5 143t59.5 99.5t64.5 64.5t72.5 36t75.5 16.5t81 3.5q158 0 457 -58l-17 -110q-283 16 -465 16q-43 0 -68.5 -4.5t-57.5 -26.5t-54 -65t-46 -121.5t-46 -195.5q-19 -114 -19.5 -191t20.5 -123.5t55.5 -66t86.5 -19.5 q84 0 205.5 5.5t201.5 11.5l79 6l-19 -115q-126 -34 -232 -46.5t-239 -10.5q-65 1 -117.5 19.5t-95.5 59t-65.5 105t-28 157.5zM299 -354l12 75l113 31q42 17 63 60.5t31 111.5h137q-25 -159 -78 -218.5t-174 -59.5h-104z" />
<glyph unicode="&#xe8;" horiz-adv-x="1075" d="M182 569q13 69 25 119.5t29.5 105t39 93t51 76.5t67 63t85.5 44.5t109 28.5t135 9q208 0 310.5 -72t80.5 -241q-12 -92 -58.5 -161t-111.5 -106.5t-144 -60t-155.5 -27t-146 -1.5t-116 10.5t-65.5 15.5q-24 -125 -14.5 -199t46 -104t110.5 -31q201 -15 510 29l-17 -115 q-216 -59 -512 -59q-194 0 -254 140.5t-4 442.5zM334 575q12 -1 33 -3t82.5 -3t118 3t127.5 18t124 37.5t93.5 66.5t50.5 101q9 53 -1.5 86t-46.5 49t-80 21t-120 5q-109 0 -180 -25t-109.5 -86t-52 -101.5t-31.5 -131.5q-5 -25 -8 -37zM418 1503h178l217 -272h-141z" />
<glyph unicode="&#xe9;" horiz-adv-x="1075" d="M182 569q13 69 25 119.5t29.5 105t39 93t51 76.5t67 63t85.5 44.5t109 28.5t135 9q208 0 310.5 -72t80.5 -241q-12 -92 -58.5 -161t-111.5 -106.5t-144 -60t-155.5 -27t-146 -1.5t-116 10.5t-65.5 15.5q-24 -125 -14.5 -199t46 -104t110.5 -31q201 -15 510 29l-17 -115 q-216 -59 -512 -59q-194 0 -254 140.5t-4 442.5zM334 575q12 -1 33 -3t82.5 -3t118 3t127.5 18t124 37.5t93.5 66.5t50.5 101q9 53 -1.5 86t-46.5 49t-80 21t-120 5q-109 0 -180 -25t-109.5 -86t-52 -101.5t-31.5 -131.5q-5 -25 -8 -37zM672 1231l262 272h194l-315 -272 h-141z" />
<glyph unicode="&#xea;" horiz-adv-x="1075" d="M182 569q13 69 25 119.5t29.5 105t39 93t51 76.5t67 63t85.5 44.5t109 28.5t135 9q208 0 310.5 -72t80.5 -241q-12 -92 -58.5 -161t-111.5 -106.5t-144 -60t-155.5 -27t-146 -1.5t-116 10.5t-65.5 15.5q-24 -125 -14.5 -199t46 -104t110.5 -31q201 -15 510 29l-17 -115 q-216 -59 -512 -59q-194 0 -254 140.5t-4 442.5zM334 575q12 -1 33 -3t82.5 -3t118 3t127.5 18t124 37.5t93.5 66.5t50.5 101q9 53 -1.5 86t-46.5 49t-80 21t-120 5q-109 0 -180 -25t-109.5 -86t-52 -101.5t-31.5 -131.5q-5 -25 -8 -37zM444 1231l283 266h145l170 -266h-133 l-116 170l-185 -170h-164z" />
<glyph unicode="&#xeb;" horiz-adv-x="1075" d="M182 569q13 69 25 119.5t29.5 105t39 93t51 76.5t67 63t85.5 44.5t109 28.5t135 9q208 0 310.5 -72t80.5 -241q-12 -92 -58.5 -161t-111.5 -106.5t-144 -60t-155.5 -27t-146 -1.5t-116 10.5t-65.5 15.5q-24 -125 -14.5 -199t46 -104t110.5 -31q201 -15 510 29l-17 -115 q-216 -59 -512 -59q-194 0 -254 140.5t-4 442.5zM334 575q12 -1 33 -3t82.5 -3t118 3t127.5 18t124 37.5t93.5 66.5t50.5 101q9 53 -1.5 86t-46.5 49t-80 21t-120 5q-109 0 -180 -25t-109.5 -86t-52 -101.5t-31.5 -131.5q-5 -25 -8 -37zM395 1335q6 42 42 72.5t79 30.5 t67.5 -30t18.5 -73t-41 -73.5t-78 -30.5t-68.5 30.5t-19.5 73.5zM918 1335q6 43 41.5 73t78.5 30t67.5 -30t18.5 -73t-40.5 -73.5t-77.5 -30.5t-68.5 30.5t-19.5 73.5z" />
<glyph unicode="&#xec;" horiz-adv-x="399" d="M68 1493h178l217 -272h-141zM123 0l172 1087h151l-172 -1087h-151z" />
<glyph unicode="&#xed;" horiz-adv-x="399" d="M123 0l172 1087h151l-172 -1087h-151zM317 1221l263 272h194l-315 -272h-142z" />
<glyph unicode="&#xee;" horiz-adv-x="399" d="M84 1221l283 266h145l170 -266h-133l-117 170l-184 -170h-164zM123 0l172 1087h151l-172 -1087h-151z" />
<glyph unicode="&#xef;" horiz-adv-x="399" d="M29 1325q6 42 42 72t79 30t67.5 -29.5t18.5 -72.5t-41 -73.5t-78 -30.5t-68.5 30.5t-19.5 73.5zM123 0l172 1087h151l-172 -1087h-151zM551 1325q6 42 42 72t79 30t67.5 -29.5t18.5 -72.5t-41 -73.5t-78 -30.5t-68.5 30.5t-19.5 73.5z" />
<glyph unicode="&#xf0;" horiz-adv-x="1099" d="M145 368q2 74 17 160q51 300 148.5 429.5t297.5 129.5h211q115 0 139 -30q-25 170 -108 270l-315 -119l-31 123l237 90q-98 57 -258 49l21 134q270 0 409 -121l256 96l33 -123l-198 -74q58 -89 89 -208t33 -243.5t-5 -217.5t-21 -185q-22 -140 -54 -234.5t-83.5 -162.5 t-126 -99.5t-179.5 -31.5h-221q-82 0 -140.5 29t-91 78t-47 118t-12.5 143zM296.5 361q-0.5 -70 10.5 -110.5t35 -63.5t51 -29.5t64 -5.5h221q37 -1 66 6t61.5 30t57 63t47.5 110.5t38 166.5q27 152 21 242.5t-45.5 128t-126.5 37.5h-205q-43 0 -75.5 -9.5t-64 -36 t-55.5 -72t-45.5 -117.5t-38.5 -173q-16 -97 -16.5 -167z" />
<glyph unicode="&#xf1;" horiz-adv-x="1114" d="M123 0l172 1087h106l25 -126q6 3 44 23.5t47 24.5t42.5 21t47 21.5t43.5 17t49 16.5t47 10.5t53.5 8.5t52.5 2q104 0 174.5 -50t96 -128t10.5 -170l-121 -758h-152l121 758q14 97 -29 146.5t-125 49.5q-79 0 -149.5 -15.5t-116 -34t-153.5 -66.5l-134 -838h-151z M428 1313q60 44 93 66.5t81.5 43.5t87.5 21q44 -3 83 -20t69 -33t53 -17q32 -1 110 29t95 41l30 -86q-20 -12 -63 -42t-67 -44.5t-60 -28t-68 -12.5q-39 1 -70.5 12t-49 24t-41 23.5t-47.5 9.5q-41 -1 -72.5 -10t-76.5 -32.5t-56 -28.5z" />
<glyph unicode="&#xf2;" horiz-adv-x="1155" d="M182 528q27 169 67 276.5t108 174.5t159.5 93t228.5 26q255 0 349.5 -139.5t46.5 -430.5q-26 -156 -63 -254.5t-100 -164.5t-153.5 -92.5t-226.5 -26.5q-266 0 -363.5 124t-52.5 414zM319 395.5q-2 -57.5 4.5 -98.5t24.5 -69.5t39.5 -45.5t57.5 -26t70.5 -12t84.5 -3 q61 0 100 4t82 17t71 38.5t55 68t46.5 106.5t34.5 153q18 106 18 178t-14.5 120t-51.5 74t-86.5 36t-125.5 10q-54 0 -91 -3.5t-76 -13.5t-65.5 -29t-52.5 -49.5t-44.5 -75t-35 -105.5t-30.5 -142q-13 -75 -15 -132.5zM440 1493h178l218 -272h-142z" />
<glyph unicode="&#xf3;" horiz-adv-x="1155" d="M182 528q27 169 67 276.5t108 174.5t159.5 93t228.5 26q255 0 349.5 -139.5t46.5 -430.5q-26 -156 -63 -254.5t-100 -164.5t-153.5 -92.5t-226.5 -26.5q-266 0 -363.5 124t-52.5 414zM319 395.5q-2 -57.5 4.5 -98.5t24.5 -69.5t39.5 -45.5t57.5 -26t70.5 -12t84.5 -3 q61 0 100 4t82 17t71 38.5t55 68t46.5 106.5t34.5 153q18 106 18 178t-14.5 120t-51.5 74t-86.5 36t-125.5 10q-54 0 -91 -3.5t-76 -13.5t-65.5 -29t-52.5 -49.5t-44.5 -75t-35 -105.5t-30.5 -142q-13 -75 -15 -132.5zM694 1221l262 272h195l-315 -272h-142z" />
<glyph unicode="&#xf4;" horiz-adv-x="1155" d="M182 528q27 169 67 276.5t108 174.5t159.5 93t228.5 26q255 0 349.5 -139.5t46.5 -430.5q-26 -156 -63 -254.5t-100 -164.5t-153.5 -92.5t-226.5 -26.5q-266 0 -363.5 124t-52.5 414zM319 395.5q-2 -57.5 4.5 -98.5t24.5 -69.5t39.5 -45.5t57.5 -26t70.5 -12t84.5 -3 q61 0 100 4t82 17t71 38.5t55 68t46.5 106.5t34.5 153q18 106 18 178t-14.5 120t-51.5 74t-86.5 36t-125.5 10q-54 0 -91 -3.5t-76 -13.5t-65.5 -29t-52.5 -49.5t-44.5 -75t-35 -105.5t-30.5 -142q-13 -75 -15 -132.5zM467 1221l283 266h145l170 -266h-133l-117 170 l-184 -170h-164z" />
<glyph unicode="&#xf5;" horiz-adv-x="1155" d="M182 528q27 169 67 276.5t108 174.5t159.5 93t228.5 26q255 0 349.5 -139.5t46.5 -430.5q-26 -156 -63 -254.5t-100 -164.5t-153.5 -92.5t-226.5 -26.5q-266 0 -363.5 124t-52.5 414zM319 395.5q-2 -57.5 4.5 -98.5t24.5 -69.5t39.5 -45.5t57.5 -26t70.5 -12t84.5 -3 q61 0 100 4t82 17t71 38.5t55 68t46.5 106.5t34.5 153q18 106 18 178t-14.5 120t-51.5 74t-86.5 36t-125.5 10q-54 0 -91 -3.5t-76 -13.5t-65.5 -29t-52.5 -49.5t-44.5 -75t-35 -105.5t-30.5 -142q-13 -75 -15 -132.5zM430 1305q60 44 93 66.5t81.5 43.5t87.5 21 q44 -3 83 -20t69 -33t53 -17q32 -1 110 29t95 41l31 -86q-19 -12 -63 -42t-68 -44.5t-60 -28t-68 -12.5q-39 1 -70.5 12t-49 24t-41 23.5t-47.5 9.5q-41 -1 -72.5 -10t-76.5 -32.5t-56 -28.5z" />
<glyph unicode="&#xf6;" horiz-adv-x="1155" d="M182 528q27 169 67 276.5t108 174.5t159.5 93t228.5 26q255 0 349.5 -139.5t46.5 -430.5q-26 -156 -63 -254.5t-100 -164.5t-153.5 -92.5t-226.5 -26.5q-266 0 -363.5 124t-52.5 414zM319 395.5q-2 -57.5 4.5 -98.5t24.5 -69.5t39.5 -45.5t57.5 -26t70.5 -12t84.5 -3 q61 0 100 4t82 17t71 38.5t55 68t46.5 106.5t34.5 153q18 106 18 178t-14.5 120t-51.5 74t-86.5 36t-125.5 10q-54 0 -91 -3.5t-76 -13.5t-65.5 -29t-52.5 -49.5t-44.5 -75t-35 -105.5t-30.5 -142q-13 -75 -15 -132.5zM418 1325q6 42 42 72t79 30t67.5 -29.5t18.5 -72.5 t-41 -73.5t-78 -30.5t-68.5 30.5t-19.5 73.5zM940 1325q6 42 42 72t79 30t67.5 -29.5t18.5 -72.5t-41 -73.5t-78 -30.5t-68.5 30.5t-19.5 73.5z" />
<glyph unicode="&#xf7;" horiz-adv-x="1058" d="M205 647l24 152h852l-24 -152h-852zM489 354l19 111q7 51 57 51h103q22 0 32 -14t7 -37l-19 -111q-6 -47 -53 -47h-103q-22 0 -34 13t-9 34zM588 967l16 110q7 51 58 51h102q22 0 32 -14t7 -37l-17 -110q-6 -47 -55 -47h-102q-22 0 -33 12.5t-8 34.5z" />
<glyph unicode="&#xf8;" horiz-adv-x="1163" d="M104 0l119 133q-80 126 -37 395q27 169 67 276.5t108 174.5t160 93t229 26q173 0 274 -66l49 55h135l-112 -124q99 -137 49 -435q-26 -156 -63 -255t-101 -164.5t-154.5 -92t-226.5 -26.5q-207 0 -311 76l-60 -66h-125zM336 260l584 655q-61 31 -189 31q-63 0 -105 -5 t-84.5 -20t-70 -43t-54 -74.5t-45 -114t-34.5 -161.5q-29 -182 -2 -268zM393 182q57 -41 211 -41q61 0 100 4t82 17t71 38.5t55 68t46.5 106.5t34.5 153q39 223 -4 316z" />
<glyph unicode="&#xf9;" horiz-adv-x="1112" d="M156 330l118 757h152l-119 -757q-17 -109 25 -153t129 -44q78 0 149.5 16t116.5 34t154 67l131 837h151l-172 -1087h-106l-25 127q-6 -3 -49.5 -26t-52.5 -27.5t-47 -23t-53.5 -23.5t-49.5 -17t-56.5 -16t-54 -8t-61.5 -4q-158 0 -231 98t-49 250zM416 1493h178l217 -272 h-141z" />
<glyph unicode="&#xfa;" horiz-adv-x="1112" d="M156 330l118 757h152l-119 -757q-17 -109 25 -153t129 -44q78 0 149.5 16t116.5 34t154 67l131 837h151l-172 -1087h-106l-25 127q-6 -3 -49.5 -26t-52.5 -27.5t-47 -23t-53.5 -23.5t-49.5 -17t-56.5 -16t-54 -8t-61.5 -4q-158 0 -231 98t-49 250zM670 1221l262 272h194 l-315 -272h-141z" />
<glyph unicode="&#xfb;" horiz-adv-x="1112" d="M156 330l118 757h152l-119 -757q-17 -109 25 -153t129 -44q78 0 149.5 16t116.5 34t154 67l131 837h151l-172 -1087h-106l-25 127q-6 -3 -49.5 -26t-52.5 -27.5t-47 -23t-53.5 -23.5t-49.5 -17t-56.5 -16t-54 -8t-61.5 -4q-158 0 -231 98t-49 250zM440 1221l283 266h145 l170 -266h-133l-117 170l-184 -170h-164z" />
<glyph unicode="&#xfc;" horiz-adv-x="1112" d="M156 330l118 757h152l-119 -757q-17 -109 25 -153t129 -44q78 0 149.5 16t116.5 34t154 67l131 837h151l-172 -1087h-106l-25 127q-6 -3 -49.5 -26t-52.5 -27.5t-47 -23t-53.5 -23.5t-49.5 -17t-56.5 -16t-54 -8t-61.5 -4q-158 0 -231 98t-49 250zM393 1325q6 42 42 72 t79 30t67.5 -29.5t18.5 -72.5t-41 -73.5t-78 -30.5t-68.5 30.5t-19.5 73.5zM915 1325q6 42 42 72t79 30t67.5 -29.5t18.5 -72.5t-40.5 -73.5t-77.5 -30.5t-69 30.5t-20 73.5z" />
<glyph unicode="&#xfd;" horiz-adv-x="1124" d="M193 1087h157l131 -849q7 -44 42 -64t67 -18l31 2l395 770q36 68 51 164h125q33 -99 -18 -197l-453 -893q-67 -131 -119.5 -216.5t-115.5 -160.5t-132.5 -117t-152.5 -59v109q59 39 110.5 91.5t96.5 119.5t71 112.5t64 118.5q-20 0 -40 3.5t-50.5 17t-54.5 36.5 t-45.5 66.5t-30.5 101.5zM643 1210l262 273h195l-316 -273h-141z" />
<glyph unicode="&#xfe;" horiz-adv-x="1126" d="M55 -553l342 2155h152l-103 -637q60 40 195 90.5t227 50.5q70 0 124.5 -34.5t86 -91t51 -129.5t19 -150.5t-9.5 -153.5q-30 -195 -69 -295q-108 -272 -380 -272q-77 0 -189 21t-198 58l-96 -612h-152zM324 182q46 -13 87 -22.5t87 -14.5t67 -7t74.5 -4t62.5 -3 q227 0 283 420q25 193 -14 302.5t-131 102.5q-148 -9 -410 -104z" />
<glyph unicode="&#xff;" horiz-adv-x="1124" d="M193 1087h157l131 -849q7 -44 42 -64t67 -18l31 2l395 770q36 68 51 164h125q33 -99 -18 -197l-453 -893q-67 -131 -119.5 -216.5t-115.5 -160.5t-132.5 -117t-152.5 -59v109q59 39 110.5 91.5t96.5 119.5t71 112.5t64 118.5q-20 0 -40 3.5t-50.5 17t-54.5 36.5 t-45.5 66.5t-30.5 101.5zM367 1315q6 42 41.5 72t78.5 30t67.5 -29.5t18.5 -72.5t-40.5 -74t-77.5 -31t-68.5 31t-19.5 74zM889 1315q6 42 42 72t79 30t67.5 -29.5t18.5 -72.5t-41 -74t-78 -31t-68.5 31t-19.5 74z" />
<glyph unicode="&#x152;" horiz-adv-x="2203" d="M188.5 483q1.5 113 24.5 256q33 207 81 349.5t102.5 225t137.5 126.5t161.5 56.5t199.5 12.5q165 0 271 -35.5t165 -132.5q35 94 102.5 128.5t168.5 29.5l643 -33l-19 -118h-649q-66 0 -91.5 -31.5t-33.5 -83.5l-63 -410l669 -20l-18 -121l-678 -20l-66 -410 q-4 -31 1.5 -52.5t14 -32t29 -16t32 -6t36.5 -0.5h629l-21 -116l-633 -35q-83 -5 -148.5 31t-86.5 112q-80 -85 -189 -115t-266 -30q-80 0 -137.5 5.5t-121 23.5t-105 50t-77.5 88t-51 133.5t-13.5 190.5zM340.5 391q4.5 -64 24 -107.5t46.5 -71.5t72.5 -43t94.5 -20.5 t120 -5.5q94 0 159.5 13t126.5 50t103 103t76 172t58 258q18 113 25 202t-1 153t-18.5 110t-40 74.5t-53 45t-71 24t-79.5 9t-92 1.5q-64 0 -98 -1.5t-84.5 -9t-79 -24t-66.5 -45.5t-62 -74.5t-51 -109.5t-47 -152.5t-38 -202.5q-18 -113 -23.5 -198.5t-1 -149.5z" />
<glyph unicode="&#x153;" horiz-adv-x="1900" d="M166 535q27 169 67 275.5t108 172t159 90.5t229 25q286 0 371 -174q59 92 161 138t267 46q208 0 310.5 -72t80.5 -241q-12 -92 -58.5 -161t-111.5 -106.5t-144 -60t-155.5 -27t-146 -1.5t-116 10.5t-65.5 15.5q-32 -189 0 -261.5t142 -72.5q308 0 510 29l-17 -115 q-216 -59 -512 -59q-197 0 -258 149q-62 -77 -158.5 -111t-246.5 -34q-265 0 -363.5 127t-52.5 418zM302.5 395.5q-1.5 -57.5 4.5 -98.5t24.5 -69.5t40 -45.5t57.5 -26t70.5 -12t84.5 -3q61 0 100 4t82 17t71 38.5t55 68t46.5 106.5t34.5 153q18 106 18 178t-14.5 120 t-51.5 74t-86.5 36t-125.5 10q-63 0 -105 -5t-85 -20t-71 -43t-54.5 -74t-45.5 -114t-35 -162q-13 -75 -14.5 -132.5zM1139 575q12 -1 33 -3t82.5 -3t118 3t127 18t123.5 37.5t93.5 66.5t50.5 101q4 22 4.5 40t-3 32.5t-9.5 26t-16 20.5t-21.5 15.5t-28.5 11.5t-34.5 8 t-41 4.5t-46 2t-51.5 0.5q-109 0 -180 -25t-109.5 -86t-52 -101.5t-31.5 -131.5q-5 -25 -8 -37z" />
<glyph unicode="&#x178;" horiz-adv-x="1290" d="M219 1499h160l262 -780l545 780h180l-672 -967l-84 -532h-151l84 532zM465 1726q6 42 42 72.5t79 30.5t67.5 -30t18.5 -73t-41 -73.5t-78 -30.5t-68.5 30.5t-19.5 73.5zM987 1726q6 42 42 72.5t79 30.5t67.5 -30t18.5 -73t-41 -73.5t-78 -30.5t-68.5 30.5t-19.5 73.5z " />
<glyph unicode="&#x2c6;" horiz-adv-x="679" d="M135 1087l283 267h145l170 -267h-133l-117 170l-184 -170h-164z" />
<glyph unicode="&#x2dc;" horiz-adv-x="907" d="M274 1171q60 45 93 67t82 43.5t88 21.5q44 -3 82.5 -20t68.5 -33t53 -17q32 -1 110 29t95 41l31 -86q-20 -12 -63 -42t-67 -44.5t-60 -28t-68 -12.5q-49 1 -85.5 18.5t-65 34.5t-58.5 16q-41 -1 -72.5 -10.5t-75.5 -32.5t-57 -29z" />
<glyph unicode="&#x2000;" horiz-adv-x="957" />
<glyph unicode="&#x2001;" horiz-adv-x="1915" />
<glyph unicode="&#x2002;" horiz-adv-x="957" />
<glyph unicode="&#x2003;" horiz-adv-x="1915" />
<glyph unicode="&#x2004;" horiz-adv-x="638" />
<glyph unicode="&#x2005;" horiz-adv-x="478" />
<glyph unicode="&#x2006;" horiz-adv-x="319" />
<glyph unicode="&#x2007;" horiz-adv-x="319" />
<glyph unicode="&#x2008;" horiz-adv-x="239" />
<glyph unicode="&#x2009;" horiz-adv-x="383" />
<glyph unicode="&#x200a;" horiz-adv-x="106" />
<glyph unicode="&#x2010;" horiz-adv-x="727" d="M123 518l24 152h644l-25 -152h-643z" />
<glyph unicode="&#x2011;" horiz-adv-x="727" d="M123 518l24 152h644l-25 -152h-643z" />
<glyph unicode="&#x2012;" horiz-adv-x="727" d="M123 518l24 152h644l-25 -152h-643z" />
<glyph unicode="&#x2013;" horiz-adv-x="935" d="M123 512l24 154h969l-24 -154h-969z" />
<glyph unicode="&#x2014;" horiz-adv-x="1507" d="M121 516l24 154h1426l-25 -154h-1425z" />
<glyph unicode="&#x2018;" horiz-adv-x="552" d="M344 1120l31 203q10 60 38.5 99.5t62.5 53.5t66.5 19.5t53.5 2.5l22 -3l-12 -72q-71 2 -82 -69l-8 -58h25q55 0 47 -55l-19 -121q-9 -61 -67 -61h-115q-54 0 -43 61z" />
<glyph unicode="&#x2019;" horiz-adv-x="552" d="M346 1061l12 74q24 -1 40.5 5.5t24 19.5t10.5 21.5t5 22.5l8 56h-24q-25 0 -38 14.5t-9 42.5l20 121q9 61 66 61h114q29 0 40 -17t6 -44l-33 -203q-10 -60 -38.5 -99.5t-62 -54t-66 -20t-53.5 -3.5z" />
<glyph unicode="&#x201a;" horiz-adv-x="550" d="M143 -201l13 72q24 -1 40.5 6t24 20.5t10.5 22.5t5 23l8 55h-25q-25 0 -38 14.5t-9 42.5l21 121q9 62 65 62h115q56 0 45 -62l-33 -203q-10 -60 -38.5 -99.5t-62 -54t-66 -20t-54.5 -3.5z" />
<glyph unicode="&#x201c;" horiz-adv-x="847" d="M330 1120l30 203q10 60 38.5 99.5t62 53.5t66 19.5t53.5 2.5l22 -3l-10 -72q-71 2 -82 -69l-8 -58h24q55 0 47 -55l-18 -121q-9 -61 -68 -61h-114q-54 0 -43 61zM657 1120l31 203q10 60 38.5 99.5t62 53.5t66 19.5t53.5 2.5l22 -3l-10 -72q-71 2 -82 -69l-9 -58h25 q55 0 47 -55l-18 -121q-9 -61 -68 -61h-115q-54 0 -43 61z" />
<glyph unicode="&#x201d;" horiz-adv-x="849" d="M330 1061l12 74q24 -1 40.5 5.5t24 19.5t10.5 21.5t5 22.5l8 56h-24q-25 0 -38.5 14.5t-9.5 42.5l21 121q9 61 65 61h115q56 0 45 -61l-33 -203q-10 -60 -38.5 -99.5t-62 -54t-65.5 -20t-53 -3.5zM657 1061l13 74q24 -1 40.5 5.5t24 19.5t10.5 21.5t5 22.5l8 56h-25 q-25 0 -38 14.5t-9 42.5l21 121q9 61 65 61h115q56 0 45 -61l-33 -203q-10 -60 -38.5 -99.5t-62 -54t-66 -20t-54.5 -3.5z" />
<glyph unicode="&#x201e;" horiz-adv-x="847" d="M127 -199l12 72q24 -1 40.5 6t24 20.5t10.5 22.5t5 23l8 55h-24q-25 0 -38 14.5t-9 42.5l20 121q9 62 66 62h114q56 0 45 -62l-32 -203q-10 -60 -38.5 -99.5t-62 -54t-66 -20t-54.5 -3.5zM455 -199l12 72q24 -1 40.5 6t24 20.5t10.5 22.5t5 23l8 55h-25q-25 0 -38 14.5 t-9 42.5l21 121q9 62 65 62h115q56 0 45 -62l-33 -203q-10 -60 -38.5 -99.5t-62 -54t-65.5 -20t-54 -3.5z" />
<glyph unicode="&#x2022;" horiz-adv-x="634" d="M285 698l24 164q5 33 26 52.5t54 19.5h152q69 0 59 -72l-25 -164q-11 -65 -83 -65h-152q-31 0 -45.5 17t-9.5 48z" />
<glyph unicode="&#x2026;" horiz-adv-x="1564" d="M297 47l18 117q10 51 58 51h108q52 0 43 -51l-18 -117q-8 -47 -57 -47h-109q-22 0 -33.5 12.5t-9.5 34.5zM854 47l18 117q10 51 58 51h108q52 0 43 -51l-18 -117q-8 -47 -57 -47h-109q-22 0 -33.5 12.5t-9.5 34.5zM1411 47l19 117q10 51 57 51h108q52 0 43 -51l-18 -117 q-8 -47 -57 -47h-109q-22 0 -33.5 12.5t-9.5 34.5z" />
<glyph unicode="&#x202f;" horiz-adv-x="383" />
<glyph unicode="&#x2039;" horiz-adv-x="616" d="M78 725l487 416l94 -111l-374 -319l268 -316l-111 -96z" />
<glyph unicode="&#x203a;" horiz-adv-x="737" d="M217 410l375 319l-268 315l110 97l365 -426l-488 -416z" />
<glyph unicode="&#x205f;" horiz-adv-x="478" />
<glyph unicode="&#x20ac;" horiz-adv-x="1470" d="M143 522l15 96l184 15l33 207l-178 16l14 88l182 19q22 142 49 216q122 337 519 337q75 0 225.5 -20t265.5 -42l-18 -121q-330 31 -498 31q-64 0 -116 -12t-88.5 -31t-66 -51t-47.5 -62t-33 -76.5t-23 -81t-17 -87.5l477 -15l-14 -94l-482 -14l-32 -207l475 -15l-15 -96 q-31 -1 -81 -2t-156.5 -3.5t-176 -5t-67.5 -3.5q-10 -74 -11 -130.5t15 -97.5t38.5 -68t59 -43.5t76 -23t90.5 -6.5q88 0 217 8.5t214 17.5l85 9l-18 -115q-263 -71 -520 -71q-26 0 -51.5 2t-57.5 7.5t-60.5 15.5t-59.5 24.5t-56.5 37t-49 50.5t-39.5 66.5t-25.5 84.5 t-9 105t11.5 127z" />
<glyph unicode="&#x2122;" horiz-adv-x="1304" d="M96 1368l21 131h530l-20 -131h-199l-92 -584h-131l92 584h-201zM614 784l168 715h119l117 -493l239 493h142l-49 -715h-131l30 414l-202 -414h-109l-96 416l-97 -416h-131z" />
<glyph unicode="&#xe000;" horiz-adv-x="1085" d="M0 0v1085h1085v-1085h-1085z" />
<glyph unicode="&#xfb03;" horiz-adv-x="1990" d="M188 936l19 117l209 34l28 183q5 31 9.5 53t15.5 58t24.5 61.5t37 55t52.5 48t71.5 31t93.5 12.5q128 0 274 -47l-16 -100h-248q-38 0 -65 -9.5t-42.5 -22t-27 -38.5t-16 -45.5t-11.5 -56.5l-33 -183h590l16 109q30 195 156 304.5t311 109.5q229 0 375 -47l-16 -101h-346 q-55 0 -102.5 -11t-96 -38.5t-83 -82.5t-46.5 -134l-16 -109l731 -20l-168 -1067h-154l148 936h-586l-148 -936h-151l147 936h-585l-148 -936h-151l147 936h-199z" />
<glyph unicode="&#xfb04;" horiz-adv-x="2203" d="M188 936l19 117l209 34l28 183q5 31 9.5 53t15.5 58t24.5 61.5t37 55t52.5 48t71.5 31t93.5 12.5q128 0 274 -47l-16 -100h-248q-38 0 -65 -9.5t-42.5 -22t-27 -38.5t-16 -45.5t-11.5 -56.5l-33 -183h590l16 109q64 404 400 414h551l-193 -1223q-11 -67 -12.5 -108 t9.5 -67t29 -38t52 -22q162 -43 176 -43l-16 -109h-180q-98 0 -149.5 36t-68 122t8.5 229l166 1075h-361q-53 0 -91.5 -11t-73.5 -39t-58.5 -81.5t-36.5 -134.5l-16 -109h299l-25 -151h-303l-148 -936h-151l147 936h-585l-148 -936h-151l147 936h-199z" />
</font>
</defs>
</svg>
